<svg width="23" height="18" viewBox="0 0 23 18" fill="none" xmlns="http://www.w3.org/2000/svg">
<path d="M4.17988 13.8371C4.17988 13.8371 3.64832 17.5672 12.2125 17.5672C20.7767 17.5672 20.3237 14.0065 20.3237 14.0065C20.3237 14.0065 11.3463 8.83876 4.17988 13.8371Z" fill="#E08C30"/>
<g style="mix-blend-mode:multiply" opacity="0.2">
<path d="M20.3239 14.0065C20.3239 14.0065 11.3455 8.83876 4.18006 13.8371C4.18006 13.8371 3.976 15.2349 5.7921 16.3194C10.1446 13.9636 16.0153 15.2349 17.8518 16.7582C20.5392 15.7073 20.3239 14.0065 20.3239 14.0065Z" fill="#A33322"/>
</g>
<path d="M15.607 14.8654C15.607 14.8654 21.1716 15.499 21.7073 14.8869C22.1286 14.4063 20.9064 12.4515 20.5768 12.0709C20.3472 11.8107 15.607 14.8654 15.607 14.8654Z" fill="#FDBE10"/>
<g style="mix-blend-mode:multiply" opacity="0.4">
<path d="M21.7033 14.887C21.8053 14.7738 21.8053 14.5809 21.7604 14.3452C20.3708 14.5993 17.9619 14.282 17.9619 14.282L17.0825 15.0084C18.77 15.1502 21.3472 15.2941 21.7033 14.887Z" fill="#CD8100"/>
</g>
<path d="M5.59512 13.2138C5.59512 13.2138 12.3912 17.1112 14.9031 16.899C16.1448 16.797 19.5964 12.9199 19.5964 12.9199L5.59512 13.2138Z" fill="#FDBE10"/>
<g style="mix-blend-mode:multiply" opacity="0.4">
<path d="M19.5269 12.9187C19.5269 12.9187 19.3443 11.9586 18.0516 13.5513C16.3212 15.6796 14.8387 16.0958 14.8387 16.0958C14.8387 16.0958 14.8969 16.8039 14.903 16.9019C16.1447 16.7998 19.5963 12.9228 19.5963 12.9228L19.5269 12.9187Z" fill="#CD8100"/>
</g>
<path d="M4.19526 12.2812C4.19526 12.2812 2.90562 14.1361 2.76687 14.5667C2.70871 14.7452 2.82706 15.1197 2.8393 15.1319C3.16579 15.1615 7.83153 14.7973 9.63334 14.2381C11.5158 13.6545 4.19526 12.2812 4.19526 12.2812Z" fill="#FDBE10"/>
<g style="mix-blend-mode:multiply" opacity="0.4">
<path d="M9.2262 13.5342C9.05377 13.5678 9.18233 13.7597 8.81197 13.8525C7.42541 14.1974 3.93504 14.6208 2.75253 14.6371C2.74908 14.806 2.77817 14.974 2.83823 15.1319C3.16472 15.1615 7.83046 14.7973 9.63227 14.2382C10.2148 14.0555 9.91591 13.8015 9.2262 13.5342Z" fill="#CD8100"/>
</g>
<path d="M3.55756 11.5507C3.39228 9.62443 7.98047 7.16352 12.2432 7.12985C16.559 7.09108 21.2451 9.52751 21.1002 11.4711C20.9553 13.4148 15.9713 14.8217 12.1381 14.7932C8.54366 14.7697 3.72182 13.4607 3.55756 11.5507Z" fill="#9C4D0A"/>
<g style="mix-blend-mode:multiply" opacity="0.5">
<path d="M21.1003 11.4712C21.136 10.9926 20.8789 10.4845 20.4065 9.99073L8.6478 9.69995L9.48545 13.5209C9.48545 13.5209 9.98845 14.532 11.2352 13.0036C11.2352 13.0036 14.2073 13.7923 15.6928 12.2394C15.6928 12.2394 16.4356 13.5944 18.9281 12.3874C18.9281 12.3874 19.4087 12.7373 19.0761 13.4485C20.2504 12.9067 21.0432 12.2292 21.1003 11.4712Z" fill="#9C4D0A"/>
</g>
<g style="mix-blend-mode:multiply" opacity="0.3">
<path d="M5.30935 13.1526C5.2767 12.2568 5.17671 11.563 5.57258 10.7865C5.82765 9.97951 6.54592 9.1388 7.16319 8.54908C7.35744 8.33375 7.56975 8.13544 7.79781 7.9563C5.31751 8.84904 3.45142 10.3101 3.55753 11.5507C3.61773 12.2537 4.31049 12.8771 5.33893 13.3801L5.30935 13.1526Z" fill="#9C4D0A"/>
</g>
<path d="M8.82519 11.5468C8.82519 11.5468 8.63338 13.5547 9.18841 13.7455C10.1567 14.077 12.0003 11.258 12.0003 11.258L10.6658 10.353L8.82519 11.5468Z" fill="#5B7C38"/>
<path d="M16.8569 11.3589C16.8569 11.3589 16.9875 13.1892 16.4039 13.2229C15.6295 13.2668 13.9654 11.1313 13.9654 11.1313L15.3009 10.2253L16.8569 11.3589Z" fill="#6C8E3E"/>
<path d="M8.90593 8.63266C8.88042 8.00825 9.14263 7.30629 9.51809 6.80432C8.71643 6.44104 7.84751 6.24988 6.9674 6.24316C5.18497 6.25541 3.04851 6.6023 2.41798 7.84194C2.29248 8.08885 2.31595 8.96425 2.31595 9.22442C2.30983 10.866 4.5677 12.2393 7.21328 12.2393C8.62943 12.2393 9.80683 11.8843 10.6118 11.3211C9.62828 10.8926 8.95592 9.83454 8.90593 8.63266Z" fill="#E82014"/>
<g style="mix-blend-mode:multiply" opacity="0.5">
<path d="M3.75859 11.3373C4.65541 11.8913 5.88893 12.2392 7.22141 12.2392C8.12459 12.2541 9.02131 12.0847 9.85679 11.7413L9.86904 10.8231C9.27613 10.2454 8.93079 9.45997 8.90589 8.63254V8.61723L3.71982 8.01221L2.33734 8.24789C2.30776 8.59887 2.32102 9.04779 2.32 9.2243C2.32266 9.59204 2.42873 9.95161 2.62608 10.2619V9.24164C2.62608 9.24164 3.61473 9.38958 4.14936 9.24164L5.38491 9.83442C5.38491 9.83442 4.38402 10.6353 3.75859 11.3373Z" fill="#CA2B1E"/>
</g>
<g style="mix-blend-mode:multiply">
<path d="M6.13061 12.1599V11.1243L4.15433 11.5569C4.77699 11.8613 5.44407 12.0648 6.13061 12.1599Z" fill="#CA2B1E"/>
</g>
<path d="M8.90593 8.63284C8.87635 7.91354 9.22834 7.09222 9.69461 6.59228C9.8484 6.42893 10.0222 6.28563 10.2119 6.16581C9.23775 5.5764 8.12326 5.25928 6.98475 5.24756C4.84217 5.26184 2.34351 6.64024 2.33738 8.22881C2.33126 9.87044 4.58812 11.2437 7.23472 11.2437C8.11617 11.2573 8.99162 11.0967 9.81092 10.7713C9.25278 10.1965 8.92994 9.43368 8.90593 8.63284Z" fill="#FF5841"/>
<g style="mix-blend-mode:multiply" opacity="0.5">
<path d="M2.34338 8.24806C2.34891 8.5993 2.44977 8.94244 2.63518 9.2408C2.68416 9.24794 3.63812 9.36833 4.28293 9.32548L5.39197 9.83562C5.39197 9.83562 4.91856 10.2131 4.41965 10.6773C5.31118 11.0577 6.27147 11.2504 7.24072 11.2436C8.12217 11.2571 8.99762 11.0966 9.81692 10.7712C9.25635 10.196 8.93195 9.43145 8.90785 8.62863V8.61332L3.72178 8.0083L2.34338 8.24806Z" fill="#CA2B1E"/>
</g>
<path d="M4.41262 6.99609C4.41262 6.99609 0.786545 7.15016 0.823275 8.14697C0.851843 8.91932 4.16673 8.97135 4.16673 8.97135C4.16673 8.97135 2.39757 11.5139 3.09034 11.8842C4.16673 12.4597 8.69676 10.009 8.99366 9.22234C9.22425 8.61017 5.85529 7.11139 4.41262 6.99609Z" fill="url(#paint0_linear_522_1887)"/>
<path d="M4.82266 10.01C4.82266 10.01 3.7075 10.1835 3.7075 10.2926C3.7075 10.4018 4.66452 10.4018 4.66452 10.4018C4.66452 10.4018 3.36367 11.3313 3.46569 11.5221C3.56772 11.7129 5.43177 10.1284 5.43177 10.1284L4.82266 10.01Z" fill="#79AD41"/>
<path d="M17.7649 6.21674C16.9612 6.23959 16.1681 6.4065 15.4234 6.70953C15.857 7.25445 16.1035 7.92454 16.1264 8.62052C16.1559 9.33471 15.8091 10.1509 15.3469 10.6498C15.0513 10.9653 14.6837 11.2044 14.2756 11.3467C15.0755 11.8568 16.2355 12.1527 17.7445 12.0884C20.3585 11.9772 22.1317 10.809 22.1848 9.27656C22.198 8.87457 22.3296 8.15425 22.0909 7.79409C21.3747 6.70239 19.427 6.1994 17.7649 6.21674Z" fill="#E82014"/>
<g style="mix-blend-mode:multiply">
<path d="M22.1848 9.27966C22.1848 9.20007 22.195 9.10621 22.2031 9.0052L18.4628 7.1687L16.1274 8.76646C16.0891 9.4657 15.8138 10.131 15.3469 10.6529C15.0513 10.9684 14.6837 11.2075 14.2756 11.3498C15.0755 11.8599 16.2355 12.1558 17.7445 12.0915C18.2075 12.0728 18.6682 12.0162 19.1219 11.9222V10.8723C19.1219 10.8723 19.6779 10.0245 19.7188 9.62247C20.2759 9.72907 20.8404 9.79286 21.4073 9.81326L21.4451 10.8162C21.9032 10.3826 22.1654 9.85611 22.1848 9.27966Z" fill="#CA2B1E"/>
</g>
<path d="M17.7496 5.25247C16.6637 5.29583 15.6025 5.58986 14.649 6.11155C15.0428 8.7204 15.2683 10.7028 15.2275 10.7446C15.9172 10.966 16.7579 11.0752 17.7578 11.0283C20.3707 10.9038 22.145 9.74578 22.1838 8.23985C22.2297 6.65841 19.9667 5.2137 17.7496 5.25247Z" fill="#FF5841"/>
<g style="mix-blend-mode:multiply" opacity="0.5">
<path d="M22.1847 8.23991C22.2224 6.92987 20.6757 5.71472 18.8851 5.35864L14.8693 7.62162C15.1254 9.45098 15.2611 10.7141 15.2284 10.7447C15.9181 10.9661 16.7588 11.0753 17.7587 11.0283C18.2212 11.008 18.6812 10.9496 19.1341 10.8539C19.3208 10.4746 19.4685 10.0774 19.5748 9.6683C19.5748 9.6683 20.7277 9.81726 21.3878 9.81522C21.8837 9.36833 22.1684 8.83167 22.1847 8.23991Z" fill="#CA2B1E"/>
</g>
<path d="M19.9452 6.74097C19.9452 6.74097 23.1713 8.08774 22.9928 9.1978C22.8795 9.90179 18.0761 9.18963 18.0761 9.18963L19.9452 6.74097Z" fill="url(#paint1_linear_522_1887)"/>
<path d="M19.9453 6.74097L18.5832 8.52543L18.6852 9.27228C18.977 9.30901 19.3494 9.35288 19.7545 9.39369C20.2126 9.21208 21.4288 8.64276 21.6359 7.61432C21.0937 7.28365 20.5287 6.9918 19.9453 6.74097Z" fill="#4F6E33"/>
<path d="M11.4667 8.16122C9.74958 8.17244 7.73964 9.32025 7.73454 10.6425C7.72944 12.0087 9.54247 13.1524 11.6708 13.1524C13.8287 13.1524 15.2958 12.0883 15.3438 10.7864C15.3948 9.42024 13.294 8.14898 11.4667 8.16122Z" fill="#88872A"/>
<g style="mix-blend-mode:multiply">
<path d="M11.4667 8.16122C9.74957 8.17244 7.73963 9.32025 7.73453 10.6425C7.73453 11.2608 8.10284 11.8322 8.70583 12.275V11.6006L13.6032 12.1638V12.8157C14.6612 12.4015 15.3111 11.6465 15.3438 10.7874C15.3948 9.42024 13.294 8.14898 11.4667 8.16122Z" fill="#DBCA52"/>
</g>
<path d="M11.4667 7.32159C9.74958 7.33384 7.73964 8.52654 7.73454 9.90085C7.72944 11.3211 9.54247 12.5097 11.6708 12.5097C13.8287 12.5097 15.2958 11.4037 15.3438 10.0508C15.3948 8.63367 13.294 7.31139 11.4667 7.32159Z" fill="#DBCA52"/>
<path d="M11.476 7.64608C9.97213 7.65628 8.21113 8.66636 8.21113 9.83866C8.20603 11.0467 9.7946 12.0567 11.6597 12.0567C13.5502 12.0567 14.8368 11.116 14.8786 9.96619C14.9174 8.7592 13.0768 7.63486 11.476 7.64608Z" fill="#DDD868"/>
<g style="mix-blend-mode:multiply" opacity="0.6">
<g style="mix-blend-mode:multiply" opacity="0.6">
<path d="M10.27 9.31306C10.2935 9.5314 11.076 10.0324 11.2576 9.90176C11.4392 9.77117 11.4872 9.37122 11.4617 9.25593C11.4362 9.14064 10.2557 9.18451 10.27 9.31306Z" fill="#DBCA52"/>
</g>
<g style="mix-blend-mode:multiply" opacity="0.6">
<path d="M9.93652 9.61905C10.0192 9.45376 11.069 10.1108 10.9507 10.219C10.8323 10.3271 10.4212 10.5251 10.2457 10.4414C10.0702 10.3577 9.83449 9.8231 9.93652 9.61905Z" fill="#DBCA52"/>
</g>
<g style="mix-blend-mode:multiply" opacity="0.6">
<path d="M11.1933 10.4628C11.0913 10.3689 10.4271 10.6495 10.4077 10.7495C10.3883 10.8495 10.7964 11.3882 10.9372 11.3749C11.078 11.3616 11.3382 10.6015 11.1933 10.4628Z" fill="#DBCA52"/>
</g>
<g style="mix-blend-mode:multiply" opacity="0.6">
<path d="M11.479 10.5128C11.5933 10.4251 12.1789 10.6802 12.1677 10.8189C12.1565 10.9577 11.6392 11.4688 11.4239 11.4954C11.2933 11.5045 11.3596 10.6047 11.479 10.5128Z" fill="#DBCA52"/>
</g>
<g style="mix-blend-mode:multiply" opacity="0.6">
<path d="M11.7954 9.9742C11.574 9.95175 11.8974 9.3355 12.0229 9.29061C12.1484 9.24572 13.0258 9.4661 13.037 9.58445C13.0483 9.7028 12.0708 9.9997 11.7954 9.9742Z" fill="#DBCA52"/>
</g>
<g style="mix-blend-mode:multiply" opacity="0.6">
<path d="M11.824 10.2802C11.8108 10.1302 13.0912 9.83535 13.1963 9.92921C13.3014 10.0231 12.7576 10.474 12.5362 10.5057C12.3148 10.5373 11.8322 10.3955 11.824 10.2802Z" fill="#DBCA52"/>
</g>
</g>
<g style="mix-blend-mode:multiply" opacity="0.6">
<path d="M11.4667 7.32159C9.74957 7.33384 7.73963 8.52654 7.73453 9.90085C7.73453 10.5436 8.10284 11.1374 8.70583 11.5966C9.61845 11.5614 10.5016 11.2638 11.2494 10.7395C11.2494 10.7395 11.9095 11.7914 13.6021 12.1598C14.6622 11.7292 15.3121 10.9436 15.3448 10.0508C15.3948 8.63367 13.294 7.31139 11.4667 7.32159Z" fill="#DBCA52"/>
</g>
<path d="M7.43673 5.26786C5.61758 5.28112 3.48315 4.98932 3.48315 8.00016C3.48315 9.50507 5.39822 10.7641 7.65303 10.7641C9.93845 10.7641 11.4934 9.59281 11.5444 8.15932C11.5974 6.65441 9.3722 5.25459 7.43673 5.26786ZM7.63161 9.74178C5.97264 9.74178 4.55955 8.88576 4.56363 7.86242C4.56363 6.87275 6.13486 6.01368 7.47244 6.00552C8.90083 5.99634 10.5333 6.94825 10.4945 7.97057C10.4568 8.94494 9.31303 9.74178 7.63161 9.74178Z" fill="#AE5681"/>
<path opacity="0.3" d="M6.25219 10.5977L6.32872 10.5865C6.34708 10.2121 6.37463 9.56624 6.3481 9.6091C6.31035 9.66419 4.83197 8.88062 4.83197 8.88062L4.82278 10.0101C4.93604 10.0805 5.05439 10.1478 5.17886 10.209L5.19009 9.31729L5.41863 9.45299V10.3172C5.68821 10.4337 5.96703 10.5275 6.25219 10.5977Z" fill="#FFFAED"/>
<g style="mix-blend-mode:multiply" opacity="0.5">
<path d="M7.43658 5.26786C6.64383 5.27398 5.7919 5.22195 5.08179 5.40968C5.34117 5.73437 5.51106 6.12129 5.57458 6.53198C6.15295 6.1999 6.80552 6.01851 7.4723 6.0045C8.90069 5.99532 10.5331 6.94724 10.4944 7.96956C10.4587 8.89699 9.41898 9.66322 7.86918 9.73463C7.88755 9.84687 7.88653 10.5417 7.82735 10.761C10.0169 10.7029 11.4942 9.55507 11.5442 8.15831C11.5973 6.65442 9.37205 5.25459 7.43658 5.26786Z" fill="#AE5681"/>
</g>
<path d="M7.43675 4.48422C5.61759 4.49647 3.48827 5.76059 3.48317 7.21653C3.47705 8.72144 5.39823 9.98046 7.65304 9.98046C9.93847 9.98046 11.4934 8.80918 11.5444 7.37569C11.5974 5.87078 9.37221 4.47096 7.43675 4.48422ZM7.63162 8.95406C5.97265 8.95406 4.55956 8.09805 4.56365 7.07471C4.56365 6.08504 6.13487 5.22597 7.47246 5.21678C8.90085 5.20862 10.5333 6.15952 10.4945 7.18286C10.4568 8.16131 9.31304 8.95406 7.63162 8.95406Z" fill="#E5CDE0"/>
<path d="M14.9572 6.5665C13.138 6.57874 11.0087 7.84287 11.0036 9.2988C10.9975 10.8037 12.9187 12.0627 15.1735 12.0627C17.4589 12.0627 19.0138 10.8904 19.0648 9.45797C19.1179 7.95306 16.8927 6.55324 14.9572 6.5665ZM15.1521 11.0394C13.4931 11.0394 12.08 10.1834 12.0841 9.16107C12.0841 8.17038 13.6553 7.31232 14.9929 7.30314C16.4213 7.29396 18.0537 8.24588 18.015 9.26922C17.9772 10.2426 16.8314 11.0394 15.1521 11.0394Z" fill="#AE5681"/>
<path opacity="0.3" d="M16.108 11.0079C16.0947 11.0273 15.8498 11.0293 15.5407 11.0242C15.4142 11.0344 15.2846 11.0395 15.152 11.0395C14.9353 11.0395 14.7188 11.0248 14.5041 10.9956L14.2051 10.9834L14.2908 11.9976C14.4856 12.0265 14.6818 12.0456 14.8785 12.0547L14.9204 11.1783L15.155 11.1181L15.1703 12.0629C15.4777 12.063 15.7846 12.0401 16.0886 11.9945C16.111 11.5854 16.1314 10.9732 16.108 11.0079Z" fill="#FFFAED"/>
<g style="mix-blend-mode:multiply" opacity="0.5">
<path d="M14.9572 6.5665C13.138 6.57874 11.0087 7.84287 11.0036 9.2988C11.0036 10.1558 11.6219 10.9312 12.5748 11.4414C12.5534 11.32 12.5667 10.5007 12.6575 10.2385C12.2973 9.9324 12.0831 9.55796 12.0841 9.15903C12.0841 8.16834 13.6553 7.31028 14.9929 7.3011C16.4213 7.29192 18.0537 8.24384 18.0149 9.26718C17.9986 9.68549 17.7772 10.0712 17.3977 10.3752C17.4708 10.7704 17.4978 11.1726 17.4783 11.574C18.4465 11.1006 19.0342 10.3262 19.0648 9.45593C19.1179 7.95306 16.8926 6.55324 14.9572 6.5665Z" fill="#AE5681"/>
</g>
<path d="M14.9572 5.71884C13.138 5.73109 11.0087 6.99521 11.0036 8.45115C10.9975 9.95606 12.9187 11.2151 15.1735 11.2151C17.4589 11.2151 19.0138 10.0428 19.0648 8.61031C19.1179 7.1054 16.8927 5.70558 14.9572 5.71884ZM15.1612 10.3183C13.3911 10.3183 11.8831 9.40511 11.8872 8.31239C11.8872 7.2564 13.5635 6.33917 14.9919 6.32999C16.5121 6.31979 18.2568 7.33598 18.218 8.42768C18.1752 9.46428 16.9539 10.3183 15.1582 10.3183H15.1612Z" fill="#E5CDE0"/>
<g style="mix-blend-mode:multiply" opacity="0.3">
<path d="M14.9572 5.71884C13.138 5.73109 11.0087 6.99521 11.0036 8.45115C11.0036 9.3194 11.6392 10.106 12.6126 10.6162C13.1575 10.4276 13.7224 10.303 14.296 10.2448C12.9248 10.0071 11.88 9.22452 11.8841 8.31239C11.8841 7.2564 13.5604 6.33917 14.9888 6.32999C16.509 6.31979 18.2537 7.33598 18.2149 8.42768C18.1813 9.31736 17.2824 10.0683 15.8999 10.2642C16.4337 10.3386 16.951 10.5024 17.4303 10.7488C18.4261 10.2774 19.0311 9.49285 19.0628 8.60623C19.1179 7.1054 16.8926 5.70558 14.9572 5.71884Z" fill="#AE5681"/>
</g>
<path d="M3.51375 6.36037C3.11278 3.74744 6.87557 0.000976562 12.4626 0.000976562C17.9946 0.000976562 21.7339 3.87293 21.3043 6.48688C20.882 9.06411 15.551 10.2772 11.9566 10.1507C8.89878 10.0436 3.89636 8.85189 3.51375 6.36037Z" fill="url(#paint2_linear_522_1887)"/>
<g style="mix-blend-mode:overlay" opacity="0.2">
<path d="M17.2273 3.05584C17.2276 2.27287 17.0349 1.5019 16.6661 0.811227C15.3312 0.269379 13.9032 -0.00616745 12.4626 0.000104717C8.59366 0.000104717 5.59914 1.79682 4.25748 3.77003C4.82883 6.40337 8.04475 8.13784 10.7617 8.13784C14.0562 8.13784 17.2273 6.31767 17.2273 3.05584Z" fill="#FED68F"/>
</g>
<g style="mix-blend-mode:multiply" opacity="0.2">
<path d="M19.9851 3.09253C19.883 3.36596 18.4802 9.26623 11.0495 9.26623C8.66408 9.26623 4.88905 7.8909 3.85856 4.46072C3.54738 5.1137 3.42291 5.76668 3.51371 6.36048C3.89631 8.85302 8.89874 10.0437 11.9565 10.1508C15.5509 10.2773 20.8819 9.06422 21.3043 6.487C21.4757 5.44631 20.9849 4.20769 19.9851 3.09253Z" fill="#A33322"/>
</g>
<path d="M7.80295 9.97438C5.07065 9.70809 3.90345 8.30623 3.61063 7.88281C4.07383 9.07348 5.74301 9.97642 7.65297 9.97642L7.80295 9.97438Z" fill="#FFE8E0"/>
<path opacity="0.7" d="M3.18412 7.37667C3.18412 7.37667 1.49556 7.33484 1.04153 8.05414C1.74007 7.99339 2.44189 7.97941 3.14229 8.01231C3.13031 7.79952 3.14435 7.58606 3.18412 7.37667Z" fill="#79AD41"/>
<g style="mix-blend-mode:overlay" opacity="0.4">
<path d="M10.4709 1.30208C9.76491 0.431786 5.07061 2.39888 5.0951 4.17825C5.10734 4.98835 6.09599 5.74029 6.95405 5.83926C9.15785 6.08515 11.1178 2.0877 10.4709 1.30208Z" fill="#FED68F"/>
</g>
<g style="mix-blend-mode:multiply" opacity="0.2">
<path d="M21.3043 6.48705C21.6257 4.5322 19.6147 1.87437 16.2672 0.658203C18.1914 1.79785 20.4401 4.03022 18.7924 6.86864C16.461 10.8865 8.74366 9.74888 6.18787 8.93266C7.96111 9.69787 10.2588 10.0917 11.9565 10.1509C15.551 10.2804 20.8819 9.06427 21.3043 6.48705Z" fill="#A33322"/>
</g>
<path d="M10.874 14.9993C10.874 14.9993 12.3585 16.2124 14.6643 16.0471C14.6643 16.0471 12.5728 15.7165 10.874 14.9993Z" fill="#FEEC98"/>
<path d="M7.96316 3.04444C8.35189 3.01179 8.18864 3.63927 8.04274 3.6811C7.92541 3.71579 7.64892 3.06995 7.96316 3.04444Z" fill="#FFE8A7"/>
<path d="M9.19464 1.96003C9.09261 1.55192 8.51207 2.16409 8.58247 2.26611C8.65287 2.36814 9.29973 2.37528 9.19464 1.96003Z" fill="#FFE8A7"/>
<path d="M14.6051 1.87426C14.5031 1.46615 13.9236 2.07832 13.9929 2.18545C14.0623 2.29258 14.7112 2.28952 14.6051 1.87426Z" fill="#FFE8A7"/>
<path opacity="0.5" d="M13.3512 0.534775C12.9778 0.410301 12.9431 1.16837 13.0819 1.23468C13.2206 1.301 13.7338 0.66435 13.3512 0.534775Z" fill="#FFE8A7"/>
<path d="M15.1112 4.2077C15.2213 3.87305 15.7356 4.27809 15.7101 4.40053C15.6723 4.58214 15.0305 4.4546 15.1112 4.2077Z" fill="#FFE8A7"/>
<path opacity="0.5" d="M9.80061 3.50676C9.96692 3.13538 9.2568 3.15987 9.23129 3.2823C9.20579 3.40473 9.64349 3.85978 9.80061 3.50676Z" fill="#FFE8A7"/>
<path d="M11.7463 1.32333C11.6004 1.33864 11.7076 2.06508 12.0636 1.97835C12.4718 1.88041 11.9249 1.30191 11.7463 1.32333Z" fill="#FFE8A7"/>
<path d="M13.1044 3.8874C13.0595 3.74354 12.3902 3.99861 12.5443 4.3404C12.7208 4.73117 13.1585 4.06289 13.1044 3.8874Z" fill="#FFE8A7"/>
<path opacity="0.5" d="M15.2479 2.56107C15.4326 2.45904 15.8917 3.11304 15.4815 3.19874C15.1469 3.26914 15.1765 2.60086 15.2479 2.56107Z" fill="#FFE8A7"/>
<path opacity="0.5" d="M12.0727 5.54316C11.8635 5.52989 11.8064 4.72693 12.1992 4.87487C12.5196 4.99527 12.1543 5.54826 12.0727 5.54316Z" fill="#FFE8A7"/>
<path d="M10.2139 5.14725C10.119 4.80852 10.7658 4.84116 10.8128 4.95646C10.8821 5.12786 10.2832 5.39824 10.2139 5.14725Z" fill="#FFE8A7"/>
<path opacity="0.5" d="M14.449 3.1692C14.8368 3.13655 14.6735 3.76402 14.5286 3.80585C14.4113 3.84054 14.1389 3.19471 14.449 3.1692Z" fill="#FFE8A7"/>
<path opacity="0.5" d="M11.1749 2.43849C11.5626 2.40584 11.3994 3.03229 11.2545 3.07514C11.1372 3.10983 10.8648 2.464 11.1749 2.43849Z" fill="#FFE8A7"/>
<path d="M11.3403 3.70881C11.4209 3.5272 12.1565 3.82104 11.8984 4.10978C11.6831 4.34547 11.3077 3.77921 11.3403 3.70881Z" fill="#FFE8A7"/>
<path d="M5.13586 3.85987C5.13586 3.85987 6.03269 1.64893 9.1527 1.15308C7.64604 1.77732 6.28009 2.69779 5.13586 3.85987Z" fill="#FEEC98"/>
<defs>
<linearGradient id="paint0_linear_522_1887" x1="5.80676" y1="7.69942" x2="3.38068" y2="10.1792" gradientUnits="userSpaceOnUse">
<stop stop-color="#5B7C38"/>
<stop offset="1" stop-color="#6C8E3E"/>
</linearGradient>
<linearGradient id="paint1_linear_522_1887" x1="19.6315" y1="8.09469" x2="22.6183" y2="7.91007" gradientUnits="userSpaceOnUse">
<stop stop-color="#5B7C38"/>
<stop offset="1" stop-color="#6C8E3E"/>
</linearGradient>
<linearGradient id="paint2_linear_522_1887" x1="6.4593" y1="-0.695873" x2="16.9243" y2="10.5772" gradientUnits="userSpaceOnUse">
<stop stop-color="#FFBD3E"/>
<stop offset="0.24" stop-color="#F6AE3A"/>
<stop offset="0.71" stop-color="#E69533"/>
<stop offset="1" stop-color="#E08C30"/>
</linearGradient>
</defs>
</svg>
