<svg width="189" height="204" viewBox="0 0 189 204" fill="none" xmlns="http://www.w3.org/2000/svg">
<g clip-path="url(#clip0_173_202)">
<path d="M166.471 174.855C196.508 145.219 196.508 97.17 166.471 67.5339C136.434 37.8979 87.7343 37.8979 57.6973 67.5339C27.6602 97.17 27.6602 145.219 57.6973 174.855C87.7343 204.492 136.434 204.492 166.471 174.855Z" fill="#DC9118"/>
<path fill-rule="evenodd" clip-rule="evenodd" d="M93.7928 41.3876C91.2372 39.6469 88.8826 37.7909 86.9107 35.4934C83.8102 31.8711 81.9941 27.8073 82.3249 22.9435C82.7984 15.9549 89.2329 9.67673 96.0825 9.96472C98.1516 10.0543 99.1635 9.51674 100.396 7.96799C103.367 4.23692 107.596 2.32339 112.182 1.22263C118.791 -0.364517 125.304 -0.185323 131.582 2.64978C136.097 4.68491 139.36 7.93599 141.098 12.5758C141.331 13.1902 141.494 13.4846 142.298 13.235C150.847 10.6175 160.213 16.2621 161.854 24.985C162.555 28.6905 162.062 32.2551 160.408 35.6406C159.954 36.5622 159.98 36.9654 160.894 37.7141C163.268 39.6405 164.52 42.2836 164.76 45.3299C165.169 50.4945 163.567 54.9295 159.402 58.1806C155.53 61.2077 151.191 61.0093 146.799 59.3646C146.041 59.0766 145.334 58.667 144.588 58.3342C144.341 58.2254 144.062 57.8542 143.79 58.2638C143.452 58.7694 143.011 59.2238 142.888 59.8382C142.875 59.8894 143.187 60.0558 143.362 60.0942C147.169 60.9261 149.122 65.1244 147.532 69.2394C146.559 71.7609 144.685 73.5081 142.395 74.8648C140.962 75.716 139.411 76.3368 137.809 76.8232C136.856 77.1112 135.922 77.316 134.949 76.9896C134.378 76.7976 134.125 76.9384 134.041 77.5719C133.853 79.0183 133.613 80.4582 133.347 81.8918C133.249 82.4294 133.412 82.615 133.937 82.7558C135.28 83.127 136.59 83.6197 137.939 83.9909C138.847 84.2405 139.256 84.7653 139.411 85.6805C139.814 88.0612 140.333 90.4291 140.735 92.8098C140.845 93.4626 141.137 93.6802 141.734 93.8466C148.661 95.7473 155.569 97.7056 162.509 99.568C163.988 99.9648 164.974 100.72 165.668 102.032C166.855 104.285 167.718 106.665 168.62 109.027C170.676 114.403 172.479 119.881 175.151 125.007C175.664 125.993 176.254 126.946 176.883 127.868C177.337 128.533 177.882 129.122 178.673 129.468C181.437 130.671 183.201 132.597 183.039 135.752C182.864 139.074 183.869 142.069 185.335 144.994C186.126 146.568 186.613 148.283 187.294 149.915C189.525 155.259 188.448 160.327 185.867 165.191C183.104 170.388 178.68 173.991 173.66 176.954C169.372 179.488 164.806 181.408 160.051 182.899C159.208 183.162 158.702 183.565 158.611 184.429C158.605 184.506 158.585 184.583 158.566 184.653C157.288 189.21 157.255 189.229 152.598 190.31C149.725 190.976 146.858 191.693 143.971 192.326C140.754 193.037 143.816 202.163 142.538 203.731C142.337 203.98 140.812 196.742 140.391 196.896C132.25 199.744 124.013 202.854 114.88 202.854C101.434 202.854 88.7788 199.488 77.739 193.568C77.4601 193.414 77.3109 195.731 77.032 195.577C76.8114 195.456 76.4547 192.864 76.2342 192.736C72.8353 190.816 69.5986 188.653 66.55 186.266C66.0376 185.863 64.0398 191.168 63.5338 190.752C64.3382 183.226 66.1024 176.378 67.2116 168.942C67.4192 167.546 67.3478 166.158 67.0754 164.814C66.297 161.012 66.9651 157.326 67.6981 153.62C67.9186 152.494 68.1197 151.361 68.3792 149.947C66.5046 151.944 64.896 153.806 63.1382 155.521C58.2799 160.257 52.6821 163.956 46.5006 166.81C43.5947 168.154 40.9418 167.79 38.4381 165.818C33.5798 162.004 29.7398 157.39 26.9896 151.893C25.6275 149.166 25.9064 146.376 26.555 143.56C27.3204 140.213 28.5788 137.045 30.0641 133.96C30.3106 133.442 30.2912 133.116 29.9669 132.629C28.7798 130.869 27.7291 129.039 27.3074 126.921C27.0804 125.769 27.262 124.725 27.7745 123.689C28.8901 121.436 30.3755 119.42 31.8414 117.385C32.0879 117.046 32.3344 116.707 32.6263 116.297C29.649 115.791 26.7496 115.356 23.8761 114.799C17.7919 113.622 11.8245 112.08 6.34348 109.11C4.45594 108.086 2.68516 106.902 1.32951 105.219C-0.577483 102.864 -0.454241 100.445 1.71221 98.32C3.84622 96.2273 6.57699 95.1969 9.35316 94.2818C11.8245 93.4626 14.3671 92.893 16.9422 92.4834C17.5779 92.381 17.8698 92.1186 18.1162 91.5875C19.5108 88.6308 21.1194 85.7893 22.6697 82.9094C24.0188 80.4007 26.0685 78.7623 28.6112 77.6167C33.5149 75.4088 38.7299 74.3977 44.0293 73.7321C45.6509 73.5273 47.279 73.4121 48.9136 73.3097C49.4519 73.2777 49.6011 73.1369 49.64 72.5801C49.867 69.1434 52.3578 66.9291 55.601 67.2235C58.6431 67.4987 60.7577 70.2186 60.3555 73.4505C60.2582 74.2441 60.5631 74.3977 61.2312 74.5385C66.1543 75.5944 70.8764 77.1944 75.2547 79.6967C77.2525 80.8358 79.0752 82.199 80.8006 83.7093C83.0319 85.6677 84.3811 88.1124 85.1205 90.9283C85.3281 91.7091 85.6329 92.4578 85.8145 93.245C85.9313 93.7698 86.1972 93.8402 86.6448 93.7442C88.4286 93.3602 90.2188 92.9826 92.0025 92.5986C92.3787 92.5154 92.7031 92.3682 92.515 91.901C92.1971 91.1267 92.7096 90.8067 93.2544 90.4419C94.3441 89.7059 95.4014 88.9188 96.4911 88.17C96.8997 87.8884 96.9711 87.6644 96.7376 87.1524C93.6241 80.2663 91.8598 73.0025 90.809 65.5724C90.4134 62.7885 91.2696 60.0814 91.7755 57.3679C91.8988 56.7023 91.8923 56.0943 91.7107 55.4479C91.1399 53.3744 90.6728 51.2817 90.2058 49.1825C89.5766 46.3602 90.5431 44.2291 92.6252 42.418C93.0144 42.1364 93.3712 41.7844 93.7928 41.3876Z" fill="#000005"/>
<path fill-rule="evenodd" clip-rule="evenodd" d="M105.073 116.867C106.733 119.811 108.498 122.55 110.865 124.854C112.441 126.396 114.238 127.542 116.385 128.169C119.894 129.193 122.171 130.697 125.602 131.932C126.076 132.105 126.225 132.367 126.283 132.841C126.666 135.887 126.679 135.88 123.676 136.821C121.088 137.634 119.57 138.517 116.962 139.272C115.516 139.695 114.835 140.655 114.66 141.999C114.433 143.72 114.666 145.397 115.873 146.766C116.197 147.138 116.119 147.394 116.009 147.778C115.393 149.87 115.717 151.745 117.501 153.179C117.89 153.493 117.877 153.749 117.793 154.152C117.52 155.457 117.831 156.597 118.947 157.428C119.369 157.748 119.596 158.056 119.349 158.587C119.284 158.721 119.31 158.888 119.297 159.041C118.921 163.259 119.635 164.334 123.734 165.473C124.889 165.793 126.082 166.011 127.269 166.209C128.456 166.407 129.533 166.235 130.149 165.019C130.233 164.859 130.324 164.641 130.558 164.654C132.011 164.75 133.399 164.276 134.839 164.212C135.701 164.174 135.617 164.782 135.663 165.3C134.774 171.809 136.434 177.453 136.253 181.364C136.006 186.855 131.926 189.735 130.817 195.136C130.765 195.405 135.909 187.719 137.258 188.352C138.757 189.056 140.508 195.667 140.436 195.962C140.138 197.184 138.88 198.47 137.187 199.693C130.13 201.773 122.651 202.886 114.913 202.886C101.395 202.886 88.6882 199.488 77.616 193.51C77.8754 188.199 78.1349 182.893 78.4268 177.588C78.6408 173.633 79.3867 169.735 79.9057 165.819C81.0019 157.556 82.1629 149.301 83.2915 141.045C83.8429 137.013 84.4137 132.981 84.9196 128.943C85.0234 128.13 85.471 128.182 86.0353 128.188C89.6612 128.201 93.1703 127.682 96.3421 125.788C99.6437 123.817 102.141 121.052 104.32 117.967C104.534 117.628 104.774 117.289 105.073 116.867Z" fill="white"/>
<path fill-rule="evenodd" clip-rule="evenodd" d="M160.849 101.955C156.562 106.077 154.856 108.368 154.123 111.19C154.791 110.32 155.264 109.705 155.738 109.085C157.398 106.896 159.117 104.765 161.349 103.094C162.62 102.147 162.698 102.147 163.418 103.6C164.858 106.499 165.896 109.552 167.037 112.566C169.061 117.91 170.916 123.324 173.854 128.297C172.375 127.733 171.48 126.671 168.159 121.667C168.711 124.028 169.826 126.095 171.48 127.913C173.134 129.73 175.301 130.805 177.448 131.861C179.329 132.789 180.47 133.941 180.38 136.2C180.302 138.024 180.386 139.906 180.86 141.698C181.865 145.493 181.871 149.518 183.577 153.147C183.688 153.377 183.662 153.672 183.707 154.017C184.116 152.705 183.869 151.483 183.616 150.261C183.37 149.064 183.104 147.874 183.065 146.606C183.467 147.63 184.025 148.616 184.245 149.672C184.758 152.117 184.972 154.613 184.952 157.115C184.92 160.897 183.208 163.995 180.671 166.683C176.254 171.367 171 174.727 164.663 176.314C163.029 176.724 162.776 176.852 161.096 176.506C160.239 176.327 159.883 176.02 159.935 175.073C160.252 169.198 158.91 163.329 158.371 157.46C158.079 154.248 157.139 151.227 155.842 148.29C155.692 147.944 155.55 147.592 155.375 147.176C158.423 147.048 161.31 146.414 164.216 145.909C169.431 145 173.861 146.709 177.889 149.813C178.038 149.928 178.181 150.05 178.557 150.363C178.09 149.205 177.48 148.501 176.76 147.867C175.638 146.882 174.328 146.216 172.972 145.634C172.46 145.416 172.129 145.154 172.096 144.559C172.019 143.176 173.342 141.576 174.704 141.352C175.774 141.173 176.851 141.205 178.22 141.199C177.325 140.482 176.514 140.546 175.768 140.514C173.082 140.392 170.695 141.371 168.276 142.389C164.728 143.874 161.037 144.021 157.359 142.773C155.705 142.21 154.616 140.943 153.656 139.56C148.525 132.169 147.948 124.348 151.373 116.143C151.45 115.964 151.522 115.792 151.606 115.619C151.703 115.42 151.904 115.196 151.632 115.024C151.321 114.825 151.249 115.171 151.139 115.324C148.181 119.427 146.002 123.887 144.834 128.809C144.698 129.397 144.588 129.986 144.413 130.562C144.367 127.401 144.147 124.22 145.561 121.148C144.62 121.641 144.238 122.434 144.069 123.913C143.946 124.962 143.913 126.038 143.479 127.151C143.303 125.609 143.148 124.194 142.986 122.774C142.24 126.364 142.058 129.954 142.253 133.544C142.395 136.136 142.162 137.436 140.644 139.56C140.145 139.119 139.866 138.543 139.574 137.98C138.374 135.701 137.511 134.21 136.434 131.874C135.41 129.653 134.495 127.516 135.027 125.135C135.247 124.156 135.701 122.914 134.722 122.223C133.697 121.494 132.549 122.223 131.557 122.722C129.481 123.766 128.164 125.449 127.574 127.919C126.835 125.302 126.179 122.902 125.213 120.598C124.35 118.537 123.338 116.559 121.989 114.755C120.9 113.302 121.568 109.667 123.131 108.445C124.629 107.273 126.309 106.365 127.95 105.411C131.265 103.485 134.657 101.674 137.738 99.3761C138.731 98.6337 139.717 97.8721 140.359 96.7842C140.54 96.4834 140.722 96.3618 141.105 96.4642C147.669 98.2945 154.24 100.118 160.849 101.955Z" fill="white"/>
<path fill-rule="evenodd" clip-rule="evenodd" d="M129.727 77.1817C125.764 80.5352 121.898 83.9974 117.689 87.0373C116.404 87.9653 115.042 88.7909 113.713 89.6612C109.685 92.3236 102.906 91.1076 99.6501 87.8757C98.6058 86.8389 98.1258 85.4694 97.6264 84.151C95.421 78.3144 93.8578 72.2987 92.9173 66.1357C92.567 63.819 93.0405 61.547 93.5205 59.2815C94.4156 55.0705 94.7205 50.7762 95.207 46.514C95.3432 45.298 95.6675 44.1012 95.8362 42.8853C95.9335 42.2005 96.3226 41.8485 96.9453 41.7333C106.779 40.0054 116.463 40.0246 125.771 44.2036C128.151 45.2724 130.37 46.6036 132.504 48.0883C133.113 48.5171 133.198 48.9011 133.055 49.5923C131.959 54.9425 131.738 60.3311 132.614 65.7325C132.88 67.3644 133.198 67.4028 134.469 66.3405C135.909 65.1437 136.947 63.5822 138.315 62.3214C138.711 61.9566 139.139 61.6174 139.554 61.2718C139.924 60.9583 140.209 60.8239 140.469 61.4318C140.651 61.8542 141.105 61.9758 141.559 61.9438C144.562 61.7262 146.813 64.5869 145.755 68.0492C145.191 69.9051 143.959 71.2555 142.447 72.3883C140.689 73.7066 138.666 74.5002 136.558 75.0698C135.637 75.3194 134.813 74.9098 134.034 74.4362C133.01 73.809 132.244 74.161 132.192 75.3321C132.05 78.8392 131.077 82.2247 130.655 85.6934C130.486 87.0949 130.104 88.4773 130.402 89.9108C130.486 90.3012 130.13 90.5252 129.922 90.7812C128.119 92.9763 125.939 94.7683 123.559 96.3938C125.745 92.3939 127.075 88.0933 128.32 83.7542C127.697 84.3558 127.529 85.1814 127.237 85.9302C125.842 89.4629 124.564 93.0467 122.443 96.2594C121.535 97.6354 120.458 98.7937 118.993 99.6065C117.702 100.317 116.437 101.072 115.224 101.904C113.31 103.216 111.15 103.485 108.828 103.626C108.971 102.602 109.445 101.68 109.179 100.605C108.465 101.021 108.452 101.814 108.069 102.371C107.81 102.749 108.018 103.53 107.317 103.498C106.591 103.466 105.689 103.376 105.339 102.698C104.074 100.272 102.342 98.0001 102.42 95.0243C102.822 94.9539 103.017 95.293 103.27 95.4658C104.975 96.6562 106.824 97.5138 108.887 97.885C110.333 98.1473 111.637 97.917 112.824 96.957C119.706 91.4084 125.187 84.695 129.727 77.1817Z" fill="#EDCBAA"/>
<path fill-rule="evenodd" clip-rule="evenodd" d="M97.5745 55.3969C98.3659 56.9136 98.1453 56.9968 99.3259 57.3424C100.513 57.688 105.203 57.2976 105.203 57.2976C105.203 57.2976 106.039 56.824 105.948 56.5168C105.858 56.216 104.677 54.1809 104.677 54.1809L99.0664 54.0529C99.0664 54.0593 98.6707 54.4881 97.5745 55.3969Z" fill="white"/>
<path fill-rule="evenodd" clip-rule="evenodd" d="M116.164 56.568C116.82 57.8224 118.577 58.6031 118.577 58.6031L124.084 58.6415L126.296 57.3936C126.296 57.3936 124.409 55.6208 123.403 55.2305C122.391 54.8401 118.273 54.6673 117.747 54.7569C117.215 54.8337 116.164 56.568 116.164 56.568Z" fill="white"/>
<path fill-rule="evenodd" clip-rule="evenodd" d="M158.261 48.7731C155.751 49.9698 153.837 49.1314 152.209 47.3523C149.783 44.6964 148.518 41.4325 147.357 38.1238C146.657 36.1271 146.144 34.0856 145.665 31.8905C145.061 32.7096 144.666 33.548 143.959 34.156C142.882 35.0775 141.863 35.0135 140.923 33.9512C139.736 32.6136 139.859 31.0713 140.145 29.4777C140.495 27.577 140.333 27.4106 138.439 27.801C135.371 28.4282 132.439 27.7946 129.449 27.1354C122.904 25.6955 119.914 21.3116 118.817 15.219C118.681 14.4767 118.558 13.7343 118.389 12.7359C116.541 15.827 115.114 18.8157 113.907 21.9196C113.421 23.174 112.655 24.1787 111.598 25.0299C110.216 26.1435 108.556 25.6123 106.805 26.0603C108.802 23.7819 109.529 21.2284 110.223 18.5725C109.581 18.6557 109.548 19.1165 109.419 19.4301C107.855 23.2764 104.82 25.5547 100.934 26.5146C98.6837 27.0714 96.407 26.2011 94.5065 24.7675C93.2222 23.8011 92.3011 22.502 91.3865 21.2092C91.1465 20.87 90.913 20.5309 90.6146 20.0957C90.5563 22.0604 92.4957 25.4395 94.8827 27.6858C92.5865 27.8394 90.3487 26.425 88.5974 23.5899C86.0093 29.4009 88.8893 33.6056 92.58 37.8166C86.4893 33.5416 82.9477 26.9882 84.9066 20.6205C86.4179 15.699 91.3606 11.8272 96.1735 11.9168C96.3681 11.9232 96.5626 11.9232 96.7572 11.9424C98.3918 12.1023 98.3918 12.1087 98.2491 13.6895C97.9702 16.7102 98.1842 17.9581 99.235 19.4045C99.475 19.3981 99.4426 19.2061 99.4231 19.0781C98.541 13.3183 100.772 8.94086 105.773 6.09296C113.868 1.48512 122.365 0.883544 130.953 4.60821C135.578 6.61134 138.607 10.1824 139.723 15.1486C140.093 16.7806 139.944 18.4381 139.814 20.0829C139.794 20.3453 139.652 20.6908 139.976 20.7932C140.456 20.9404 140.417 20.4349 140.488 20.2045C140.813 19.1421 141.131 18.0605 141.092 16.9342C141.066 16.0766 141.474 15.6542 142.279 15.3726C147.241 13.6383 151.671 14.7071 155.511 18.0477C161.07 22.8796 161.329 29.9321 157.924 36.1143C157.651 36.6071 157.321 36.6007 156.879 36.5943C155.439 36.5751 154.064 36.8439 152.501 37.5671C153.649 37.919 154.577 37.8806 155.452 37.8422C157.852 37.7526 159.539 38.9238 160.888 40.6709C165.273 46.3475 161.906 56.2352 154.953 58.1743C154.564 58.2831 154.155 58.3215 153.695 58.3087C157.71 56.3248 158.942 53.0737 158.261 48.7731Z" fill="white"/>
<path fill-rule="evenodd" clip-rule="evenodd" d="M61.8995 99.8177C43.5884 99.5553 38.0101 98.7745 21.5737 92.8995C20.8472 92.6435 20.8407 92.3811 21.1261 91.7668C22.4818 88.8357 23.2861 86.9349 24.8947 84.1318C26.1271 81.9879 28.0471 80.676 30.2265 79.6712C34.7605 77.5849 39.6058 76.6889 44.5225 76.1129C53.8499 75.0186 62.7297 76.6825 71.2204 80.5096C72.5242 81.0983 73.7176 81.9239 75.0019 82.5447C81.8126 85.8278 81.8386 92.5987 81.3326 97.7314C81.2613 98.4737 80.7943 98.6273 80.1456 98.6913C78.1738 98.8833 76.2084 99.1841 74.2301 99.3377C70.0853 99.6641 65.921 99.7729 61.8995 99.8177Z" fill="#AFB0B0"/>
<path fill-rule="evenodd" clip-rule="evenodd" d="M33.4762 119.836C35.3118 122.863 38.0815 124.438 41.1885 125.974C40.955 125.302 40.5658 125.065 40.2415 124.783C38.8209 123.586 37.3875 122.402 35.9734 121.199C35.714 120.975 35.4934 120.694 35.2794 120.425C33.8913 118.678 34.5529 117.039 36.7777 116.681C37.0437 116.636 37.3161 116.591 37.848 116.495C36.5831 118.147 37.8026 119.017 38.769 119.932C41.9214 122.914 45.3397 125.57 49.0175 127.906C51.0088 129.173 52.9677 129.391 55.199 128.501C58.306 127.266 61.3222 125.884 64.2216 124.233C64.5524 124.047 64.8767 123.849 65.3372 123.58C65.2529 127.049 65.2205 130.37 64.5913 133.653C64.4681 134.293 64.0335 134.645 63.4951 134.69C60.8746 134.908 58.5784 136.04 56.2239 137.039C55.1601 137.493 54.1028 137.967 53.0585 138.485C55.1471 138.268 57.145 137.679 59.1298 137.045C59.986 136.77 61.0757 135.957 61.6854 136.495C62.1719 136.917 61.4908 138.127 61.2638 138.965C60.8227 140.629 60.3168 142.28 59.8044 143.925C59.1817 145.915 57.9947 147.554 56.5028 149.006C54.2261 151.221 52.0207 153.499 49.3872 155.31C48.9397 155.617 48.5181 155.988 48.9462 156.526C49.3743 157.07 49.8543 156.692 50.2694 156.404C53.0196 154.485 55.3677 152.123 57.7028 149.762C58.0011 149.461 58.2866 149.147 58.6433 148.878C57.826 151.131 56.1136 152.859 54.9007 154.901C56.0682 154.446 56.8531 153.569 57.586 152.661C59.279 150.555 60.3622 148.155 61.0043 145.544C61.6984 142.715 62.4638 139.899 63.1384 137.064C63.307 136.367 63.8519 136.149 64.3383 135.925C65.4151 135.432 65.8691 134.613 66.0443 133.512C66.5113 130.62 66.628 127.708 66.6994 124.79C66.7124 124.329 66.7253 123.868 66.7707 123.414C66.9199 121.974 66.7578 120.713 65.0908 120.182C64.6108 120.028 64.5394 119.484 64.2605 119.241C66.2713 117.654 68.6258 117.807 70.9739 117.891C70.5847 121.839 70.2863 125.794 69.7934 129.743C68.6647 138.837 64.4162 146.37 58.4228 153.121C55.6531 156.244 52.6304 159.048 48.7062 160.692C45.5668 162.011 42.2976 162.555 38.9117 161.671C37.6858 161.352 36.6415 160.763 35.7723 159.796C33.4437 157.198 31.3616 154.44 29.7076 151.361C28.3844 148.904 28.6438 146.389 29.273 143.848C29.766 141.877 30.4276 139.951 31.2319 138.082C31.3616 137.781 31.3357 137.282 31.9908 137.564C34.1443 138.492 36.4404 138.671 38.7431 138.594C41.5906 138.498 44.4122 138.984 47.2532 138.869C47.6035 138.856 48.1678 139.048 48.2262 138.524C48.291 137.935 47.6619 138.095 47.344 138.056C43.8803 137.672 40.5204 136.975 37.381 135.394C34.0405 133.711 31.7248 131.164 30.3432 127.733C29.8438 126.498 29.8179 125.398 30.5378 124.233C31.4589 122.767 32.38 121.315 33.4762 119.836Z" fill="white"/>
<path fill-rule="evenodd" clip-rule="evenodd" d="M58.8638 126.959C60.693 126.134 62.4832 125.238 64.2281 124.239C64.5589 124.054 64.8832 123.855 65.3437 123.586C65.2594 127.055 65.227 130.377 64.5978 133.66C64.4746 134.3 64.04 134.652 63.5016 134.696C60.8811 134.914 58.5849 136.047 56.2304 137.045C55.8542 137.205 55.478 137.365 55.1082 137.532C56.9439 136.252 58.8574 134.287 58.8574 134.287V126.959H58.8638ZM53.4931 138.434C53.2142 138.543 52.9483 138.6 52.7213 138.6C50.7883 138.6 58.1568 138.946 58.1568 138.946L52.384 152.936C53.8045 151.675 55.1407 150.325 56.5028 149C57.9947 147.547 59.1817 145.909 59.8044 143.919C60.3168 142.274 60.8227 140.623 61.2638 138.959C61.4843 138.12 62.1654 136.911 61.6854 136.488C61.0757 135.957 59.986 136.764 59.1298 137.039C57.2877 137.64 55.4261 138.184 53.4931 138.434ZM49.277 156.776L44.4706 161.928C45.9106 161.704 47.3246 161.275 48.7127 160.692C52.6369 159.048 55.6596 156.245 58.4293 153.121C64.4227 146.37 68.6712 138.837 69.7999 129.743C70.2928 125.801 70.5912 121.846 70.9804 117.891C68.6323 117.807 66.2778 117.66 64.267 119.241C64.5524 119.484 64.6173 120.028 65.0973 120.182C66.7643 120.713 66.9329 121.967 66.7772 123.414C66.7318 123.868 66.7124 124.329 66.7059 124.79C66.6345 127.708 66.5178 130.62 66.0508 133.513C65.8756 134.613 65.4216 135.432 64.3448 135.925C63.8584 136.149 63.3135 136.367 63.1449 137.064C62.4703 139.899 61.7049 142.715 61.0108 145.544C60.3687 148.155 59.2855 150.549 57.5925 152.661C56.8596 153.569 56.0747 154.446 54.9072 154.901C56.1266 152.859 57.8325 151.131 58.6498 148.878C58.293 149.147 58.0076 149.461 57.7093 149.762C55.3677 152.129 53.0261 154.491 50.2759 156.405C49.9645 156.622 49.6143 156.891 49.277 156.776Z" fill="#C4C4C4"/>
<path fill-rule="evenodd" clip-rule="evenodd" d="M75.8581 135.343C74.3403 138.063 73.283 140.815 71.6614 143.291C73.776 134.818 72.4009 126.383 71.5447 117.852C76.2084 117.571 81.0083 117.289 85.9639 116.412C84.738 118.236 83.6937 119.951 82.9153 121.801C82.4872 122.825 82.0526 123.855 81.5726 124.86C81.2807 125.474 81.0083 126.14 80.217 126.338C79.8083 126.441 79.6786 126.761 79.7499 127.145C79.8278 127.574 80.191 127.65 80.5413 127.695C81.2742 127.791 82.0072 127.932 82.7402 127.932C83.4991 127.932 83.6288 128.207 83.5315 128.898C82.9931 132.661 82.4872 136.431 81.9748 140.194C80.8461 148.488 79.6916 156.782 78.5954 165.083C78.0051 169.537 77.1749 173.959 76.9608 178.458C76.7338 183.232 76.5003 188 76.2668 192.768C72.349 191.546 68.5026 191.2 65.454 188.819C66.7058 183.668 68.8918 175.924 69.7609 170.497C70.6366 172.698 71.0193 174.734 71.2398 176.813C71.4668 178.945 71.0063 180.98 70.442 183.021C71.629 181.216 72.2647 179.252 72.323 177.108C72.4074 174.138 71.6031 171.335 70.7144 168.545C69.4042 164.443 69.0993 160.296 70.0269 156.065C70.7923 152.577 71.4604 149.077 72.1479 145.57C72.2322 145.135 72.4333 144.789 72.6474 144.424C74.0938 141.954 75.2808 139.381 75.8906 136.578C75.9619 136.245 76.1305 135.925 75.8581 135.343Z" fill="white"/>
<path fill-rule="evenodd" clip-rule="evenodd" d="M96.3421 40.4598C97.1918 36.6839 98.0026 33.0937 98.8069 29.5034C98.9107 29.0362 99.1507 28.8506 99.6372 28.7226C117.857 23.8716 136.214 29.977 146.975 46.2836C147.215 46.6484 147.364 46.9364 147.137 47.4164C145.93 49.9827 144.769 52.581 143.55 55.2689C142.545 53.8609 141.643 52.5042 140.638 51.2242C139.632 49.9443 138.328 48.9843 136.856 48.1971C138.769 50.3091 140.689 52.4082 141.915 55.0129C140.229 53.1954 138.575 51.3586 136.726 49.6947C129.072 42.8213 120.011 39.5574 109.736 39.3398C105.287 39.2438 100.883 39.6214 96.3421 40.4598Z" fill="white"/>
<path fill-rule="evenodd" clip-rule="evenodd" d="M80.4894 100.112C79.6656 101.955 78.3748 103.363 76.8505 104.573C73.2571 107.421 69.0409 109.117 64.8378 110.825C64.5978 110.921 64.3059 110.915 64.0335 110.915C51.9818 110.876 40.0144 109.961 28.2092 107.44C25.2904 106.819 22.3974 106.045 19.7121 104.688C19.3294 104.496 18.9596 104.291 18.5964 104.067C16.6894 102.864 16.5791 102.589 17.3186 100.541C17.9348 98.8449 18.5964 97.1682 19.2256 95.4786C19.3942 95.037 19.5629 94.7874 20.1467 95.0114C30.4665 98.9409 41.2728 100.342 52.2283 100.867C61.374 101.302 70.5133 101.328 79.6137 100.125C79.8797 100.08 80.1456 100.112 80.4894 100.112Z" fill="#AFB0B0"/>
<path fill-rule="evenodd" clip-rule="evenodd" d="M86.9953 100.643C90.8806 102.026 94.5908 103.03 97.6848 105.545C98.0416 105.84 98.3789 106.166 98.6708 106.525C99.9421 108.08 99.8188 109.417 98.2621 110.729C97.0038 111.792 95.5184 112.451 93.9746 113.008C89.1098 114.748 84.031 115.452 78.9133 115.964C73.2507 116.528 67.5686 116.694 61.8865 116.566C46.5592 116.214 31.3811 114.736 16.5922 110.448C13.1933 109.462 9.88526 108.246 6.78477 106.525C5.6302 105.885 4.54049 105.149 3.61293 104.195C1.89405 102.422 2.0108 100.867 4.00212 99.3569C5.27993 98.3841 6.74585 97.7762 8.25069 97.2386C11.3317 96.1378 13.7901 95.5234 17.1305 95.0051C16.3716 97.1106 15.71 99.1393 14.9122 101.11C14.4322 102.301 14.7695 103.19 15.5933 104.022C16.9295 105.379 18.6224 106.141 20.3737 106.8C25.0504 108.56 30.6676 109.725 35.5908 110.467C45.9236 112.016 56.3277 112.694 66.7708 112.553C72.2972 112.476 77.8171 112.246 83.2267 110.96C84.6278 110.627 86.0029 110.198 87.1899 109.341C88.1888 108.617 88.6363 107.766 88.2731 106.461C87.7607 104.624 87.4428 102.736 86.9953 100.643Z" fill="#AFB0B0"/>
<path fill-rule="evenodd" clip-rule="evenodd" d="M133.211 137.717C132.29 136.751 131.083 136.412 129.844 136.194C129.325 136.104 129.027 135.964 128.949 135.394C128.638 133.02 128.521 130.639 128.956 128.277C129.429 125.673 131.135 124.137 133.723 123.343C133.97 124.361 133.639 125.282 133.483 126.185C133.191 127.868 133.36 129.455 133.976 131.036C135.332 134.511 136.817 137.928 138.821 141.096C141.072 144.661 142.402 148.526 143.141 152.629C143.29 153.461 143.368 154.318 143.647 155.105C144.082 156.309 143.628 157.14 142.83 157.979C141.831 159.028 140.916 160.155 139.58 160.993C139.691 160.392 140.281 160.04 140.06 159.444C132.374 163.604 131.278 163.636 125.907 162.459C125.849 162.887 126.381 162.887 126.484 163.284C125.148 162.887 122.975 162.951 122.106 161.928C121.587 161.313 121.749 159.585 122.093 158.753C122.515 157.736 125.881 157.358 127.062 157.224C128.378 157.076 128.683 156.744 128.456 155.509C126.004 156.245 123.494 157.057 120.971 156.859C120.218 156.801 119.22 152.91 120.296 152.75C121.989 152.494 124.571 151.675 126.179 151.099C127.522 150.619 128.151 149.032 124.876 150.043C123.241 150.549 120.238 151.733 118.474 151.585C117.838 151.534 117.527 149.339 117.604 148.386C117.663 147.669 118.13 147.49 118.629 147.33C120.517 146.734 122.404 146.139 124.292 145.544C125.589 145.141 127.6 142.261 123.974 143.88C122.242 144.648 120.471 145.333 117.974 145.768C116.657 145.589 116.281 143.439 116.236 142.242C116.203 141.346 116.541 140.847 117.462 140.571C120.251 139.739 122.995 138.78 125.79 137.96C127.983 137.32 130.233 137.237 132.484 137.781C132.698 137.832 132.906 138.005 133.211 137.717Z" fill="#D98B58"/>
<path fill-rule="evenodd" clip-rule="evenodd" d="M143.122 145.806C145.924 151.765 147.974 157.864 147.773 164.513C148.129 163.822 148.201 159.732 147.961 158.523C147.156 154.472 146.819 150.306 144.828 146.555C144.685 146.286 144.646 145.973 144.562 145.672C144.439 145.218 144.568 145.058 145.081 145.128C147.695 145.48 150.335 145.71 152.832 146.658C153.409 146.875 153.785 147.208 154.064 147.758C156.205 151.989 157.139 156.488 157.295 161.185C157.522 168.065 157.489 174.932 156.484 181.754C156.25 183.348 155.699 184.871 155.122 186.381C154.959 186.81 154.745 187.104 154.272 187.213C151.295 187.891 148.317 188.583 145.12 189.319C148.207 174.586 146.793 160.148 143.122 145.806Z" fill="white"/>
<path fill-rule="evenodd" clip-rule="evenodd" d="M136.318 86.3462C135.559 88.0101 134.495 89.4245 133.496 90.8836C132.497 92.3492 131.31 93.6675 130.091 94.9603C132.932 92.9827 134.949 90.2756 136.921 87.1589C137.252 88.9445 137.505 90.4036 137.803 91.8564C137.92 92.4068 137.693 92.6819 137.265 92.9763C134.586 94.8195 131.764 96.4578 129.196 98.4609C128.171 99.2609 127.139 100.061 126.166 100.944C130.305 98.9473 134.223 96.5794 138.108 94.1155C138.679 95.8178 138.679 95.8178 137.167 96.6306C129.89 100.515 122.605 104.374 115.341 108.285C113.693 109.174 112.078 109.885 110.223 108.963C113.2 107.043 116.651 105.923 119.719 104.074C117.3 104.669 114.971 105.501 112.733 106.576C111.65 107.094 110.567 107.6 109.496 108.15C109.036 108.387 108.66 108.368 108.42 107.913C108.16 107.408 108.738 107.389 108.958 107.254C113.447 104.438 118.156 101.962 122.528 98.9537C125.661 96.7906 128.683 94.4995 131.103 91.5428C132.335 90.0388 133.379 88.4197 133.814 86.5062C134.002 85.6614 134.372 85.591 135.059 85.911C135.436 86.0966 135.857 86.1926 136.318 86.3462Z" fill="#C10016"/>
<path fill-rule="evenodd" clip-rule="evenodd" d="M126.355 129.084C121.243 122.575 116.872 115.766 109.101 112.406C110.852 112.118 112.493 112.675 116.32 114.87C115.464 113.494 112.759 112.009 110.385 111.612C110.152 111.574 109.925 111.542 109.691 111.51C109.334 111.459 109.153 111.312 109.211 110.902C109.269 110.46 109.542 110.428 109.873 110.473C114.569 111.088 118.876 112.476 121.607 116.655C124.019 120.335 125.258 124.482 126.355 129.084Z" fill="#C10016"/>
<path fill-rule="evenodd" clip-rule="evenodd" d="M94.2794 93.3411C95.7778 95.3187 96.7118 97.6034 98.2361 99.5489C97.5161 97.9746 96.7961 96.3938 96.0632 94.8195C95.8881 94.4355 95.6416 94.0899 95.447 93.7123C94.6427 92.1188 94.6491 92.1188 96.0762 91.0756C96.7313 90.602 97.3864 90.1284 98.1648 89.5652C100 95.8498 102.913 101.565 106.175 107.133C105.488 107.504 105.151 107.273 104.716 106.729C103.542 105.258 102.433 103.715 100.909 102.525C101.836 104.33 103.166 105.885 104.346 107.587C102.426 107.389 94.1886 95.6642 94.2794 93.3411Z" fill="#C10016"/>
<path fill-rule="evenodd" clip-rule="evenodd" d="M123.085 127.068C120.627 125.641 118.007 124.751 115.464 123.67C111.864 122.134 109.458 119.42 108.102 115.792C108.018 115.574 107.92 115.356 107.888 115.139C107.829 114.665 107.966 114.172 108.277 113.859C108.608 113.526 108.991 113.923 109.315 114.064C113.083 115.753 115.97 118.531 118.629 121.558C120.186 123.331 121.607 125.231 123.085 127.068Z" fill="#C10016"/>
<path fill-rule="evenodd" clip-rule="evenodd" d="M83.9531 125.833C90.0763 121.391 95.674 116.342 103.211 114.217C102.134 115.811 100.785 117.071 99.5399 118.415C98.755 119.267 97.834 120.003 97.0751 120.873C94.1627 124.214 90.1411 125.046 86.0353 125.673C85.4061 125.775 84.7834 126.038 83.9531 125.833Z" fill="#C10016"/>
<path fill-rule="evenodd" clip-rule="evenodd" d="M44.023 122.338C45.4435 123.017 46.7667 122.825 48.1613 122.236C49.6337 121.615 51.184 122.07 52.598 122.575C54.3688 123.215 56.0812 123.26 57.813 122.582C58.4228 122.338 58.6433 122.46 58.7211 123.1C58.9482 125.09 58.6563 125.609 56.7817 126.39C52.1958 128.303 51.8456 128.277 47.7656 125.423C46.4749 124.521 45.223 123.561 43.9517 122.626C43.9711 122.53 43.9971 122.434 44.023 122.338Z" fill="#EDCBAA"/>
<path fill-rule="evenodd" clip-rule="evenodd" d="M83.525 124.278C84.5369 121.346 85.8796 118.62 87.9422 116.284C88.2082 115.983 88.5455 115.945 88.8763 115.875C91.3087 115.35 93.7086 114.716 95.9983 113.718C96.0891 113.68 96.2124 113.712 96.4264 113.712C95.9724 114.096 95.5962 114.409 95.22 114.729C97.4642 113.782 99.7345 113.02 102.238 112.931C95.0448 115.19 89.499 120.047 83.525 124.278Z" fill="#C10016"/>
<path fill-rule="evenodd" clip-rule="evenodd" d="M145.366 137.909C147.202 140.584 149.855 142.325 151.93 144.879C149.122 144.181 146.469 143.919 143.809 143.637C143.232 143.579 142.973 143.413 143.2 142.786C143.777 141.167 144.465 139.586 145.366 137.909Z" fill="#DC9118"/>
<path fill-rule="evenodd" clip-rule="evenodd" d="M139.632 173.447C139.775 179.073 140.19 184.231 141.455 189.293C141.526 189.581 141.805 190.074 141.351 190.195C140.826 190.336 140.819 189.741 140.715 189.421C139.84 186.656 139.489 183.796 139.204 180.935C138.692 175.847 138.555 170.74 138.504 165.633C138.497 165.243 138.296 164.724 139.009 164.731C139.697 164.743 139.412 165.275 139.431 165.588C139.567 168.353 139.704 171.118 139.632 173.447Z" fill="white"/>
<path fill-rule="evenodd" clip-rule="evenodd" d="M55.0563 69.8795C56.6649 69.8795 56.7752 71.5179 56.399 73.0602C56.2887 73.5082 56.0941 73.681 55.5947 73.6106C54.252 73.425 54.2196 73.457 52.8769 73.329C52.4877 73.2906 52.371 73.137 52.345 72.7594C52.2412 71.3387 53.5969 69.8795 55.0563 69.8795Z" fill="#AFB0B0"/>
<path fill-rule="evenodd" clip-rule="evenodd" d="M92.139 100.778C90.6017 100.227 88.8569 99.6129 87.112 98.9857C86.7228 98.8449 85.7499 96.6626 85.9769 96.317C86.2688 95.8882 86.7034 96.0418 87.0926 96.2658C87.9682 96.7714 88.805 97.3346 89.5249 98.045C90.459 98.9601 91.3411 99.9393 92.139 100.778Z" fill="white"/>
<path fill-rule="evenodd" clip-rule="evenodd" d="M59.3438 125.244C60.0508 123.938 60.5827 122.94 61.1276 121.948C61.2119 121.788 61.387 121.526 61.4713 121.545C62.6908 121.788 63.9362 121.654 65.1945 121.75C63.4951 123.209 61.5492 124.105 59.3438 125.244Z" fill="white"/>
<path fill-rule="evenodd" clip-rule="evenodd" d="M105.462 111.843C105.618 110.972 105.871 110.128 106.37 109.385C106.558 109.104 106.779 108.752 107.194 108.861C107.596 108.963 107.829 109.289 107.875 109.705C108.018 110.947 107.427 112.009 106.986 113.104C106.895 113.334 106.681 113.34 106.519 113.2C106.072 112.822 105.332 112.656 105.462 111.843Z" fill="#C10016"/>
<path fill-rule="evenodd" clip-rule="evenodd" d="M97.834 112.905C98.9042 112.061 99.955 111.261 100.636 110.032C100.954 109.462 101.804 109.584 102.439 109.545C102.738 109.526 102.634 109.795 102.627 109.961C102.608 110.416 102.569 110.877 102.569 111.331C102.569 111.625 102.569 111.837 102.16 111.849C100.656 111.913 99.261 112.457 97.834 112.905Z" fill="#C10016"/>
<path fill-rule="evenodd" clip-rule="evenodd" d="M105.274 112.176C104.405 111.293 104.1 110.416 104.353 109.443C104.554 108.649 105.339 108.745 106.098 108.637C105.533 109.744 105.228 110.832 105.274 112.176Z" fill="#C10016"/>
<path fill-rule="evenodd" clip-rule="evenodd" d="M88.6298 158.382C88.5714 159.848 87.3325 160.98 85.8601 160.916C84.4591 160.852 83.2786 159.63 83.3045 158.26C83.3304 156.846 84.6277 155.605 86.0417 155.649C87.5012 155.701 88.6882 156.949 88.6298 158.382Z" fill="#000005"/>
<path fill-rule="evenodd" clip-rule="evenodd" d="M93.0925 133.007C93.0795 134.511 91.9314 135.631 90.4201 135.612C89.006 135.592 87.8515 134.434 87.832 133.02C87.8126 131.567 89.0255 130.338 90.472 130.345C91.9573 130.345 93.1054 131.509 93.0925 133.007Z" fill="#000005"/>
<path fill-rule="evenodd" clip-rule="evenodd" d="M84.031 190.106C82.5262 190.086 81.3781 188.909 81.4365 187.443C81.4948 186.01 82.6235 184.947 84.0959 184.954C85.6202 184.954 86.7618 186.087 86.7423 187.571C86.7228 189.05 85.5683 190.125 84.031 190.106Z" fill="#000005"/>
<path fill-rule="evenodd" clip-rule="evenodd" d="M142.72 99.1394C142.882 98.8386 143.115 98.9986 143.329 99.0498C146.78 99.8369 150.16 100.848 153.442 102.16C153.727 102.275 153.999 102.422 154.272 102.57C154.577 102.736 154.966 102.89 154.836 103.325C154.7 103.76 154.285 103.664 153.948 103.626C152.897 103.504 151.898 103.152 150.931 102.762C148.311 101.699 145.703 100.592 143.102 99.4977C142.947 99.4209 142.694 99.4145 142.72 99.1394Z" fill="#000005"/>
<path fill-rule="evenodd" clip-rule="evenodd" d="M108.141 79.9656C106.454 79.9656 105.073 79.7736 103.73 79.3512C102.673 79.0184 102.517 78.6088 103.257 77.8536C104.217 76.8681 104.528 75.8249 103.938 74.5257C103.497 73.553 103.153 72.529 102.777 71.5307C102.621 71.1211 102.258 70.6987 102.699 70.2635C103.062 69.8987 103.497 70.0779 103.905 70.1739C105.91 70.6283 107.914 71.0827 109.97 71.2683C112.837 71.5307 115.626 71.2107 118.337 70.2507C118.779 70.0971 119.259 69.8219 119.635 70.2187C119.998 70.6027 119.745 71.0763 119.563 71.5051C117.857 75.4601 115.308 78.5256 110.859 79.6136C109.873 79.8504 108.88 79.9912 108.141 79.9656Z" fill="#000005"/>
<path fill-rule="evenodd" clip-rule="evenodd" d="M113.291 48.8755C116.56 48.9459 119.803 48.4211 123.072 48.6195C126.063 48.8051 127.911 50.7122 127.924 53.8993C125.901 50.9746 123.053 51.205 120.18 51.5058C118.824 51.6466 117.475 51.7746 116.106 51.6658C114.005 51.493 113.531 51.0514 113.291 48.8755Z" fill="#000005"/>
<path fill-rule="evenodd" clip-rule="evenodd" d="M138.14 66.8076C139.373 66.4876 140.385 66.558 141.046 67.5948C141.5 68.3116 141.325 68.9707 140.625 69.6555C140.527 68.9451 140.677 68.2156 139.982 67.87C139.587 67.6716 139.146 67.7164 138.737 67.8828C138.16 68.1196 137.868 68.3244 138.439 68.9963C139.535 70.2891 138.932 71.8314 137.31 72.1322C136.882 72.209 136.421 72.273 136.279 71.697C136.168 71.2427 136.395 70.9483 136.817 70.8267C137.154 70.7243 137.563 70.7051 137.537 70.2379C137.518 69.7963 137.148 69.5531 136.791 69.4379C135.948 69.1691 135.864 68.6636 136.13 67.9212C136.635 66.494 137.245 65.1373 138.348 64.0557C139.515 62.9166 141.085 62.5326 142.285 63.115C143.732 63.8189 144.16 65.0797 144.108 66.558C144.056 68.0684 143.394 69.3611 142.584 70.5963C142.292 71.0507 141.896 71.2939 141.422 70.9867C140.975 70.6923 141.131 70.2507 141.384 69.8667C141.851 69.1563 142.266 68.4332 142.519 67.614C142.7 67.0124 142.772 66.4044 142.668 65.7965C142.434 64.3757 141.228 63.8253 139.982 64.5677C139.165 65.0477 138.607 65.7709 138.14 66.8076Z" fill="#000005"/>
<path fill-rule="evenodd" clip-rule="evenodd" d="M117.806 58.1423C118.097 58.1743 118.396 58.2063 118.83 58.2511C118.37 57.3616 118.11 56.504 118.13 55.5248C117.351 55.6592 117.222 56.344 116.839 56.7664C116.392 57.2656 116.041 58.2063 115.302 57.9311C114.556 57.6495 114.51 56.7152 114.582 55.6656C114.861 56.1584 115.036 56.4528 115.192 56.728C115.464 56.7152 115.568 56.5424 115.639 56.3696C116.417 54.4561 117.903 53.9249 119.862 54.1745C121.633 54.3985 123.436 54.3857 125.103 55.1344C125.524 55.32 125.537 55.3904 125.343 55.7936C125.232 56.0176 125.466 56.1072 125.576 56.2352C126.115 56.8304 126.711 57.3872 126.899 58.3087C126.342 57.8479 125.784 57.3936 125.232 56.9328C124.487 56.3056 123.669 55.7872 122.709 55.5632C122.443 55.4992 122.028 55.3712 121.879 55.7232C121.723 56.0816 122.067 56.3504 122.346 56.3952C123.65 56.6256 123.786 56.9776 123.695 57.8287C123.676 58.0079 123.436 58.3279 123.533 58.4687C123.715 58.7311 124.778 58.4687 124.564 58.5967C124 58.9359 121.697 59.1855 121.217 59.1599C120.037 59.1023 118.817 59.0447 117.806 58.1423Z" fill="#000005"/>
<path fill-rule="evenodd" clip-rule="evenodd" d="M96.2253 56.504C96.5043 55.5057 97.328 55.0129 97.9961 54.2257C97.6134 54.2897 97.3086 54.3345 97.0491 54.3793C96.8934 54.2961 96.8999 54.2513 96.9907 54.1937C97.7237 53.7137 98.5539 53.5281 99.4166 53.4961C100.545 53.4577 101.674 53.4193 102.796 53.4577C105.066 53.5409 105.806 54.0913 106.552 56.152C106.759 56.728 105.987 57.8608 105.391 57.8608C105.228 57.8608 105.066 57.848 105.014 57.6688C104.962 57.4768 105.008 57.2976 105.157 57.144C106.208 56.0752 104.748 55.6209 104.508 54.8849C104.301 54.2513 103.438 54.2385 102.764 54.3025C102.634 54.3153 102.452 54.4305 102.407 54.5457C102.323 54.7505 102.491 54.8977 102.653 55.0129C103.198 55.3841 103.84 55.3073 104.424 55.3713C104.71 56.0497 103.613 56.472 104.119 57.2208C104.204 57.3424 103.763 57.4512 103.561 57.496C102.452 57.7456 101.33 57.8288 100.208 57.6048C99.7864 57.5216 99.235 57.496 99.955 56.8944C100.344 56.5744 99.7604 56.2096 99.6631 55.8577C99.2934 54.5201 99.1118 54.4689 97.8859 55.3073C97.3345 55.6977 96.7832 56.1072 96.2253 56.504Z" fill="#000005"/>
<path fill-rule="evenodd" clip-rule="evenodd" d="M108.277 52.6705C108.309 53.0097 108.309 53.3617 108.387 53.6945C108.796 55.3264 108.627 56.8752 107.849 58.3727C107.038 59.9343 106.344 61.5726 105.41 63.0638C104.612 64.3373 104.813 65.4253 105.501 66.5772C105.728 66.9548 105.961 67.3324 106.111 67.7612C104.95 66.9228 104.08 65.8861 103.665 64.4909C102.867 65.4253 103.49 66.1869 104.041 66.9676C102.984 66.7436 102.413 65.8093 102.764 64.7981C102.913 64.3757 103.153 63.9469 103.458 63.6141C105.715 61.195 106.487 58.0655 107.564 55.1024C108.018 53.8545 107.44 52.4529 107.272 51.1282C107.233 50.8274 107.168 50.533 107.181 50.213C107.732 50.9682 107.745 51.9602 108.303 52.7089L108.277 52.6705Z" fill="#000005"/>
<path fill-rule="evenodd" clip-rule="evenodd" d="M95.5378 52.4721C95.914 49.3043 96.848 48.4467 99.6242 48.6323C101.356 48.7475 103.081 49.0803 104.813 49.2531C105.378 49.3107 105.326 49.5858 105.248 49.9378C105.073 50.7314 104.521 51.0706 103.743 51.1154C102.725 51.173 101.726 51.0194 100.74 50.821C98.8264 50.437 97.0232 50.3986 95.5378 52.4721Z" fill="#000005"/>
<path fill-rule="evenodd" clip-rule="evenodd" d="M110.236 81.6551C109.25 83.3127 108.005 83.8886 106.37 83.6967C105.047 83.5431 104.178 82.8519 103.581 81.3735C105.76 82.5255 107.92 82.3975 110.236 81.6551Z" fill="#000005"/>
<path fill-rule="evenodd" clip-rule="evenodd" d="M112.493 67.8956C114.465 66.878 113.291 65.3485 113.142 63.9277C114.082 64.8429 114.634 66.1357 114.381 66.846C114.095 67.646 113.356 67.7868 112.493 67.8956Z" fill="#000006"/>
<path fill-rule="evenodd" clip-rule="evenodd" d="M102.199 88.6501C100.286 88.0101 98.995 86.4677 98.8329 84.6502C99.475 86.3973 101.116 87.2869 102.199 88.6501Z" fill="#000508"/>
<path fill-rule="evenodd" clip-rule="evenodd" d="M97.3021 74.3786C97.3994 74.033 97.0945 73.6106 97.555 73.5338C97.9702 73.4698 97.9572 73.8986 98.061 74.1738C98.2556 74.7114 98.5215 75.2234 98.515 75.8121C98.515 76.0489 98.4761 76.2921 98.1972 76.3497C97.8988 76.4073 97.6329 76.2921 97.568 75.9913C97.4448 75.4346 97.3799 74.8714 97.3021 74.3786Z" fill="#020307"/>
<path fill-rule="evenodd" clip-rule="evenodd" d="M124.149 74.9801C123.929 75.5945 123.741 76.2153 123.481 76.8105C123.384 77.0345 123.176 77.2969 122.845 77.1241C122.547 76.9705 122.528 76.6889 122.644 76.4265C122.897 75.8697 123.176 75.3193 123.455 74.7753C123.565 74.5642 123.565 74.1738 123.968 74.353C124.227 74.4682 124.169 74.7306 124.149 74.9801Z" fill="#121212"/>
<path fill-rule="evenodd" clip-rule="evenodd" d="M108.303 52.7089C108.381 52.1713 107.92 51.7106 108.102 51.045C108.789 51.845 109.373 52.5681 109.088 53.6881C108.465 53.5089 108.575 52.9521 108.284 52.6705C108.277 52.6705 108.303 52.7089 108.303 52.7089Z" fill="#171717"/>
<path fill-rule="evenodd" clip-rule="evenodd" d="M112.065 67.0317C111.449 67.2237 110.852 67.4157 110.216 67.614C110.521 66.3277 111.06 66.1741 112.065 67.0317Z" fill="#000006"/>
<path fill-rule="evenodd" clip-rule="evenodd" d="M157.048 22.694C158.663 24.4859 158.767 26.6362 158.546 28.8378C158.384 30.4761 158.125 32.108 157.528 33.6504C157.398 33.9832 157.262 34.5464 156.828 34.4504C156.283 34.3224 156.471 33.7336 156.555 33.3688C157.029 31.3977 157.606 29.4521 157.697 27.3978C157.768 25.7915 157.664 24.2171 157.048 22.694Z" fill="#000004"/>
<path fill-rule="evenodd" clip-rule="evenodd" d="M111.968 4.76181C108.783 5.65138 106.617 7.7825 104.483 9.98403C104.035 10.4448 103.393 11.4432 102.932 11.008C102.362 10.4768 103.321 9.77283 103.73 9.25445C105.494 7.01453 107.68 5.35699 110.606 4.85781C110.872 4.81301 111.144 4.78741 111.416 4.76821C111.592 4.74901 111.78 4.76181 111.968 4.76181Z" fill="#000005"/>
<path fill-rule="evenodd" clip-rule="evenodd" d="M111.475 21.5933C111.436 23.2892 110.132 24.8891 108.413 25.3499C109.328 23.8652 110.787 23.0332 111.475 21.5933Z" fill="#000003"/>
<path fill-rule="evenodd" clip-rule="evenodd" d="M63.1384 126.716C63.7092 126.735 63.9686 126.684 64.0919 126.946C64.2022 127.183 64.1178 127.42 63.9168 127.561C62.3989 128.649 60.6541 129.263 58.8898 129.813C58.7017 129.871 58.5266 129.756 58.3969 129.583C58.2412 129.372 58.3385 129.167 58.4941 129.09C60.1222 128.233 61.7633 127.407 63.1384 126.716Z" fill="#000005"/>
<path fill-rule="evenodd" clip-rule="evenodd" d="M71.1036 163.124C71.1036 162.324 71.1036 161.524 71.1036 160.718C71.1036 160.539 71.0712 160.302 71.3436 160.283C71.5901 160.264 71.6615 160.481 71.6679 160.667C71.7847 163.201 72.4658 165.646 72.9198 168.123C72.9652 168.359 73.069 168.699 72.7187 168.82C72.3101 168.961 72.2063 168.59 72.0571 168.34C71.1101 166.721 71.0647 164.916 71.1036 163.124Z" fill="#000004"/>
<path fill-rule="evenodd" clip-rule="evenodd" d="M100.214 29.785C101.161 32.3257 99.7215 36.8631 97.6523 37.6439C99.1572 35.1672 99.5399 32.5561 100.214 29.785Z" fill="#000004"/>
<path fill-rule="evenodd" clip-rule="evenodd" d="M117.384 37.8998C118.409 35.4615 119.674 33.1064 119.803 30.1497C120.822 32.1464 119.375 36.6903 117.384 37.8998Z" fill="#000003"/>
<path fill-rule="evenodd" clip-rule="evenodd" d="M146.17 47.2692C145.606 48.1139 142.22 51.8514 141.844 52.0562C141.714 50.6162 144.192 47.8771 146.17 47.2692Z" fill="#000003"/>
<path fill-rule="evenodd" clip-rule="evenodd" d="M133.684 42.3797C133.185 40.959 134.119 38.5399 135.591 37.5863C134.858 39.1222 134.625 40.8438 133.684 42.3797Z" fill="#000004"/>
<path fill-rule="evenodd" clip-rule="evenodd" d="M84.2321 114.051C83.6029 113.961 82.8699 113.878 82.15 113.756C81.9489 113.724 81.6246 113.737 81.644 113.411C81.657 113.136 81.9294 113.052 82.15 113.02C83.2656 112.867 84.3748 112.707 85.4904 112.598C89.4406 112.208 93.0082 110.857 96.2449 108.598C96.4589 108.451 96.6989 108.003 96.9973 108.349C97.2827 108.681 96.8286 108.873 96.634 109.065C93.2806 112.521 88.9542 113.622 84.2321 114.051Z" fill="#000005"/>
<path fill-rule="evenodd" clip-rule="evenodd" d="M5.28642 102.832C6.92098 103.952 8.53609 104.989 10.3069 105.763C11.4744 106.275 12.6679 106.736 13.8484 107.216C14.5684 107.51 15.2884 107.798 15.9111 108.265C16.1122 108.419 16.456 108.534 16.3457 108.867C16.2224 109.232 15.8787 109.04 15.6387 109.021C15.2949 108.995 14.9381 108.931 14.6138 108.803C11.2798 107.497 8.09502 105.936 5.4356 103.491C5.30588 103.37 5.11777 103.254 5.28642 102.832Z" fill="#000005"/>
<path fill-rule="evenodd" clip-rule="evenodd" d="M137.991 144.443C138.179 144.507 138.315 144.514 138.354 144.578C139.768 146.824 140.715 149.23 140.832 151.899C140.852 152.264 141.059 152.897 140.495 152.942C140.008 152.981 139.969 152.341 139.885 151.957C139.606 150.683 139.444 149.384 139.126 148.123C138.828 146.914 138.393 145.73 137.991 144.443Z" fill="#000004"/>
<path fill-rule="evenodd" clip-rule="evenodd" d="M147.085 187.143C149.355 186.323 151.632 185.511 153.896 184.685C154.136 184.602 154.376 184.551 154.525 184.775C154.732 185.075 154.473 185.267 154.265 185.44C153.5 186.093 152.56 186.355 151.613 186.567C150.147 186.899 148.661 187.149 147.182 187.437C147.156 187.341 147.117 187.245 147.085 187.143Z" fill="#000004"/>
<path fill-rule="evenodd" clip-rule="evenodd" d="M154.836 183.156C153.377 184.237 151.917 184.403 150.387 184.896C151.437 184.071 153.578 183.188 154.836 183.156Z" fill="#242626"/>
<path fill-rule="evenodd" clip-rule="evenodd" d="M87.2482 158.267C87.1509 158.99 86.7877 159.502 86.0093 159.521C85.231 159.54 84.751 159.048 84.7315 158.318C84.7121 157.588 85.1921 157.076 85.951 157.051C86.7228 157.025 87.112 157.544 87.2482 158.267Z" fill="#C4C4C4"/>
<path fill-rule="evenodd" clip-rule="evenodd" d="M90.4525 134.236C89.6611 134.127 89.233 133.679 89.2655 132.937C89.2914 132.188 89.7714 131.708 90.5303 131.746C91.2697 131.785 91.7433 132.265 91.7043 133.026C91.6719 133.781 91.1789 134.159 90.4525 134.236Z" fill="#C4C4C4"/>
<path fill-rule="evenodd" clip-rule="evenodd" d="M84.0569 188.781C83.2786 188.666 82.818 188.211 82.857 187.463C82.8959 186.771 83.3694 186.291 84.0764 186.298C84.8223 186.311 85.3283 186.765 85.3153 187.546C85.3088 188.327 84.8094 188.704 84.0569 188.781Z" fill="#C4C4C4"/>
<path fill-rule="evenodd" clip-rule="evenodd" d="M109.723 78.4488C109.49 78.468 108.913 78.5512 108.335 78.564C107.966 78.5704 107.44 78.8392 107.252 78.5128C107.019 78.1224 107.356 77.6296 107.557 77.2393C108.536 75.3769 112.616 74.6601 114.225 76.0233C114.653 76.3881 114.342 76.4841 114.095 76.6761C113.252 77.3481 111.494 78.0968 109.723 78.4488Z" fill="#C10016"/>
<path fill-rule="evenodd" clip-rule="evenodd" d="M104.47 71.7035C108.121 72.5419 111.669 73.0474 115.315 72.4459C112.286 74.6602 105.423 74.2954 104.47 71.7035Z" fill="white"/>
<path fill-rule="evenodd" clip-rule="evenodd" d="M21.5283 102.742C22.2094 100.899 22.8385 99.0689 23.4937 97.2834C24.8493 97.7057 25.7444 98.0065 26.3347 98.2049C25.7963 99.9841 25.2385 101.891 24.5899 103.939C24.2526 104.771 23.2991 105.181 22.4494 104.854C21.6061 104.521 21.191 103.581 21.5283 102.742ZM25.0958 93.2195C27.5541 87.5109 30.8946 82.5959 37.8675 79.748C40.6566 78.6088 40.702 78.8072 43.7636 78.4232L40.9615 79.7352C32.8405 83.6262 29.8827 88.0421 27.7163 94.0003L25.0958 93.2195Z" fill="#20201E"/>
<path fill-rule="evenodd" clip-rule="evenodd" d="M99.6307 57.4064C99.514 57.3872 99.4102 57.368 99.3259 57.3424C98.1713 57.0032 98.3529 56.9136 97.6264 55.4992C97.1594 55.8256 96.6924 56.1648 96.2319 56.4976C96.5108 55.4992 97.3345 55.0065 98.0026 54.2193C97.6199 54.2833 97.3151 54.3281 97.0556 54.3729C96.9 54.2897 96.9064 54.2449 96.9972 54.1873C97.7302 53.7073 98.5605 53.5217 99.4232 53.4897C100.552 53.4513 101.68 53.4129 102.803 53.4513C105.073 53.5345 105.812 54.0849 106.558 56.1456C106.766 56.7216 105.994 57.8544 105.397 57.8544C105.235 57.8544 105.073 57.8416 105.021 57.6624C104.982 57.5344 104.995 57.4128 105.047 57.304C104.839 57.3168 104.45 57.3488 103.957 57.3808C103.834 57.4256 103.672 57.464 103.574 57.4896C102.465 57.7392 101.343 57.8224 100.221 57.5984C99.981 57.56 99.7021 57.5344 99.6307 57.4064ZM103.743 51.109C102.725 51.1666 101.726 51.013 100.74 50.8146C98.8199 50.437 97.0167 50.3922 95.5378 52.4658C95.6221 51.7746 95.7259 51.1986 95.8751 50.7122C96.407 48.9715 97.4513 48.4787 99.6242 48.6195C101.356 48.7347 103.081 49.0675 104.813 49.2403C105.06 49.2659 105.183 49.3299 105.248 49.4259C105.326 49.5475 105.293 49.7267 105.248 49.925C105.073 50.7186 104.521 51.0642 103.743 51.109ZM107.252 49.2979C106.519 46.4884 106.143 43.0197 106.818 40.6774C103.548 40.7734 100.253 41.1574 96.9454 41.7397C96.3227 41.8485 95.9335 42.2005 95.8362 42.8917C95.6611 44.1076 95.3432 45.3044 95.207 46.5204C95.0384 47.9987 94.8957 49.4771 94.7335 50.949C94.4351 53.7457 94.1043 56.5296 93.5141 59.2879C93.0341 61.5534 92.5541 63.8254 92.9108 66.1421C93.8514 72.3051 95.4146 78.3144 97.6199 84.1574C98.1194 85.4758 98.5994 86.839 99.6437 87.8821C100.578 88.8101 101.804 89.5717 103.179 90.122C103.075 89.1045 103.075 87.6901 103.412 85.8598C103.685 84.3814 104.288 83.5943 104.878 83.1719C104.463 82.8839 104.119 82.4743 103.827 81.9239C102.614 81.2775 101.92 80.388 101.92 79.716C101.92 79.3128 102.329 78.9416 102.803 78.5512C102.835 78.3528 102.984 78.1289 103.257 77.8537C103.763 77.3353 104.087 76.8041 104.197 76.2281C104.184 75.8377 104.152 75.3769 104.08 74.8842C104.041 74.769 103.996 74.6474 103.938 74.5258C103.497 73.553 103.153 72.5291 102.777 71.5307C102.705 71.3387 102.589 71.1467 102.53 70.9547C101.408 69.118 102.4 68.6444 103.153 68.6444C103.944 68.6444 105.695 69.3356 107.979 69.5084C109.801 69.6491 112.584 67.1788 113.622 66.1869C113.615 66.0589 113.596 65.9245 113.576 65.7965C112.156 65.8221 107.784 65.8733 105.527 65.4381C105.313 65.3997 105.125 65.3421 104.963 65.2845C105.053 65.7133 105.248 66.1421 105.507 66.5837C105.734 66.9612 105.968 67.3388 106.117 67.7676C104.956 66.9292 104.087 65.8925 103.672 64.4973C102.874 65.4317 103.497 66.1933 104.048 66.974C102.991 66.7501 102.42 65.8157 102.77 64.8045C102.919 64.3821 103.159 63.9534 103.464 63.6206C105.721 61.2014 106.493 58.072 107.57 55.1089C108.024 53.8609 107.447 52.4594 107.278 51.1346C107.239 50.8338 107.174 50.5394 107.187 50.2194C107.693 50.9106 107.745 51.7938 108.173 52.5106C108.121 52.101 108.037 51.7042 107.901 51.3394C107.661 50.7186 107.447 50.0338 107.252 49.2979ZM98.0545 74.1738C98.2491 74.7114 98.5151 75.2234 98.5086 75.8121C98.5086 76.0489 98.4697 76.2921 98.1907 76.3497C97.8924 76.4073 97.6264 76.2921 97.5616 75.9913C97.4448 75.4345 97.3735 74.865 97.2956 74.3786C97.3929 74.033 97.0881 73.6106 97.5486 73.5338C97.9702 73.4698 97.9572 73.905 98.0545 74.1738ZM110.216 67.614C110.521 66.3341 111.066 66.1805 112.065 67.0316C111.449 67.2236 110.852 67.4092 110.216 67.614ZM98.8329 84.6502C99.4686 86.3974 101.11 87.2869 102.199 88.6501C100.286 88.0101 98.9951 86.4678 98.8329 84.6502Z" fill="#D98B58"/>
<path fill-rule="evenodd" clip-rule="evenodd" d="M124.078 143.835C127.568 142.319 125.576 145.141 124.292 145.544C123.981 145.64 123.669 145.743 123.351 145.839C123.202 146.344 123.137 146.978 123.325 147.778C123.611 149.032 124.013 149.774 124.363 150.21C124.545 150.152 124.72 150.094 124.876 150.043C128.151 149.032 127.522 150.619 126.179 151.099C125.777 151.246 125.31 151.406 124.811 151.566C124.538 152.488 124.266 154.03 125.083 154.952C125.583 155.515 125.998 155.893 126.309 156.142C127.029 155.944 127.749 155.72 128.463 155.509C128.69 156.731 128.391 157.07 127.101 157.224C127.302 158.075 127.97 159.528 130.169 159.886C133.327 160.404 140.696 156.251 140.696 156.251L143.031 152.04C142.272 148.155 140.968 144.482 138.821 141.09C136.824 137.928 135.338 134.505 133.976 131.029C133.36 129.442 133.185 127.862 133.483 126.178C133.639 125.276 133.97 124.354 133.723 123.337C131.135 124.13 129.436 125.66 128.956 128.271C128.528 130.633 128.644 133.013 128.949 135.388C129.021 135.957 129.325 136.098 129.844 136.188C131.09 136.399 132.29 136.744 133.211 137.711C132.906 138.005 132.698 137.826 132.484 137.775C130.24 137.231 127.989 137.314 125.79 137.954C124.791 138.248 123.792 138.556 122.8 138.876C122.249 141.179 123.371 143.368 124.026 143.797C124.045 143.81 124.065 143.823 124.078 143.835ZM139.133 148.123C138.834 146.914 138.4 145.73 137.991 144.443C138.179 144.507 138.315 144.514 138.354 144.578C139.768 146.824 140.715 149.23 140.832 151.899C140.852 152.264 141.059 152.897 140.495 152.942C140.008 152.981 139.97 152.341 139.885 151.957C139.613 150.69 139.444 149.39 139.133 148.123Z" fill="#EDCBAA"/>
<path fill-rule="evenodd" clip-rule="evenodd" d="M132.011 130.556C131.427 128.335 131.868 125.999 132.886 123.638C130.765 124.495 129.377 125.961 128.956 128.271C128.528 130.633 128.644 133.013 128.949 135.388C129.02 135.957 129.325 136.098 129.844 136.188C130.921 136.373 131.965 136.655 132.821 137.352C132.718 135.535 132.484 132.38 132.011 130.556Z" fill="#D98B58"/>
<path fill-rule="evenodd" clip-rule="evenodd" d="M137.245 188.352C135.89 187.712 130.746 195.405 130.804 195.136C131.913 189.734 135.993 186.855 136.24 181.364C136.415 177.453 134.754 171.815 135.65 165.3C135.604 164.782 135.688 164.174 134.826 164.212C133.392 164.276 131.998 164.75 130.545 164.654C130.311 164.635 130.22 164.852 130.136 165.019C129.526 166.234 128.45 166.407 127.256 166.209C126.069 166.011 124.876 165.799 123.721 165.473C122.476 165.127 121.542 164.788 120.854 164.359C121.23 167.054 123.079 168.007 126.218 168.89C131.129 170.273 131.129 171.137 131.129 171.137L130.603 186.195L121.834 201.254L121.607 202.22L121.516 202.604C123.429 202.444 140.722 200.096 141.033 198.816C141.105 198.521 138.737 189.056 137.245 188.352Z" fill="#C4C4C4"/>
<path fill-rule="evenodd" clip-rule="evenodd" d="M178.732 164.66C173.498 166.862 166.641 167.31 159.591 167.22C159.889 169.831 160.077 172.449 159.935 175.06C159.883 176.013 160.246 176.321 161.096 176.493C162.782 176.839 163.029 176.711 164.663 176.301C167.764 175.527 170.611 174.324 173.225 172.743C175.943 171.105 178.414 169.057 180.671 166.67C182.3 164.942 183.584 163.054 184.31 160.916C182.799 162.529 180.905 163.745 178.732 164.66Z" fill="#C4C4C4"/>
<path fill-rule="evenodd" clip-rule="evenodd" d="M144.938 122.812C144.218 125.353 144.374 127.958 144.406 130.543C144.581 129.967 144.685 129.372 144.828 128.79C145.678 125.212 147.066 121.878 148.895 118.748L144.938 122.812Z" fill="#C4C4C4"/>
<path fill-rule="evenodd" clip-rule="evenodd" d="M143.479 127.138C143.913 126.031 143.946 124.956 144.069 123.9C144.075 123.823 144.088 123.753 144.095 123.682L143.193 124.61C143.284 125.43 143.381 126.262 143.479 127.138Z" fill="#C4C4C4"/>
<path fill-rule="evenodd" clip-rule="evenodd" d="M142.253 133.525C142.103 130.825 142.175 128.118 142.538 125.41C141.922 126.486 139.762 130.21 137.407 133.864C138.088 135.208 138.75 136.399 139.574 137.96C139.866 138.517 140.151 139.1 140.644 139.541C142.162 137.416 142.395 136.117 142.253 133.525Z" fill="#C4C4C4"/>
<path fill-rule="evenodd" clip-rule="evenodd" d="M155.439 37.8551C154.564 37.8871 153.636 37.9319 152.488 37.5799C154.051 36.8567 155.427 36.5879 156.866 36.6071C157.308 36.6135 157.638 36.6199 157.911 36.1272C161.316 29.945 161.063 22.8924 155.498 18.0606C154.123 16.8638 152.676 15.9615 151.158 15.3727C154.901 26.3163 153.656 33.516 150.127 34.8792C148.875 35.3656 147.688 35.6792 146.65 35.884C146.865 36.6455 147.105 37.3879 147.364 38.1303C148.525 41.439 149.79 44.7029 152.216 47.3588C153.844 49.1379 155.757 49.9763 158.268 48.7795C158.955 53.0802 157.723 56.3312 153.695 58.3216C154.155 58.3344 154.564 58.296 154.953 58.1872C161.906 56.2544 165.266 46.3604 160.888 40.6838C159.526 38.9303 157.839 37.7591 155.439 37.8551ZM157.528 33.6568C157.398 33.9896 157.262 34.5528 156.828 34.4568C156.283 34.3288 156.471 33.74 156.555 33.3752C157.029 31.4041 157.606 29.4586 157.697 27.4043C157.768 25.7915 157.664 24.2172 157.048 22.7004C158.663 24.4924 158.767 26.6427 158.546 28.8442C158.384 30.4761 158.125 32.1081 157.528 33.6568Z" fill="#C4C4C4"/>
<path fill-rule="evenodd" clip-rule="evenodd" d="M137.57 35.9479C139.931 38.1495 140.514 39.743 139.425 42.4821C138.465 44.9012 136.791 47.2563 135.63 48.7347C136 49.0419 136.363 49.3619 136.726 49.6883C138.575 51.3458 140.229 53.1889 141.915 55.0065C140.689 52.4018 138.77 50.309 136.856 48.1907C138.328 48.9779 139.639 49.9378 140.638 51.2178C141.643 52.4978 142.545 53.8545 143.55 55.2625C144.776 52.5681 145.93 49.9762 147.137 47.4099C147.364 46.9299 147.215 46.642 146.975 46.2772C144.276 42.1877 141.098 38.7446 137.57 35.9479ZM141.844 52.0562C141.714 50.6162 144.192 47.8771 146.17 47.2691C145.6 48.1139 142.22 51.8578 141.844 52.0562Z" fill="#C4C4C4"/>
<path fill-rule="evenodd" clip-rule="evenodd" d="M66.2713 94.7555C66.2713 89.4053 65.2335 84.439 56.7233 76.2345C55.2963 76.0361 53.8628 75.9017 52.4164 75.8313C49.8218 75.7097 47.1884 75.7929 44.5225 76.1065C39.6058 76.6825 34.7605 77.5785 30.2265 79.6648C28.0406 80.6696 26.1271 81.9815 24.8947 84.1254C23.2796 86.9285 22.4818 88.8293 21.1261 91.7604C20.8407 92.3748 20.8472 92.6307 21.5737 92.8931C28.7346 95.453 33.8394 97.0466 38.8274 98.0514C45.2879 99.3505 51.5667 99.6641 61.8995 99.8113C63.1059 99.7985 64.3254 99.7793 65.5513 99.7537C65.934 98.9729 66.2713 97.5074 66.2713 94.7555ZM40.955 79.7288C32.834 83.6199 29.8762 88.0357 27.7098 93.9939L25.0958 93.2131C27.5541 87.5045 30.8946 82.5895 37.8674 79.7416C40.6566 78.6024 40.702 78.8008 43.7636 78.4168L40.955 79.7288Z" fill="white"/>
<path fill-rule="evenodd" clip-rule="evenodd" d="M52.2348 100.861C47.5322 100.637 42.862 100.246 38.2502 99.5745C32.1011 98.6721 26.0493 97.2513 20.1532 95.005C19.5694 94.781 19.4008 95.0306 19.2321 95.4722C18.5965 97.1618 17.9348 98.8385 17.3251 100.534C16.5857 102.582 16.6959 102.858 18.6029 104.061C18.9597 104.285 19.3359 104.49 19.7186 104.681C22.404 106.038 25.2969 106.813 28.2158 107.433C30.6287 107.952 33.0481 108.4 35.4805 108.784C44.9182 110.294 54.4531 110.876 64.0465 110.908C64.0724 110.908 64.1049 110.908 64.1308 110.908C64.2346 110.217 64.4227 109.008 64.7081 107.037C65.1038 104.31 64.8054 102.064 64.6367 101.117C60.492 101.168 56.3666 101.059 52.2348 100.861ZM26.3347 98.2113C25.7963 99.9905 25.2385 101.898 24.5899 103.946C24.2526 104.777 23.2991 105.187 22.4494 104.861C21.6061 104.528 21.191 103.587 21.5283 102.749C22.2094 100.906 22.8385 99.0753 23.4937 97.2898C24.8493 97.7121 25.7444 98.0065 26.3347 98.2113Z" fill="white"/>
<path fill-rule="evenodd" clip-rule="evenodd" d="M5.74042 98.2818C6.13609 102.922 14.3349 107.843 34.9161 111.376C35.9215 111.548 36.9658 111.721 38.0296 111.888C64.3578 115.99 90.6925 113.827 98.1583 105.974C98.0026 105.827 97.8469 105.686 97.6848 105.552C94.5908 103.03 90.887 102.026 86.9952 100.65C87.4428 102.736 87.7606 104.624 88.273 106.461C88.6363 107.76 88.1887 108.617 87.1898 109.341C86.0028 110.198 84.6342 110.627 83.2266 110.96C77.817 112.246 72.2906 112.476 66.7707 112.553C56.3212 112.694 45.9235 112.016 35.5907 110.467C35.435 110.441 35.2794 110.422 35.1237 110.397C30.3173 109.654 24.9012 108.509 20.3737 106.8C18.6224 106.141 16.9294 105.379 15.5932 104.022C14.7759 103.19 14.4322 102.301 14.9122 101.11C15.71 99.1393 16.3716 97.1106 17.1305 95.0051C13.7965 95.5234 11.3382 96.1378 8.25064 97.2386C7.39444 97.5458 6.54473 97.8722 5.74042 98.2818Z" fill="white"/>
<path fill-rule="evenodd" clip-rule="evenodd" d="M81.5727 124.86C82.0527 123.855 82.4872 122.831 82.9153 121.801C83.6937 119.951 84.738 118.236 85.9639 116.412C81.0083 117.289 76.2084 117.571 71.5447 117.852C72.4009 126.383 73.776 134.812 71.6615 143.291C73.2831 140.821 74.3403 138.063 75.8582 135.343C76.1306 135.925 75.9619 136.245 75.8906 136.572C75.2809 139.375 74.0939 141.947 72.6474 144.418C72.4334 144.783 72.2323 145.128 72.148 145.563C71.4669 149.064 70.7923 152.571 70.0269 156.059C69.0929 160.296 69.4042 164.436 70.7145 168.539C71.6031 171.329 72.4009 174.132 72.3231 177.101C72.2647 179.245 71.629 181.21 70.442 183.015C71.0064 180.98 71.4669 178.945 71.2399 176.807C71.0193 174.727 70.6366 172.692 69.761 170.49C68.8918 175.917 66.5308 185.741 64.2281 190.375C65.9989 190.183 66.9589 190.259 69.3069 189.984C71.8301 180.269 73.2377 171.438 72.9523 169.044C72.6669 166.651 72.9263 168.82 72.9133 168.705C72.8744 168.756 72.8161 168.795 72.7382 168.82C72.3296 168.961 72.2258 168.59 72.0766 168.34C71.1231 166.721 71.0777 164.916 71.1231 163.124C71.1231 162.324 71.1231 161.524 71.1231 160.718C71.1231 160.539 71.0907 160.302 71.3631 160.283C71.6096 160.264 71.6809 160.481 71.6874 160.667C71.7847 162.772 72.2712 164.814 72.6928 166.862C71.9339 160.577 70.8961 150.677 74.0095 146.37C77.5187 141.525 78.0441 130.274 78.0441 130.274C78.0441 130.274 78.7705 130.581 83.311 130.569C83.3888 130.012 83.4667 129.455 83.551 128.898C83.6483 128.207 83.5186 127.932 82.7597 127.932C82.0267 127.932 81.2937 127.791 80.5608 127.695C80.2105 127.65 79.8473 127.567 79.7694 127.145C79.6981 126.761 79.8278 126.441 80.2365 126.338C81.0083 126.14 81.2808 125.474 81.5727 124.86Z" fill="#C4C4C4"/>
<path fill-rule="evenodd" clip-rule="evenodd" d="M104.294 117.967C102.108 121.046 99.6177 123.817 96.3162 125.788C93.1443 127.682 89.6417 128.201 86.0093 128.188C85.445 128.188 84.9974 128.13 84.8937 128.943C84.8288 129.481 84.7574 130.018 84.6861 130.556C85.7888 130.537 87.0666 130.505 88.5455 130.447C97.8405 130.101 104.859 121.276 104.859 121.276C104.859 121.276 104.859 121.276 108.193 125.602C111.429 129.801 118.791 131.394 126.439 134.332C126.413 133.935 126.355 133.448 126.277 132.847C126.218 132.373 126.069 132.105 125.596 131.938C122.164 130.703 119.888 129.199 116.379 128.175C114.232 127.548 112.435 126.402 110.859 124.86C108.491 122.55 106.727 119.817 105.066 116.873C104.774 117.289 104.534 117.628 104.294 117.967Z" fill="#C4C4C4"/>
<path fill-rule="evenodd" clip-rule="evenodd" d="M87.1185 98.9857C88.8569 99.6129 90.6017 100.234 92.1455 100.778C91.3476 99.9329 90.4655 98.9601 89.5314 98.0386C88.8179 97.3282 87.9812 96.765 87.0991 96.2594C86.7164 96.0418 86.2753 95.8818 85.9834 96.3106C85.7499 96.6626 86.7293 98.8449 87.1185 98.9857Z" fill="#C4C4C4"/>
<path fill-rule="evenodd" clip-rule="evenodd" d="M118.571 99.8561C122.262 94.2051 125.077 87.3573 127.178 81.1559C123.163 87.0693 118.467 92.4068 112.824 96.9698C111.637 97.9298 110.327 98.1602 108.887 97.8978C106.824 97.5266 104.969 96.669 103.27 95.4786C103.017 95.2995 102.828 94.9667 102.42 95.0371C102.342 98.0066 104.074 100.278 105.339 102.71C105.689 103.389 106.591 103.478 107.317 103.51C108.018 103.542 107.81 102.762 108.069 102.384C108.452 101.827 108.465 101.034 109.179 100.618C109.451 101.693 108.978 102.614 108.828 103.638C111.15 103.498 113.31 103.229 115.224 101.917C116.307 101.174 117.429 100.502 118.571 99.8561Z" fill="#D98B58"/>
<path fill-rule="evenodd" clip-rule="evenodd" d="M125.129 45.5156C127.84 47.0899 130.175 49.6626 131.849 51.8706C132.089 52.1841 132.309 52.4913 132.523 52.7921C132.556 52.5553 132.588 52.3185 132.627 52.0881C132.757 51.2626 132.899 50.4306 133.074 49.605C133.217 48.9139 133.133 48.5299 132.523 48.1011C130.389 46.6163 128.171 45.2852 125.79 44.2164C119.615 41.4389 113.272 40.4982 106.837 40.6837C106.792 40.8437 106.746 41.0101 106.714 41.1765C113.635 40.7029 120.29 42.7125 125.129 45.5156Z" fill="#D98B58"/>
<path fill-rule="evenodd" clip-rule="evenodd" d="M141.046 67.5948C141.5 68.3116 141.325 68.9707 140.625 69.6555C140.527 68.9451 140.677 68.2156 139.982 67.87C139.587 67.6716 139.146 67.7164 138.737 67.8828C138.16 68.1196 137.868 68.3244 138.439 68.9963C139.34 70.0587 139.094 71.3003 138.062 71.8698C139.126 71.7994 140.255 71.2619 141.15 70.5963C141.111 70.3659 141.228 70.1035 141.39 69.8667C141.857 69.1563 142.272 68.4332 142.525 67.614C142.707 67.0124 142.778 66.4044 142.674 65.7965C142.441 64.3757 141.234 63.8253 139.989 64.5677C139.165 65.0605 138.607 65.7837 138.14 66.8204C139.373 66.4876 140.385 66.558 141.046 67.5948Z" fill="#D98B58"/>
<path fill-rule="evenodd" clip-rule="evenodd" d="M157.398 166.023C156.185 166.919 152.105 167.521 146.65 167.367C147.085 174.631 146.663 181.94 145.113 189.331C148.311 188.595 151.288 187.898 154.265 187.226C154.745 187.117 154.953 186.823 155.115 186.394C155.692 184.883 156.244 183.36 156.477 181.767C157.256 176.538 157.45 171.29 157.398 166.023ZM150.387 184.896C151.437 184.071 153.578 183.188 154.836 183.156C153.377 184.231 151.917 184.397 150.387 184.896ZM147.085 187.143C149.355 186.323 151.632 185.511 153.896 184.685C154.136 184.602 154.376 184.551 154.525 184.775C154.732 185.075 154.473 185.267 154.265 185.44C153.5 186.093 152.56 186.355 151.613 186.567C150.147 186.899 148.661 187.149 147.182 187.437C147.156 187.341 147.117 187.245 147.085 187.143Z" fill="#C4C4C4"/>
<path fill-rule="evenodd" clip-rule="evenodd" d="M103.218 114.217C95.674 116.342 90.0827 121.391 83.9596 125.833C84.7834 126.038 85.4125 125.775 86.0417 125.679C90.1476 125.046 94.1691 124.22 97.0815 120.879C97.8404 120.009 98.755 119.273 99.5464 118.422C100.785 117.071 102.134 115.804 103.218 114.217Z" fill="#911B19"/>
<path fill-rule="evenodd" clip-rule="evenodd" d="M108.102 115.792C109.458 119.414 111.864 122.134 115.464 123.67C118.007 124.751 120.627 125.647 123.085 127.068C121.607 125.225 120.186 123.331 118.629 121.551C115.97 118.524 113.083 115.747 109.315 114.057C108.997 113.916 108.608 113.52 108.277 113.852C107.966 114.172 107.829 114.659 107.888 115.132C107.92 115.363 108.024 115.58 108.102 115.792Z" fill="#911B19"/>
<path fill-rule="evenodd" clip-rule="evenodd" d="M17.9737 105.968C16.0862 104.694 11.1955 102.09 11.5198 99.2354C14.7759 102.134 14.5878 102.115 18.8364 104.272C19.3618 104.63 19.9326 105.162 19.5694 105.68C19.2191 106.192 18.4991 106.32 17.9737 105.968Z" fill="#20201E"/>
<path fill-rule="evenodd" clip-rule="evenodd" d="M88.1174 135.215C91.7498 134.127 91.4579 134.357 94.2146 132.405L94.0006 133.308C92.8525 135.919 90.2839 135.58 88.1174 135.215Z" fill="#20201E"/>
<path fill-rule="evenodd" clip-rule="evenodd" d="M83.5575 160.827C87.1899 159.739 86.898 159.969 89.6547 158.017L89.4406 158.92C88.2925 161.537 85.7239 161.198 83.5575 160.827Z" fill="#20201E"/>
<path fill-rule="evenodd" clip-rule="evenodd" d="M81.7997 190.074C85.4321 188.986 85.1402 189.216 87.8969 187.264L87.6828 188.167C86.5412 190.784 83.9661 190.445 81.7997 190.074Z" fill="#20201E"/>
</g>
<defs>
<clipPath id="clip0_173_202">
<rect width="189" height="203.538" fill="white" transform="translate(0 0.230774)"/>
</clipPath>
</defs>
</svg>
