<svg width="38" height="38" viewBox="0 0 38 38" fill="none" xmlns="http://www.w3.org/2000/svg">
<path d="M10.0431 7.81862C10.1903 7.96567 10.3071 8.14029 10.3868 8.3325C10.4665 8.52472 10.5075 8.73075 10.5075 8.93883C10.5075 9.1469 10.4665 9.35294 10.3868 9.54515C10.3071 9.73736 10.1903 9.91199 10.0431 10.059C7.66721 12.4353 6.33248 15.658 6.33248 19.0183C6.33248 22.3786 7.66721 25.6013 10.0431 27.9776C10.1901 28.1247 10.3067 28.2993 10.3862 28.4915C10.4657 28.6837 10.5066 28.8896 10.5065 29.0976C10.5065 29.3056 10.4654 29.5115 10.3858 29.7036C10.3061 29.8957 10.1894 30.0702 10.0423 30.2172C9.8952 30.3642 9.72058 30.4808 9.52841 30.5604C9.33625 30.6399 9.1303 30.6808 8.92233 30.6807C8.71436 30.6806 8.50844 30.6396 8.31633 30.5599C8.12422 30.4803 7.94969 30.3636 7.80268 30.2165C1.61818 24.032 1.61818 14.0031 7.80268 7.81862C7.94973 7.67141 8.12435 7.55462 8.31657 7.47494C8.50878 7.39526 8.71482 7.35425 8.92289 7.35425C9.13096 7.35425 9.337 7.39526 9.52921 7.47494C9.72143 7.55462 9.89605 7.67141 10.0431 7.81862ZM30.2005 7.81862C36.385 14.0047 36.385 24.032 30.2005 30.2165C29.9019 30.5049 29.5019 30.6645 29.0868 30.6609C28.6716 30.6572 28.2745 30.4907 27.981 30.1972C27.6874 29.9036 27.5209 29.5065 27.5173 29.0913C27.5137 28.6762 27.6733 28.2762 27.9617 27.9776C30.3376 25.6013 31.6723 22.3786 31.6723 19.0183C31.6723 15.658 30.3376 12.4353 27.9617 10.059C27.6646 9.76215 27.4976 9.3594 27.4974 8.93939C27.4973 8.51938 27.664 8.11651 27.9609 7.81941C28.2578 7.52231 28.6605 7.35532 29.0805 7.35517C29.5005 7.35502 29.9034 7.52173 30.2005 7.81862ZM14.7408 12.3691C15.0377 12.666 15.2044 13.0687 15.2044 13.4885C15.2044 13.9084 15.0377 14.311 14.7408 14.608C14.1644 15.1843 13.7072 15.8685 13.3952 16.6216C13.0833 17.3747 12.9227 18.1818 12.9227 18.997C12.9227 19.8121 13.0833 20.6192 13.3952 21.3723C13.7072 22.1254 14.1644 22.8096 14.7408 23.386C14.8921 23.532 15.0127 23.7067 15.0957 23.8999C15.1787 24.0931 15.2223 24.3008 15.2242 24.5111C15.226 24.7213 15.1859 24.9298 15.1063 25.1244C15.0267 25.319 14.9091 25.4957 14.7605 25.6444C14.6118 25.7931 14.435 25.9106 14.2404 25.9903C14.0459 26.0699 13.8374 26.1099 13.6271 26.1081C13.4169 26.1063 13.2091 26.0626 13.016 25.9796C12.8228 25.8966 12.6481 25.776 12.502 25.6248C10.7442 23.867 9.75674 21.4829 9.75674 18.997C9.75674 16.511 10.7442 14.1269 12.502 12.3691C12.7989 12.0723 13.2016 11.9055 13.6214 11.9055C14.0413 11.9055 14.4439 12.0723 14.7408 12.3691ZM25.7593 12.3691C27.517 14.1269 28.5045 16.511 28.5045 18.997C28.5045 21.4829 27.517 23.867 25.7593 25.6248C25.6123 25.7719 25.4377 25.8886 25.2456 25.9683C25.0535 26.0479 24.8476 26.089 24.6396 26.089C24.4316 26.0891 24.2257 26.0482 24.0335 25.9687C23.8414 25.8892 23.6667 25.7726 23.5196 25.6256C23.3725 25.4786 23.2558 25.304 23.1762 25.1119C23.0965 24.9198 23.0555 24.7139 23.0554 24.5059C23.0553 24.298 23.0962 24.092 23.1757 23.8998C23.2553 23.7077 23.3718 23.5331 23.5188 23.386C24.0953 22.8096 24.5525 22.1254 24.8644 21.3723C25.1764 20.6192 25.337 19.8121 25.337 18.997C25.337 18.1818 25.1764 17.3747 24.8644 16.6216C24.5525 15.8685 24.0953 15.1843 23.5188 14.608C23.222 14.3109 23.0553 13.908 23.0554 13.488C23.0555 13.068 23.2225 12.6652 23.5196 12.3683C23.8167 12.0714 24.2196 11.9047 24.6396 11.9049C25.0596 11.905 25.4624 12.072 25.7593 12.3691ZM19.1298 16.755C19.4417 16.755 19.7506 16.8164 20.0387 16.9357C20.3269 17.0551 20.5887 17.23 20.8092 17.4506C21.0298 17.6711 21.2047 17.9329 21.3241 18.2211C21.4434 18.5092 21.5048 18.8181 21.5048 19.13C21.5048 19.4418 21.4434 19.7507 21.3241 20.0388C21.2047 20.327 21.0298 20.5888 20.8092 20.8093C20.5887 21.0299 20.3269 21.2048 20.0387 21.3242C19.7506 21.4435 19.4417 21.505 19.1298 21.505C18.5 21.505 17.8959 21.2547 17.4505 20.8093C17.0051 20.3639 16.7548 19.7598 16.7548 19.13C16.7548 18.5001 17.0051 17.896 17.4505 17.4506C17.8959 17.0052 18.5 16.755 19.1298 16.755Z" fill="#FF0000"/>
</svg>
