<svg width="16" height="18" viewBox="0 0 16 18" fill="none" xmlns="http://www.w3.org/2000/svg">
<path fill-rule="evenodd" clip-rule="evenodd" d="M6.5 2.1819C6.30109 2.1819 6.11032 2.26172 5.96967 2.40379C5.82902 2.54586 5.75 2.73855 5.75 2.93948V3.69705H10.25V2.93948C10.25 2.73855 10.171 2.54586 10.0303 2.40379C9.88968 2.26172 9.69891 2.1819 9.5 2.1819H6.5ZM11.75 3.69705V2.93948C11.75 2.33671 11.5129 1.75863 11.091 1.33241C10.669 0.906195 10.0967 0.666748 9.5 0.666748H6.5C5.90326 0.666748 5.33097 0.906195 4.90901 1.33241C4.48705 1.75863 4.25 2.33671 4.25 2.93948V3.69705H1.25C0.835786 3.69705 0.5 4.03623 0.5 4.45463C0.5 4.87302 0.835786 5.2122 1.25 5.2122H2V15.0607C2 15.6635 2.23705 16.2415 2.65901 16.6677C3.08097 17.094 3.65326 17.3334 4.25 17.3334H11.75C12.3467 17.3334 12.919 17.094 13.341 16.6677C13.7629 16.2415 14 15.6635 14 15.0607V5.2122H14.75C15.1642 5.2122 15.5 4.87302 15.5 4.45463C15.5 4.03623 15.1642 3.69705 14.75 3.69705H11.75ZM3.5 5.2122V15.0607C3.5 15.2616 3.57902 15.4543 3.71967 15.5964C3.86032 15.7384 4.05109 15.8183 4.25 15.8183H11.75C11.9489 15.8183 12.1397 15.7384 12.2803 15.5964C12.421 15.4543 12.5 15.2616 12.5 15.0607V5.2122H3.5ZM6.5 7.48493C6.91421 7.48493 7.25 7.82411 7.25 8.24251V12.788C7.25 13.2064 6.91421 13.5455 6.5 13.5455C6.08579 13.5455 5.75 13.2064 5.75 12.788V8.24251C5.75 7.82411 6.08579 7.48493 6.5 7.48493ZM8.75 8.24251C8.75 7.82411 9.08579 7.48493 9.5 7.48493C9.91421 7.48493 10.25 7.82411 10.25 8.24251V12.788C10.25 13.2064 9.91421 13.5455 9.5 13.5455C9.08579 13.5455 8.75 13.2064 8.75 12.788V8.24251Z" fill="#4E4539"/>
</svg>
