<svg width="35" height="36" viewBox="0 0 35 36" fill="none" xmlns="http://www.w3.org/2000/svg">
<g style="mix-blend-mode:overlay" opacity="0.3">
<path d="M17.7905 22.63C17.7905 22.63 16.9867 22.1661 16.6449 21.4844C16.6449 21.4844 14.8522 23.7431 15.6865 25.2265C16.5208 26.7099 19.0114 25.5969 19.0114 25.5969C18.7669 25.0264 18.6111 24.4218 18.5495 23.8041C18.5495 23.8041 16.3844 25.6599 16.1077 25.1349C15.6966 24.3515 17.7905 22.63 17.7905 22.63Z" fill="white"/>
</g>
<path d="M16.7529 1.26992C15.3732 1.62806 13.3078 4.32223 13.2305 6.31641C13.1206 9.18151 15.3163 12.4068 17.6258 12.2786C19.9354 12.1504 21.9276 8.69314 21.3273 5.84228C20.8206 3.43502 18.1508 0.905678 16.7529 1.26992Z" fill="url(#paint0_linear_218_704)"/>
<g style="mix-blend-mode:multiply" opacity="0.3">
<path d="M17.8665 9.33207C17.8665 9.33207 17.9825 5.05883 17.4249 3.15419C17.1502 2.21611 17.4982 7.13034 16.8389 11.0251C16.1796 14.9198 17.8665 9.33207 17.8665 9.33207Z" fill="#699334"/>
</g>
<g style="mix-blend-mode:multiply" opacity="0.5">
<path d="M20.4991 3.90516C18.8488 5.24208 17.7032 7.58422 17.7032 7.58422C17.1334 4.81272 15.0253 3.77087 14.2337 3.57959C13.6721 4.46069 13.2631 5.45575 13.2305 6.3165C13.1247 9.07172 15.1494 12.1566 17.3593 12.2787L19.5142 11.4078C20.8776 10.1868 21.7526 7.85893 21.3273 5.84237C21.1678 5.15278 20.8874 4.4969 20.4991 3.90516Z" fill="#699334"/>
</g>
<path d="M16.8945 9.45416C16.8945 9.45416 15.9869 4.27337 16.3756 3.96C16.9433 3.48587 18.2558 8.687 18.2558 8.687L16.8945 9.45416Z" fill="#485827"/>
<path d="M17.9834 20.9045C17.9834 20.9045 14.811 16.9243 15.0735 16.5295C15.336 16.1348 17.3261 17.9539 17.3261 17.9539C17.3261 17.9539 15.0288 14.5415 15.161 13.8191C15.3401 12.8322 19.361 17.3638 19.361 17.3638L17.9834 20.9045Z" fill="#485827"/>
<path d="M17.0289 9.4868C17.0289 9.4868 15.3684 3.74845 15.7164 3.25398C16.1763 2.59671 18.8664 8.30656 18.8664 8.30656L17.0289 9.4868Z" fill="#485827"/>
<path d="M14.2848 6.21266C14.0997 6.20045 11.1348 15.3106 19.604 16.4481C19.604 16.442 24.8723 6.82312 14.2848 6.21266Z" fill="url(#paint1_linear_218_704)"/>
<path opacity="0.2" d="M17.6667 11.8756C17.6667 11.8756 14.94 11.2265 15.1679 11.4544C15.3958 11.6823 18.2345 12.9277 18.2345 12.9277L18.9833 14.1242L19.5714 13.7803C19.5714 13.7803 15.1842 6.91055 15.0621 7.10793C14.94 7.30532 17.6667 11.8756 17.6667 11.8756Z" fill="#485827"/>
<path d="M16.9539 12.7772C19.7844 12.415 20.521 13.1699 21.4551 10.4656C23.3617 4.9409 17.6336 1.23132 17.6336 1.23132C17.6336 1.23132 12.7499 4.22461 12.6176 9.03099C12.5484 11.54 15.09 13.0153 16.9539 12.7772Z" fill="url(#paint2_linear_218_704)"/>
<g style="mix-blend-mode:multiply" opacity="0.5">
<path d="M15.2757 9.35649C15.2757 9.35649 14.9217 6.37743 17.744 5.51465C20.5664 4.65186 18.9202 9.08177 18.9202 9.08177L15.2757 9.35649Z" fill="#699334"/>
</g>
<path d="M15.8718 8.17432C15.8718 8.17432 18.3137 2.0697 18.7736 2.51737C19.1256 2.8694 18.7593 5.41909 17.5872 8.63826L15.8718 8.17432Z" fill="#485827"/>
<path d="M15.0581 8.17429C15.0581 7.18941 17.4857 -1.01114 18.2732 0.103972C19.9011 2.39728 19.6508 7.51906 19.3232 8.5019C19.0709 9.26498 15.0581 9.15917 15.0581 8.17429Z" fill="#EE6132"/>
<g style="mix-blend-mode:multiply" opacity="0.4">
<path d="M18.2529 0.108025C18.1206 -0.0812184 17.9395 -0.00185429 17.7299 0.264714C18.1369 1.10715 18.8613 4.65596 18.2488 7.56787C18.1165 8.19868 15.6564 7.99927 15.0581 8.28822C15.343 9.16932 19.0607 9.23444 19.3029 8.50595C19.6305 7.51904 19.8726 2.39726 18.2529 0.108025Z" fill="#AF533E"/>
</g>
<path d="M19.5429 4.41182C18.2142 4.00484 15.0377 5.42925 13.9002 7.43156C13.5463 8.04975 13.2526 8.7005 13.0232 9.37487C13.3105 9.3062 13.6048 9.27071 13.9002 9.26906C16.2037 9.26906 17.911 11.1533 18.0107 13.3795C18.0207 13.5992 18.0091 13.8193 17.9761 14.0368C19.1178 13.4728 20.0942 12.6232 20.8107 11.5705C22.3877 9.17953 20.6804 4.76182 19.5429 4.41182Z" fill="url(#paint3_linear_218_704)"/>
<g style="mix-blend-mode:multiply" opacity="0.5">
<path d="M20.8086 11.5705C22.2554 9.37686 20.9368 5.46582 19.8298 4.57861C20.7903 7.68587 19.4229 9.23238 19.4229 9.23238C17.74 7.08355 14.1464 6.99401 13.9002 7.43151C13.5463 8.0497 13.2526 8.70045 13.0232 9.37481C13.3105 9.30615 13.6048 9.27066 13.9002 9.26901C16.2037 9.26901 17.911 11.1533 18.0107 13.3794C18.0207 13.5991 18.0091 13.8193 17.9761 14.0367C19.117 13.4725 20.0928 12.6229 20.8086 11.5705Z" fill="#699334"/>
</g>
<path d="M1.22095 21.1609C1.22095 21.1609 4.52762 34.2329 4.86541 34.937C5.2032 35.641 29.3083 35.9951 29.7051 35.289C30.1019 34.5829 33.4147 21.0673 33.4147 21.0673L1.22095 21.1609Z" fill="#FF5720"/>
<g style="mix-blend-mode:multiply" opacity="0.5">
<path d="M1.62793 23.2323C2.3381 26.012 3.58955 30.8875 4.27327 33.3884C6.08837 32.3099 8.92295 31.207 11.6314 31.2436C16.6657 31.2721 20.1412 33.2358 22.8374 35.6695C26.5775 35.6471 29.4447 35.5291 29.579 35.289C29.8761 34.7599 31.8295 26.9643 32.7758 23.1469L1.62793 23.2323Z" fill="#C7BAB4"/>
</g>
<path d="M0.610352 22.2169C0.610352 22.2169 7.43532 14.5393 17.8681 14.5393C28.3009 14.5393 33.8134 22.2881 33.8134 22.2881C33.8134 22.2881 27.7088 29.8334 17.2129 29.8334C6.71701 29.8334 0.610352 22.2169 0.610352 22.2169Z" fill="#E1E1D6"/>
<path d="M17.8906 14.1792C7.5677 14.1792 0 20.937 0 22.221C0 23.6271 7.51479 30.3849 17.2049 30.3849C26.9397 30.3849 34.6885 23.5579 34.6885 22.221C34.6885 21.2138 27.7129 14.1792 17.8906 14.1792ZM17.2171 28.9748C8.56682 28.9748 1.61976 23.0736 1.61976 22.2902C1.61976 21.3623 8.51798 14.9647 17.8377 14.9647C26.7037 14.9647 33.0036 21.3155 33.0036 22.2251C33.0036 23.0044 26.2845 28.9748 17.2171 28.9748Z" fill="url(#paint4_linear_218_704)"/>
<path d="M14.1187 18.6987C13.0891 13.0763 14.9327 7.9769 18.799 6.33679C21.0739 8.52428 22.5859 14.8182 16.4894 20.2818C16.4955 20.2818 14.3548 19.9827 14.1187 18.6987Z" fill="#FF9927"/>
<g style="mix-blend-mode:multiply" opacity="0.3">
<path d="M20.7336 10.7321L20.7153 10.5795C20.6827 10.5978 20.0946 10.9193 20.0539 10.9478C18.7088 11.9244 17.5192 13.099 16.5255 14.4315L15.0665 10.0117C13.8944 12.3478 13.5199 15.4347 14.1182 18.6986C14.3542 19.9826 16.4949 20.2817 16.4949 20.2817C20.0946 17.0483 21.0368 13.5239 20.7336 10.7321Z" fill="#AF533E"/>
</g>
<path d="M21.0647 8.451C20.8612 6.52397 19.1377 5.08735 17.2371 5.09549C15.3365 5.10363 13.6394 6.59316 13.4482 8.4103C13.2142 10.6487 15.2999 12.7466 17.5912 12.5533C19.5731 12.3966 21.2743 10.5591 21.0647 8.451ZM17.3348 11.7333C15.6601 11.8208 14.4391 10.376 14.4859 8.74402C14.5409 7.20159 15.7069 5.97659 17.2432 6.01119C17.9851 6.02654 18.692 6.32932 19.215 6.8557C19.738 7.38209 20.0362 8.09097 20.0467 8.83292C20.0573 9.57487 19.7794 10.2919 19.2716 10.833C18.7638 11.374 18.0657 11.6968 17.3246 11.7333H17.3348Z" fill="#C4B2B4"/>
<path d="M21.0627 8.36962C20.8592 6.44259 19.1377 5.00801 17.2351 5.01615C15.3325 5.02429 13.6374 6.51381 13.4482 8.33095C13.2142 10.5693 15.2979 12.6673 17.5912 12.474C19.5711 12.3173 21.2743 10.4696 21.0627 8.36962ZM17.3368 11.6458C15.6621 11.7312 14.4432 10.2885 14.5002 8.65654C14.5531 7.11411 15.7089 5.88911 17.2575 5.92371C17.9992 5.93943 18.706 6.24251 19.2287 6.76907C19.7514 7.29563 20.0493 8.00454 20.0596 8.74642C20.0699 9.48831 19.7917 10.2052 19.2838 10.7461C18.7759 11.2869 18.0779 11.6095 17.3368 11.6458Z" fill="#EFE5E0"/>
<path d="M19.5429 10.4859C18.2142 10.0789 15.0377 11.4932 13.9002 13.5057C13.5467 14.1241 13.253 14.7748 13.0232 15.449C13.3106 15.3808 13.6049 15.346 13.9002 15.3452C16.2037 15.3452 17.9089 17.2275 18.0086 19.4536C18.0184 19.6732 18.0075 19.8933 17.9761 20.1109C19.1174 19.5464 20.0938 18.6969 20.8107 17.6446C22.3856 15.2516 20.6804 10.8318 19.5429 10.4859Z" fill="#699334"/>
<g style="mix-blend-mode:multiply" opacity="0.3">
<path d="M19.5429 10.4859C18.2142 10.0789 15.0377 11.4932 13.9002 13.5057C13.5467 14.1241 13.253 14.7748 13.0232 15.449C13.3106 15.3808 13.6049 15.346 13.9002 15.3452C16.2037 15.3452 17.9089 17.2275 18.0086 19.4536C18.0184 19.6732 18.0075 19.8933 17.9761 20.1109C19.1174 19.5464 20.0938 18.6969 20.8107 17.6446C22.3856 15.2516 20.6804 10.8318 19.5429 10.4859Z" fill="#AF533E"/>
</g>
<path d="M19.5315 11.8066C20.0579 11.8059 20.5793 11.9089 21.0658 12.1097C21.7373 5.41297 17.5394 0.99934 14.8717 0.824341C12.5743 4.59496 12.904 9.28942 16.7234 12.9441C17.4863 12.2302 18.4869 11.8249 19.5315 11.8066Z" fill="#E88F27"/>
<g style="mix-blend-mode:multiply" opacity="0.4">
<path d="M19.2825 4.29578C19.1889 4.40769 19.0932 4.51351 18.9935 4.61118C17.8931 5.6847 16.4223 6.29443 14.8851 6.31437C14.3942 6.31504 13.9053 6.25282 13.4302 6.1292C13.6154 8.71441 14.747 11.1406 16.6086 12.944C17.3715 12.2302 18.3722 11.8248 19.4168 11.8065C19.9432 11.8058 20.4645 11.9088 20.9511 12.1097C21.2705 8.91493 20.483 6.23908 19.2825 4.29578Z" fill="#B25519"/>
</g>
<g style="mix-blend-mode:multiply" opacity="0.2">
<path d="M15.6014 6.18416C14.8561 6.18347 14.1182 6.03547 13.4302 5.7487C13.4265 7.00009 13.6836 8.23853 14.1852 9.38503C15.4183 10.5795 17.1785 11.131 17.0116 10.6304C16.6921 9.67195 16.9709 8.43067 18.4096 8.2577C18.8717 8.19516 19.3418 8.22712 19.7913 8.35164C20.2407 8.47617 20.6603 8.69066 21.0244 8.98212C20.8364 7.45258 20.3526 5.97424 19.6 4.62952C18.4991 5.61443 17.0785 6.16678 15.6014 6.18416Z" fill="#AF533E"/>
</g>
<path d="M19.8991 20.1312C19.6956 19.7894 18.4136 20.5545 17.209 21.4295C17.9761 19.942 19.3456 17.551 18.8206 17.026C18.5499 16.7554 14.6511 21.167 14.6511 21.167L16.7938 23.9873C16.7938 23.9873 20.2023 20.6603 19.8991 20.1312Z" fill="#485827"/>
<path d="M22.6187 9.29347C21.5647 8.41644 16.7542 10.2865 14.4589 13.2432C11.9133 16.5193 10.8409 21.6757 12.1758 22.6768C13.5106 23.678 17.4929 21.4783 20.0507 18.4036C22.6757 15.2617 23.3513 9.908 22.6187 9.29347Z" fill="url(#paint5_linear_218_704)"/>
<path d="M14.0405 19.5268C14.1708 19.3233 18.5763 11.1167 19.9946 11.8248C21.3274 12.4922 19.2885 19.7812 17.9963 21.9768C16.9769 23.7125 14.0405 19.5268 14.0405 19.5268Z" fill="#EE5232"/>
<g style="mix-blend-mode:multiply" opacity="0.3">
<path d="M20.4117 12.7812C20.369 12.2908 20.2388 11.9469 19.9946 11.8248C18.5702 11.1166 14.1708 19.3294 14.0405 19.5268C14.0405 19.5268 15.2269 21.2157 16.3542 22.0012C16.5353 21.6553 16.5475 21.3907 16.6248 20.6826C17.0155 17.0768 19.5856 13.4425 20.4117 12.7812Z" fill="#AF533E"/>
</g>
<path d="M13.1795 19.3437C13.7309 19.3009 13.0574 16.2242 13.7085 14.6635C14.4004 12.9928 15.8492 10.9376 17.6521 12.4536C18.9239 13.5219 19.0765 15.1742 15.2448 17.087C14.5713 17.4248 14.9966 19.6835 16.0588 20.2533C17.9044 21.2402 25.2727 18.4341 24.3835 13.0783C23.4942 7.72249 16.7812 4.97948 13.3789 8.36958C10.3062 11.4219 11.9077 14.9524 11.9077 14.9524C11.9077 14.9524 9.43732 19.948 10.0763 20.2105C10.7152 20.473 11.8324 17.4655 11.8324 17.4655C11.8324 17.4655 12.2882 19.4108 13.1795 19.3437Z" fill="url(#paint6_linear_218_704)"/>
<g style="mix-blend-mode:multiply" opacity="0.3">
<path d="M17.5564 12.1138C17.7072 12.0366 17.8682 11.9812 18.0346 11.949C18.1282 11.9307 17.2206 9.75131 17.8636 6.99609C17.5272 7.06541 17.1986 7.16835 16.8828 7.30336C16.4702 8.93326 16.712 10.6599 17.5564 12.1138Z" fill="#FF8938"/>
</g>
<g style="mix-blend-mode:overlay" opacity="0.5">
<g style="mix-blend-mode:overlay" opacity="0.5">
<path d="M14.1441 15.1661C14.1441 15.1661 12.5407 11.6417 15.6133 8.58329C17.4813 6.72138 20.3485 6.7051 22.7028 7.95858C20.2813 6.47923 17.1863 6.38359 15.2104 8.35335C12.1378 11.4057 13.7392 14.9362 13.7392 14.9362C13.7392 14.9362 11.2689 19.9318 11.9078 20.1943C11.96 20.2099 12.0154 20.2113 12.0683 20.1984C12.1212 20.1855 12.1698 20.1588 12.209 20.121C12.2537 18.9917 14.1441 15.1661 14.1441 15.1661Z" fill="#FFDEBE"/>
</g>
</g>
<g style="mix-blend-mode:multiply" opacity="0.2">
<path d="M19.1092 16.4339C18.9749 16.324 18.8406 16.2121 18.7022 16.092C18.0148 15.4381 17.5181 14.6095 17.2656 13.6949C17.3287 14.1228 17.4427 14.5416 17.6054 14.9423C17.6054 14.9423 15.1351 19.9379 15.774 20.2004C16.413 20.4629 17.5301 17.4554 17.5301 17.4554C17.5301 17.4554 17.988 19.4109 18.8792 19.3438C19.2598 19.3153 19.0603 17.8542 19.1092 16.4339Z" fill="#AF533E"/>
</g>
<g style="mix-blend-mode:multiply" opacity="0.2">
<path d="M22.0829 13.0682C21.8394 11.6089 21.154 10.2594 20.1192 9.2019C20.521 10.0525 20.7446 10.9763 20.7765 11.9164C20.8416 13.3856 20.0724 15.0664 19.0489 16.0879C17.9315 17.1779 16.4382 17.7971 14.8774 17.8176C14.1284 17.8167 13.3869 17.6673 12.696 17.378C12.4233 18.1065 12.867 19.7629 13.7582 20.2391C15.6039 21.23 22.9721 18.4219 22.0829 13.0682Z" fill="#AF533E"/>
</g>
<g style="mix-blend-mode:multiply" opacity="0.3">
<path d="M15.2453 12.4434C15.3466 12.5275 15.4418 12.6186 15.5302 12.7161C16.3441 9.8673 19.0668 8.81933 19.5185 8.73793C19.1935 8.45543 18.8457 8.20021 18.4787 7.97485C18.3119 8.0298 15.5221 9.07776 15.0581 12.299C15.1212 12.3437 15.1843 12.3905 15.2453 12.4434Z" fill="#FF8938"/>
</g>
<g style="mix-blend-mode:multiply" opacity="0.3">
<path d="M14.2645 13.6074C14.3084 13.8313 14.3014 14.0622 14.2441 14.283C15.6686 13.9249 18.4685 14.2606 19.8848 15.9435C20.0566 15.5461 20.1763 15.1282 20.2409 14.7002C19.7444 13.9147 16.7145 12.5066 14.2645 13.6074Z" fill="#FF8938"/>
</g>
<g style="mix-blend-mode:multiply" opacity="0.3">
<path d="M16.0368 15.7278C15.7905 15.9362 15.5315 16.1292 15.2615 16.3057C16.987 16.9975 18.0859 19.5452 18.1836 19.9074C18.5479 19.7649 18.9039 19.6019 19.2498 19.419C18.794 17.2112 16.5618 15.856 16.0368 15.7278Z" fill="#FF8938"/>
</g>
<g style="mix-blend-mode:multiply" opacity="0.5">
<path d="M19.2741 14.4763C18.2669 14.7937 17.577 14.4946 17.1497 14.1426C17.2111 14.4158 17.2955 14.6833 17.402 14.9423C17.402 14.9423 14.9317 19.9379 15.5707 20.2004C16.2096 20.4629 17.3267 17.4554 17.3267 17.4554C17.3267 17.4554 17.7846 19.4109 18.6759 19.3437C19.2273 19.301 18.5538 16.2243 19.2049 14.6635C19.2233 14.5943 19.2477 14.5353 19.2741 14.4763Z" fill="#FF8938"/>
</g>
<g style="mix-blend-mode:multiply" opacity="0.2">
<path d="M18.4032 14.4763C17.396 14.7937 16.7061 14.4946 16.2788 14.1426C16.3402 14.4158 16.4246 14.6833 16.5311 14.9423C17.7175 15.3696 17.9739 17.7565 17.866 19.3112C18.2974 19.0283 17.7093 16.1469 18.332 14.6452C18.3523 14.5943 18.3768 14.5353 18.4032 14.4763Z" fill="#972614"/>
</g>
<g style="mix-blend-mode:overlay" opacity="0.5">
<path d="M17.6568 14.639C16.9181 14.2972 15.976 14.8527 16.3728 15.805C16.4377 15.9442 16.5324 16.0675 16.65 16.1662C16.7677 16.265 16.9055 16.3367 17.0539 16.3765C17.2023 16.4162 17.3575 16.423 17.5088 16.3964C17.6601 16.3697 17.8036 16.3103 17.9295 16.2222C18.0226 16.1474 18.0998 16.0548 18.1567 15.9498C18.2136 15.8449 18.2489 15.7296 18.2607 15.6108C18.2724 15.4919 18.2603 15.372 18.2251 15.2579C18.1899 15.1438 18.1323 15.0379 18.0556 14.9463C17.948 14.8147 17.8115 14.7096 17.6568 14.639Z" fill="#FFDEBE"/>
</g>
<g style="mix-blend-mode:overlay" opacity="0.5">
<path d="M18.2824 11.3466C18.1998 11.1194 18.0319 10.9333 17.8144 10.8277C17.0777 10.4696 16.0379 11.2734 16.3289 12.0792C16.7196 13.1577 18.7016 12.5045 18.2824 11.3466Z" fill="#FFDEBE"/>
</g>
<g style="mix-blend-mode:overlay" opacity="0.5">
<path d="M18.1937 9.65773C17.6442 8.95162 15.9227 10.3252 16.6655 11.0679C17.0175 11.4199 18.5111 10.0789 18.1937 9.65773Z" fill="#FFDEBE"/>
</g>
<g style="mix-blend-mode:overlay" opacity="0.5">
<path d="M17.9402 7.97697C17.3501 7.30546 15.9053 8.53452 16.7315 9.18365C17.6878 9.93858 18.4041 8.504 17.9402 7.97697Z" fill="#FFDEBE"/>
</g>
<path d="M16.7049 9.48278C16.479 8.57523 17.4252 7.7043 18.2697 7.50895C19.1142 7.3136 21.8816 8.01156 22.254 10.3578C22.6264 12.704 21.3892 14.7734 21.7453 14.8345C22.1014 14.8955 22.9133 12.9197 22.9133 12.9197C22.9133 12.9197 23.1412 13.9005 23.5624 13.9371C23.9836 13.9738 23.4953 11.1371 23.4953 11.1371C23.4953 11.1371 24.9197 6.18221 20.6281 3.78106C16.3366 1.37991 10.8038 4.8921 10.993 9.44208C11.1497 13.2005 14.0453 15.6525 17.0346 15.5101C19.5476 15.388 21.552 13.5383 21.6822 12.9278C21.8124 12.3174 20.6383 10.0505 20.2842 9.99557C19.9302 9.94063 17.1729 11.361 16.7049 9.48278Z" fill="url(#paint7_linear_218_704)"/>
<g style="mix-blend-mode:multiply" opacity="0.2">
<path d="M21.8157 10.6223C21.3721 11.3264 19.9111 13.5973 16.9911 13.4345C14.6815 13.3063 12.8277 11.8677 12.0056 9.729C12.2946 13.3206 15.121 15.6444 18.0268 15.506C20.5399 15.388 22.5442 13.5383 22.6745 12.9278C22.762 12.5208 22.2614 11.3549 21.8157 10.6223Z" fill="#AF533E"/>
</g>
<g style="mix-blend-mode:multiply" opacity="0.2">
<path d="M16.7858 3.7708C16.1858 3.4336 15.5328 3.20102 14.8547 3.08301C17.0687 3.69347 19.8829 6.01526 19.2948 10.6995L19.7262 10.8155C19.948 9.70042 20.4323 5.81585 16.7858 3.7708Z" fill="#A45B6C"/>
</g>
<g style="mix-blend-mode:multiply" opacity="0.3">
<path d="M16.2788 8.87634C16.4036 9.02351 16.5139 9.18227 16.6085 9.35046C17.2606 9.21214 17.8708 8.92137 18.389 8.50192C18.359 8.19236 18.3087 7.8851 18.2384 7.58215C17.7378 8.20915 17.052 8.66208 16.2788 8.87634Z" fill="#FF8938"/>
</g>
<g style="mix-blend-mode:multiply" opacity="0.3">
<path d="M16.0754 7.66357C16.2571 7.7205 16.4352 7.78845 16.6086 7.86706C17.3778 7.31561 18.4868 5.98888 18.3301 4.72929C18.0923 4.50205 17.8364 4.29448 17.565 4.10864C17.7074 4.97346 16.9871 6.93509 16.0754 7.66357Z" fill="#FF8938"/>
</g>
<g style="mix-blend-mode:multiply" opacity="0.3">
<path d="M17.509 10.4248C17.2009 10.4749 16.8863 10.4673 16.5811 10.4025C16.4101 10.7504 15.7325 13.4161 17.222 15.3208C17.5945 15.2222 17.9574 15.0908 18.3066 14.928C16.9168 12.9277 17.3441 10.8135 17.509 10.4248Z" fill="#FF8938"/>
</g>
<g style="mix-blend-mode:multiply" opacity="0.3">
<path d="M15.4651 3.37609C15.6157 3.4351 17.9741 4.46067 18.086 7.56792C18.1527 7.54453 18.2206 7.52484 18.2895 7.50891C18.491 7.47233 18.697 7.46752 18.9 7.49467C19.2133 4.9348 18.027 3.36998 17.3657 3.00574C16.7176 3.03692 16.0774 3.16166 15.4651 3.37609Z" fill="#FF8938"/>
</g>
<g style="mix-blend-mode:multiply" opacity="0.3">
<path d="M14.2441 7.84052C14.7092 7.63833 15.197 7.49347 15.697 7.40913C17.2273 7.15273 18.7168 7.68994 19.8685 8.68093C19.9588 8.48798 20.0813 8.31182 20.2307 8.16C19.2764 6.38559 17.0787 5.76699 15.0255 6.0885C14.6708 6.62573 14.4068 7.21763 14.2441 7.84052Z" fill="#FF8938"/>
</g>
<g style="mix-blend-mode:multiply" opacity="0.3">
<path d="M19.4536 9.48268C19.4526 9.46845 19.4526 9.45417 19.4536 9.43994C18.2591 9.62511 17.0911 10.0891 16.2161 10.9091C15.6167 11.4714 15.1515 12.1613 14.8547 12.9277C15.1021 13.2967 15.3886 13.6378 15.7094 13.9452C15.7297 13.8556 15.7501 13.7661 15.7765 13.6766C16.025 12.8489 16.4802 12.0982 17.0992 11.4952C17.8228 10.7832 18.7189 10.2713 19.6998 10.0097C19.5802 9.85409 19.4962 9.67421 19.4536 9.48268Z" fill="#FF8938"/>
</g>
<g style="mix-blend-mode:overlay" opacity="0.7">
<path d="M18.2344 8.52429C18.4094 7.56179 17.8844 6.4243 17.2719 6.55657C16.8059 6.65628 16.0347 7.88126 16.3541 8.69928C16.869 10.022 18.0085 9.76556 18.2344 8.52429Z" fill="#FFDEBE"/>
</g>
<g style="mix-blend-mode:overlay" opacity="0.7">
<path d="M18.1604 4.54198C18.1351 4.49927 18.1058 4.45907 18.0729 4.42192C17.4279 3.6385 15.9648 4.34867 16.3392 5.28675C16.6994 6.16174 18.659 5.50651 18.1604 4.54198Z" fill="#FFDEBE"/>
</g>
<path d="M16.2788 18.4483C16.2788 18.4483 17.3227 12.4576 18.1102 12.5695C18.5172 12.6286 18.3605 17.8195 18.098 19.0018C17.8355 20.184 16.2788 18.4483 16.2788 18.4483Z" fill="#485827"/>
<path d="M19.8117 20.1047C18.7455 19.5349 18.3202 17.2742 18.9978 16.9384C20.1617 16.3564 20.9553 15.8009 21.4641 15.2759C20.4364 12.8076 17.9803 10.8785 17.9803 10.8785C17.9803 10.8785 11.3589 14.521 12.301 19.3294C12.7792 21.7936 17.199 24.7299 19.0303 24.2721C21.3949 23.682 22.1885 22.2372 22.4021 20.0558C21.3053 20.359 20.3347 20.3855 19.8117 20.1047Z" fill="url(#paint8_linear_218_704)"/>
<path opacity="0.2" d="M17.4836 17.2763C17.4836 17.2763 15.8557 14.9992 15.8719 15.3208C15.8882 15.6423 17.219 18.4463 17.219 18.4463L17.0013 19.8463L17.6708 19.9704C17.6708 19.9704 18.8551 11.9062 18.6333 11.9754C18.4115 12.0446 17.4836 17.2763 17.4836 17.2763Z" fill="#485827"/>
<path d="M19.2883 20.0173C18.6555 18.0149 16.3968 16.9772 15.5584 16.6495C15.251 17.5083 15.1807 18.4341 15.3549 19.3295C15.4791 19.9603 15.8636 20.6216 16.3927 21.2504C18.0003 21.3928 19.6872 21.2707 19.2883 20.0173Z" fill="#699334"/>
<g style="mix-blend-mode:multiply" opacity="0.8">
<path d="M18.6903 20.1047C17.624 19.5349 17.1988 17.2742 17.8764 16.9384C19.0403 16.3565 19.8339 15.8009 20.3426 15.2759C20.2857 15.1355 20.2206 14.9951 20.1534 14.869C19.0301 14.5678 17.2598 14.462 15.8557 16.1143C13.6174 18.7352 16.4011 22.8294 16.4011 22.8294C16.4011 22.8294 15.0703 22.6564 13.4302 22.4387C14.9563 23.6861 16.865 24.5448 17.9069 24.2823C20.2714 23.6922 21.065 22.2474 21.2787 20.066C20.1839 20.3591 19.2133 20.3855 18.6903 20.1047Z" fill="#699334"/>
</g>
<path d="M17.0704 15.276C17.6198 14.4295 19.1052 10.8848 18.8407 10.6976C18.6372 10.547 17.0093 12.6673 17.0093 12.6673C17.0093 12.6673 17.7805 9.20804 17.4163 9.1531C16.934 9.08391 16.1079 12.6368 15.8718 13.2228C16.3364 13.8671 16.7377 14.5547 17.0704 15.276Z" fill="#485827"/>
<path d="M13.7136 19.5025C13.6912 19.3804 13.8398 19.2522 13.8276 19.124C13.6241 17.1257 15.1238 15.6097 17.122 15.5853C19.0307 15.5609 20.4735 17.1746 20.5345 19.0446C20.5549 19.6917 20.1784 20.2513 19.8772 20.7946C20.1947 21.049 20.8743 21.2199 21.147 21.4946C21.663 20.6862 21.9219 19.7406 21.8897 18.7821C21.8307 16.265 19.6107 14.224 17.0773 14.3196C14.5988 14.4132 12.5761 16.5275 12.6168 18.9571C12.6224 19.3008 12.6702 19.6425 12.7593 19.9745C13.0657 19.7947 13.3847 19.6369 13.7136 19.5025Z" fill="#C4B2B4"/>
<path d="M13.7095 19.1788C13.6866 19.0551 13.6709 18.9301 13.6627 18.8044C13.5244 16.8306 15.1197 15.2861 17.122 15.2617C19.0307 15.2373 20.4735 16.851 20.5345 18.721C20.5549 19.3681 20.1784 19.9277 19.8772 20.471C20.1947 20.7254 20.8743 20.8963 21.147 21.171C21.6638 20.363 21.9228 19.4171 21.8897 18.4585C21.8307 15.9414 19.6107 13.9004 17.0793 13.996C14.5988 14.0896 12.5761 16.2039 12.6168 18.6335C12.6225 18.9805 12.6704 19.3256 12.7593 19.6611C13.0641 19.4779 13.3817 19.3167 13.7095 19.1788Z" fill="#EFE5E0"/>
<path d="M10.1743 23.8163C10.1743 23.8163 12.6731 18.8614 17.2089 18.6864C21.7446 18.5114 24.6097 24.0788 24.6097 24.0788C24.6097 24.0788 16.6696 27.0966 10.1743 23.8163Z" fill="url(#paint9_linear_218_704)"/>
<g style="mix-blend-mode:multiply" opacity="0.2">
<path d="M20.5664 24.9172C20.8818 23.4623 21.0853 19.9379 19.9152 19.9379C18.2181 19.9379 17.4245 22.862 17.4245 22.862C16.3053 20.8759 13.6335 21.3826 13.6335 21.3826L14.2827 24.9213C14.2827 24.9213 16.2484 25.1085 17.9454 25.2774C18.825 25.2054 19.7 25.0851 20.5664 24.9172Z" fill="#AF533E"/>
</g>
<path d="M21.2957 13.8658C21.0922 11.831 19.2608 10.3109 17.2503 10.3211C15.2399 10.3313 13.4451 11.9103 13.2457 13.8251C12.9975 16.1937 15.2012 18.4077 17.6248 18.2042C19.7186 18.0292 21.5195 16.0859 21.2957 13.8658ZM17.3582 17.3251C15.5858 17.4147 14.3059 15.8885 14.3568 14.1629C14.4137 12.535 15.6367 11.2388 17.2727 11.2755C18.0531 11.2977 18.7948 11.6205 19.3428 12.1765C19.8909 12.7325 20.203 13.4787 20.214 14.2593C20.2251 15.04 19.9341 15.7947 19.402 16.366C18.8699 16.9372 18.1376 17.2808 17.3582 17.3251Z" fill="#C4B2B4"/>
<path d="M21.2974 13.5973C21.0939 11.5624 19.2625 10.0444 17.25 10.0525C15.2376 10.0607 13.4469 11.6336 13.2454 13.5566C12.9992 15.9252 15.203 18.1411 17.6265 17.9356C19.7183 17.7606 21.5192 15.8173 21.2974 13.5973ZM17.3579 17.0566C15.5876 17.1481 14.3056 15.6322 14.3585 13.8964C14.4155 12.2685 15.6364 10.9703 17.2724 11.0069C18.0528 11.0291 18.7945 11.3519 19.3425 11.9079C19.8906 12.4639 20.2027 13.2101 20.2137 13.9908C20.2248 14.7714 19.9338 15.5261 19.4017 16.0974C18.8696 16.6686 18.1373 17.0123 17.3579 17.0566Z" fill="#EFE5E0"/>
<g style="mix-blend-mode:overlay" opacity="0.5">
<g style="mix-blend-mode:overlay" opacity="0.5">
<path d="M13.9452 13.7417C14.1487 11.8187 15.913 10.2458 17.9499 10.2376C18.7089 10.2376 19.453 10.449 20.0987 10.8481C19.3909 10.3282 18.5351 10.0486 17.6569 10.0504C15.622 10.0504 13.8537 11.6315 13.6522 13.5545C13.4935 15.0888 14.3624 16.5579 15.6525 17.3475C14.5272 16.5274 13.7967 15.1661 13.9452 13.7417Z" fill="#EFE5E0"/>
</g>
<g style="mix-blend-mode:overlay" opacity="0.5">
<path d="M20.632 13.6338C20.6803 14.0477 20.6441 14.4671 20.5255 14.8666C20.4069 15.266 20.2083 15.6372 19.9419 15.9577C19.6755 16.2781 19.3468 16.5411 18.9757 16.7307C18.6046 16.9202 18.1989 17.0325 17.7832 17.0605C17.2529 17.091 16.7252 16.9658 16.2651 16.7003C16.7817 17.0936 17.4219 17.2892 18.0701 17.2518C18.4857 17.2235 18.8913 17.1111 19.2623 16.9214C19.6332 16.7317 19.9618 16.4687 20.2281 16.1484C20.4945 15.828 20.693 15.4569 20.8118 15.0575C20.9305 14.6582 20.9669 14.2389 20.9189 13.8251C20.854 13.3729 20.6886 12.9412 20.4346 12.5615C20.1807 12.1819 19.8448 11.864 19.4517 11.6315C19.7706 11.8711 20.039 12.1714 20.2415 12.515C20.444 12.8586 20.5767 13.2388 20.632 13.6338Z" fill="#EFE5E0"/>
</g>
</g>
<path d="M16.4718 15.4571C16.4718 15.4571 15.6192 12.6368 15.9468 12.3743C16.2744 12.1118 18.5718 16.387 18.5718 16.387L18.1139 17.6995L16.4718 15.4571Z" fill="#485827"/>
<path d="M14.0209 22.3858C14.7392 23.4154 17.5067 25.8797 21.6721 27.4852C22.9052 26.3762 22.6895 21.6939 20.9843 18.2652C19.1529 14.6024 13.6709 12.0568 12.8631 12.5675C11.8986 13.178 11.864 18.5826 13.6974 21.8445C13.7991 22.0297 13.909 22.2087 14.0209 22.3858Z" fill="url(#paint10_linear_218_704)"/>
<g style="mix-blend-mode:multiply" opacity="0.2">
<path d="M16.4614 15.502C16.1114 16.1124 14.9495 18.481 15.7289 22.3778C16.6384 26.9257 19.0376 23.7005 19.0376 23.5356C19.0376 23.4156 19.0376 19.7243 18.0791 17.2926C17.6077 16.6378 17.0652 16.0372 16.4614 15.502Z" fill="#AF533E"/>
</g>
<path d="M20.4578 26.6773C20.1444 20.6419 15.2892 17.2294 14.3531 17.8093C13.9767 18.0454 14.6278 20.6276 15.5028 23.3381C16.9805 24.6898 18.6502 25.8151 20.4578 26.6773Z" fill="#EE6132"/>
<path opacity="0.7" d="M15.0581 18.4972C15.1517 19.4841 15.6686 21.3786 16.3014 23.3382C17.3077 24.2693 18.4123 25.088 19.5959 25.78C19.0851 20.9553 16.0694 19.0161 15.0581 18.4972Z" fill="#FF7F27"/>
<g style="mix-blend-mode:multiply" opacity="0.4">
<path d="M17.907 20.9513C17.6053 21.5455 17.1747 22.0649 16.6466 22.4716C16.1186 22.8782 15.5064 23.1617 14.8547 23.3016L14.8669 23.3382C16.3433 24.6896 18.0117 25.8149 19.8178 26.6774C19.7125 24.6306 19.052 22.6511 17.907 20.9513Z" fill="#AF533E"/>
</g>
<path d="M15.9992 20.642C15.5169 20.8455 16.5425 24.1929 16.7887 25.2245C17.3259 25.5807 17.9201 25.9388 18.5672 26.2868C18.209 24.7097 16.7866 20.3144 15.9992 20.642Z" fill="#485827"/>
<path d="M21.6083 23.7797C21.3906 21.6105 19.4391 19.9928 17.2985 20.003C15.1578 20.0132 13.2653 21.6878 13.0415 23.7349C13.0171 23.9765 13.0171 24.2198 13.0415 24.4614C13.3874 24.7157 13.77 24.9803 14.1892 25.2489C14.0656 24.8898 14.0091 24.5112 14.0223 24.1317C14.0408 23.5363 14.2234 22.9575 14.5499 22.4592C14.8763 21.9609 15.334 21.5624 15.8725 21.3076C16.411 21.0529 17.0094 20.9517 17.6017 21.0154C18.1941 21.079 18.7573 21.3049 19.2294 21.6682C19.7015 22.0315 20.0642 22.5182 20.2774 23.0744C20.4906 23.6307 20.546 24.235 20.4377 24.8208C20.3293 25.4066 20.0613 25.9511 19.6632 26.3943C19.2652 26.8375 18.7524 27.1622 18.1816 27.3326C18.6008 27.5062 19.0335 27.6711 19.4798 27.8271C20.8432 27.0212 21.7854 25.4768 21.6083 23.7797Z" fill="#EFE5E0"/>
<g style="mix-blend-mode:overlay" opacity="0.7">
<g style="mix-blend-mode:overlay" opacity="0.7">
<path d="M13.6744 24.028C13.8778 21.9809 15.7703 20.3062 17.9476 20.2961C18.575 20.2975 19.1949 20.4326 19.7661 20.6922C20.3373 20.9519 20.8467 21.3301 21.2604 21.8019C20.8513 21.2448 20.317 20.7917 19.7005 20.4792C19.084 20.1668 18.4027 20.0036 17.7115 20.0031C15.5444 20.0132 13.6621 21.6879 13.4485 23.735C13.4241 23.9765 13.4241 24.2199 13.4485 24.4615C13.5217 24.5164 13.597 24.5713 13.6744 24.6242C13.6582 24.4258 13.6582 24.2264 13.6744 24.028Z" fill="#EFE5E0"/>
</g>
</g>
<path d="M15.7933 17.4269C15.6631 16.3769 14.2875 9.6089 14.7433 9.28739C15.4006 8.82954 19.686 11.89 20.034 18.365C20.1887 21.2138 19.2689 20.64 19.2689 20.64L15.7933 17.4269Z" fill="#EE5232"/>
<path opacity="0.5" d="M16.2788 9.85718C16.2971 10.8095 16.6125 12.7671 16.9096 14.4723C17.5425 14.5476 18.3808 14.5516 18.3808 14.5516C18.214 12.6287 16.6105 10.0179 16.2788 9.85718Z" fill="#FF7F27"/>
<g style="mix-blend-mode:multiply" opacity="0.5">
<path d="M19.5999 18.367C19.427 15.1519 18.2813 12.7792 17.093 11.2612C17.1474 11.5116 17.1801 11.7663 17.1907 12.0223C17.2598 13.5484 16.338 14.922 15.0581 15.6688C15.2067 16.497 15.3226 17.1542 15.3572 17.4269L18.8348 20.642C18.8348 20.642 19.7546 21.2118 19.5999 18.367Z" fill="#AF533E"/>
</g>
<path d="M16.1396 13.4222C13.9175 13.8292 12.9876 17.6405 13.0242 19.7303C13.0771 22.7419 15.5719 25.9957 17.9873 25.7271C20.4027 25.4585 22.2117 21.7306 21.4913 18.7536C20.9297 16.4318 18.4736 12.9847 16.1396 13.4222Z" fill="url(#paint11_linear_218_704)"/>
<g style="mix-blend-mode:overlay" opacity="0.2">
<path d="M16.7743 19.8687C16.7356 19.6795 18.1702 20.1719 18.7908 20.296C18.6911 18.3975 17.8649 14.5618 17.2931 14.8833C16.29 15.449 15.5655 19.417 16.001 20.8394C16.2493 21.6533 18.1966 21.6676 18.6606 21.285C18.394 21.1568 16.8495 20.2411 16.7743 19.8687Z" fill="white"/>
</g>
<g style="mix-blend-mode:multiply" opacity="0.3">
<path d="M17.7922 25.4342C17.5195 20.6828 15.9384 14.1467 16.3454 14.804C17.9122 17.3517 18.3802 24.8766 18.4616 25.3467C18.6712 26.5839 17.9244 27.7499 17.7922 25.4342Z" fill="#699334"/>
</g>
<g style="mix-blend-mode:multiply" opacity="0.5">
<path d="M21.0467 18.7536C20.9272 18.2801 20.7616 17.8193 20.5522 17.3781C20.2938 23.0228 16.2424 23.5539 13.4302 22.8112C14.3744 24.5835 15.9799 25.9021 17.5528 25.7271C19.956 25.4585 21.7671 21.7306 21.0467 18.7536Z" fill="#699334"/>
</g>
<path d="M16.0327 14.9443C16.6025 15.164 17.3025 13.064 17.3025 13.064C17.3025 13.064 18.3443 15.1478 18.8144 14.9402C19.144 14.7937 17.8091 11.133 17.8091 11.133C17.8768 10.874 17.9278 10.6109 17.9618 10.3455C17.7616 10.484 17.5285 10.5673 17.2859 10.5869C17.0434 10.6066 16.7999 10.5619 16.5801 10.4574C16.9036 12.7629 15.3897 14.6981 16.0327 14.9443Z" fill="#FFB981"/>
<path d="M20.3577 28.9035C21.4959 28.1543 22.3998 27.0994 22.9656 25.8598C23.5314 24.6202 23.7362 23.2461 23.5565 21.8954C22.7914 15.742 12.8572 15.9332 12.3993 16.621C11.9415 17.3088 14.4912 17.5652 14.4912 17.5652C14.4912 17.5652 11.2476 18.3608 11.5894 19.3966C11.7929 20.007 15.3011 18.2489 15.3011 18.2489C20.4289 19.4698 18.6667 24.3535 16.522 24.5041C15.4537 24.5815 14.7659 23.855 14.3447 23.1102C13.9234 22.3655 13.7505 22.0663 13.2051 21.9056C12.5947 21.7245 11.8011 22.1091 11.2985 22.8783C10.7511 23.7065 10.688 24.8948 10.8915 25.9143C13.7857 27.6014 17.0195 28.6226 20.3577 28.9035Z" fill="url(#paint12_linear_218_704)"/>
<g style="mix-blend-mode:multiply" opacity="0.5">
<path d="M14.8756 16.6211C14.4158 17.3069 16.9675 17.5653 16.9675 17.5653C16.9675 17.5653 13.7239 18.3609 14.0658 19.3967C14.2693 20.0071 17.7774 18.251 17.7774 18.251C18.1665 18.3401 18.5466 18.4647 18.9128 18.6234C18.8416 18.0129 19.0451 17.1542 20.5631 16.7595C17.8527 16.0452 15.1117 16.267 14.8756 16.6211Z" fill="#FF8938"/>
</g>
<g style="mix-blend-mode:multiply" opacity="0.3">
<path d="M18.1023 17.5938C17.874 17.6384 17.6484 17.6961 17.4267 17.7667C16.7579 17.9618 16.1667 18.3609 15.7357 18.9083C15.6175 19.0659 15.5261 19.2419 15.4651 19.4292C15.6152 19.5713 15.7514 19.7273 15.8721 19.8952C16.0288 19.5281 16.2642 19.1999 16.5616 18.9337C16.8591 18.6675 17.2114 18.4699 17.5936 18.3548C18.0377 18.2043 18.5024 18.1233 18.9712 18.1147C18.6935 17.9218 18.4032 17.7478 18.1023 17.5938Z" fill="#FF8938"/>
</g>
<g style="mix-blend-mode:multiply" opacity="0.3">
<path d="M19.2723 22.2658C18.4517 21.662 17.438 21.3803 16.4235 21.4743C15.8704 21.5184 15.3343 21.6859 14.8546 21.9647C14.8228 22.2497 14.7544 22.5294 14.6511 22.7969C15.0492 22.6063 15.464 22.4531 15.8904 22.3391C16.3862 22.2341 16.8992 22.241 17.392 22.3593C17.8848 22.4775 18.345 22.7042 18.7392 23.0228C19.1559 23.3589 19.4906 23.7855 19.718 24.2702C19.8135 23.7898 19.8591 23.3009 19.8543 22.8112C19.6771 22.6122 19.4824 22.4297 19.2723 22.2658Z" fill="#FF8938"/>
</g>
<g style="mix-blend-mode:overlay" opacity="0.7">
<path d="M17.9339 23.3728C16.8391 22.6484 15.838 24.6222 16.481 25.2673C17.4394 26.2257 19.2647 24.2559 17.9339 23.3728Z" fill="#FFDEBE"/>
</g>
<g style="mix-blend-mode:overlay" opacity="0.5">
<path d="M17.7197 25.0718C17.5834 24.978 17.4232 24.9251 17.2578 24.9192C16.273 24.8887 16.275 26.2398 16.9892 26.6C17.8276 27.0253 18.8979 25.8532 17.7197 25.0718Z" fill="#FFDEBE"/>
</g>
<g style="mix-blend-mode:overlay" opacity="0.4">
<path d="M17.5362 22.9169C16.6754 22.9169 16.4007 23.8183 17.0275 24.1703C17.7722 24.5895 18.3664 22.9169 17.5362 22.9169Z" fill="#FFDEBE"/>
</g>
<g style="mix-blend-mode:overlay" opacity="0.4">
<path d="M17.8845 19.9724C17.8605 19.8614 17.8107 19.7577 17.7393 19.6694C17.6679 19.5812 17.5768 19.5109 17.4734 19.4642C17.3699 19.4175 17.2569 19.3957 17.1435 19.4006C17.0301 19.4054 16.9194 19.4368 16.8203 19.4922C16.1793 19.8564 16.5212 20.9674 17.2537 20.9573C17.8011 20.9512 18.0392 20.4913 17.8845 19.9724Z" fill="#FFDEBE"/>
</g>
<g style="mix-blend-mode:multiply" opacity="0.2">
<path d="M18.5701 16.7493C17.7031 16.5272 16.8176 16.3849 15.9247 16.324C16.1097 16.5978 16.2069 16.9215 16.2035 17.2519C16.1967 17.6165 16.0812 17.9708 15.8718 18.2693C16.2289 18.3567 16.5781 18.4738 16.9157 18.6193C16.8486 18.0149 17.0521 17.144 18.5701 16.7493Z" fill="#972614"/>
</g>
<g style="mix-blend-mode:multiply" opacity="0.3">
<path d="M17.3898 25.9001C17.7975 26.7914 17.9073 27.7903 17.7032 28.7489C18.0145 28.7936 18.332 28.8323 18.6535 28.8649C18.9038 27.5259 18.4927 25.9204 17.7643 25.0454C17.4158 24.6121 16.9823 24.2547 16.4904 23.9954C16.4518 23.9751 16.4111 23.9588 16.3724 23.9425C16.2228 24.0849 16.0544 24.2061 15.8718 24.3027C16.4538 24.6242 17.1538 25.3506 17.3898 25.9001Z" fill="#FF8938"/>
</g>
<g style="mix-blend-mode:multiply" opacity="0.3">
<path d="M17.0868 27.4914C17.5128 27.0768 17.8481 26.5782 18.0712 26.0271C18.2944 25.4761 18.4005 24.8847 18.383 24.2905C18.1776 24.1838 17.9896 24.0466 17.8254 23.8835C17.773 24.2438 17.6962 24.6 17.5955 24.9498C17.3401 25.7373 16.8615 26.4336 16.2179 26.9542C16.1711 26.9949 16.1243 27.0335 16.0754 27.0702C16.4031 27.2167 16.7388 27.3571 17.0868 27.4914Z" fill="#FF8938"/>
</g>
<g style="mix-blend-mode:multiply" opacity="0.2">
<path d="M20.8553 21.8954C20.4076 18.3059 16.8425 16.8754 13.8553 16.444C16.7042 17.1399 19.1704 19.0893 19.1623 22.3878C19.1215 23.9209 18.5156 25.3848 17.4611 26.4983C16.4285 27.5014 15.0705 28.1013 13.6335 28.1893C14.9493 28.5519 16.2962 28.7903 17.6565 28.9015C18.7943 28.1524 19.698 27.0978 20.2638 25.8586C20.8296 24.6194 21.0346 23.2458 20.8553 21.8954Z" fill="#AF533E"/>
</g>
<g style="mix-blend-mode:multiply" opacity="0.3">
<path d="M18.0643 22.6422C15.2032 24.0137 14.5765 27.6582 14.6579 28.6634C15.2683 28.7692 15.9032 28.8506 16.5503 28.9035C17.5383 28.2518 18.3517 27.368 18.9192 26.3294C19.4868 25.2908 19.7913 24.1289 19.8061 22.9454C19.4561 22.396 18.9169 22.2312 18.0643 22.6422Z" fill="#A45B6C"/>
</g>
<path d="M21.5161 28.1689C21.5459 27.8306 21.5547 27.4908 21.5426 27.1515C21.5181 24.5061 19.2432 21.1751 17.2307 21.2626C15.4807 21.3378 13.3868 24.791 13.0836 26.7567C12.9861 27.4395 13.0068 28.1341 13.1446 28.8099C13.9953 28.9229 14.8525 28.98 15.7106 28.9808C17.6736 28.9736 19.6265 28.7005 21.5161 28.1689Z" fill="url(#paint13_linear_218_704)"/>
<g style="mix-blend-mode:overlay" opacity="0.2">
<path d="M15.937 26.8789C15.6664 26.5594 16.2076 23.8449 18.1469 22.6809C18.5396 22.4469 19.0951 27.0905 18.8509 27.528C18.6067 27.9655 16.4701 27.5117 15.937 26.8789Z" fill="white"/>
</g>
<g style="mix-blend-mode:multiply" opacity="0.5">
<g style="mix-blend-mode:multiply" opacity="0.5">
<path d="M21.5424 27.1434C21.493 25.9782 21.1553 24.8435 20.5596 23.8408C20.1099 29.5385 14.6035 28.4335 13.055 26.9745C12.9923 27.586 13.0225 28.2035 13.1445 28.8059C13.9952 28.9189 14.8524 28.976 15.7105 28.9768C17.6735 28.969 19.6265 28.6952 21.516 28.1629C21.5459 27.8239 21.5547 27.4835 21.5424 27.1434Z" fill="#699334"/>
</g>
</g>
<path d="M16.0312 20.4669C15.2681 20.8495 15.1501 26.2175 15.3434 28.5433C16.7184 28.2629 18.0654 27.8597 19.3684 27.3387C19.0896 24.323 16.6559 20.1556 16.0312 20.4669Z" fill="#EE5232"/>
<g style="mix-blend-mode:multiply" opacity="0.3">
<path d="M16.8569 24.8521C16.9099 25.9916 16.5436 27.2329 15.9494 28.3114C16.9619 28.055 17.9564 27.7321 18.9264 27.3448C18.6476 24.325 16.2139 20.1617 15.5892 20.473C15.5398 20.5012 15.4974 20.5402 15.4651 20.587C16.3726 21.7977 16.7898 23.3483 16.8569 24.8521Z" fill="#AF533E"/>
</g>
<g style="mix-blend-mode:multiply" opacity="0.4">
<path d="M18.324 24.0504C18.1652 25.721 16.8466 27.1333 15.2615 27.6155C15.2757 27.9574 15.294 28.2707 15.3164 28.5434C16.6914 28.263 18.0384 27.8598 19.3414 27.3388C19.2295 26.4658 18.8225 25.2306 18.324 24.0504Z" fill="#AF533E"/>
</g>
<path d="M15.3993 17.7382C15.3993 17.7382 12.4244 23.2995 13.7877 27.7945C16.3967 26.9288 18.8354 25.6164 20.9953 23.916C20.2749 20.1068 15.3993 17.7382 15.3993 17.7382Z" fill="url(#paint14_linear_218_704)"/>
<g style="mix-blend-mode:multiply" opacity="0.2">
<path d="M19.5204 20.9126C19.1542 25.3079 15.1251 26.9094 13.6335 26.9948C13.6871 27.2648 13.7551 27.5318 13.837 27.7945C16.4431 26.9279 18.8791 25.6157 21.0364 23.9161C20.7961 22.8018 20.2742 21.7677 19.5204 20.9126Z" fill="#699334"/>
</g>
<g style="mix-blend-mode:multiply" opacity="0.1">
<path d="M19.027 22.5242C18.8948 22.5242 18.3922 24.8705 18.1236 25.4545C17.9506 24.7362 17.7166 23.6231 17.4988 22.7196C17.7023 21.9911 18.2131 20.3612 18.0869 20.3307C17.9608 20.3001 17.4012 21.6228 17.2587 21.9708C16.8518 20.3897 16.4834 19.0548 16.4082 19.1219C16.2271 19.2684 17.3422 24.726 17.3422 24.726C17.3422 24.726 15.3317 23.2487 15.4721 23.5376C15.6125 23.8266 17.4907 25.6559 17.4907 25.6559L17.6576 26.3925C17.9954 26.2216 18.3209 26.0446 18.6302 25.8696C18.8704 24.9539 19.1369 22.5242 19.027 22.5242Z" fill="#485827"/>
</g>
<path d="M17.6289 23.739C17.1731 23.8103 17.5658 27.8902 17.5658 27.8902C17.5658 27.8902 16.2085 25.1696 15.8789 25.9347C15.7975 26.1198 16.4385 27.9146 16.8332 28.9219C17.5393 28.871 18.2312 28.7835 18.9027 28.6695C18.8437 27.2207 18.0501 23.6739 17.6289 23.739Z" fill="#485827"/>
<path opacity="0.5" d="M17.9226 13.3225C17.6419 13.1913 17.3459 13.0956 17.0415 13.0376C16.4433 14.9809 16.781 17.0382 16.781 17.0382C17.18 17.0009 17.582 17.0603 17.9531 17.2111C17.7049 16.0614 17.7822 14.1486 17.9226 13.3225Z" fill="#FFD975"/>
<g style="mix-blend-mode:overlay" opacity="0.3">
<path d="M15.8478 16.7431L14.8547 16.2466C14.8547 16.2466 16.1225 13.4527 19.5756 11.5664C19.5756 11.5745 16.1957 14.7591 15.8478 16.7431Z" fill="white"/>
</g>
<g style="mix-blend-mode:overlay" opacity="0.3">
<path d="M17.2797 26.254C16.8015 22.7948 18.0509 18.4869 18.0509 18.4869C18.0509 18.4869 16.0161 22.1802 16.5818 26.4474C16.8106 26.3699 17.0436 26.3054 17.2797 26.254Z" fill="white"/>
</g>
<path opacity="0.5" d="M18.5845 19.8219C18.7144 19.5721 18.8577 19.3296 19.0139 19.0954C17.7814 18.9872 16.5448 19.2523 15.4651 19.8565L15.6523 20.355C16.5607 19.9069 17.5765 19.7222 18.5845 19.8219Z" fill="#FFD975"/>
<defs>
<linearGradient id="paint0_linear_218_704" x1="17.1131" y1="0.447832" x2="17.341" y2="7.00216" gradientUnits="userSpaceOnUse">
<stop stop-color="#699334"/>
<stop offset="1" stop-color="#4B7F28"/>
</linearGradient>
<linearGradient id="paint1_linear_218_704" x1="15.8741" y1="3.81558" x2="18.7717" y2="18.2998" gradientUnits="userSpaceOnUse">
<stop stop-color="#A3CD39"/>
<stop offset="0.17" stop-color="#9DC839"/>
<stop offset="0.41" stop-color="#8BBA3A"/>
<stop offset="0.69" stop-color="#6DA23B"/>
<stop offset="1" stop-color="#44823D"/>
</linearGradient>
<linearGradient id="paint2_linear_218_704" x1="16.1807" y1="-5.15615" x2="17.4341" y2="11.3039" gradientUnits="userSpaceOnUse">
<stop stop-color="#A3CD39"/>
<stop offset="0.17" stop-color="#9DC839"/>
<stop offset="0.41" stop-color="#8BBA3A"/>
<stop offset="0.69" stop-color="#6DA23B"/>
<stop offset="1" stop-color="#44823D"/>
</linearGradient>
<linearGradient id="paint3_linear_218_704" x1="18.1816" y1="3.82781" x2="16.8691" y2="11.6926" gradientUnits="userSpaceOnUse">
<stop stop-color="#699334"/>
<stop offset="1" stop-color="#4B7F28"/>
</linearGradient>
<linearGradient id="paint4_linear_218_704" x1="17.3432" y1="11.717" x2="17.3432" y2="31.9274" gradientUnits="userSpaceOnUse">
<stop stop-color="#E1E1D6"/>
<stop offset="0.57" stop-color="#F4F4F0"/>
<stop offset="1" stop-color="white"/>
</linearGradient>
<linearGradient id="paint5_linear_218_704" x1="21.994" y1="8.76033" x2="13.6592" y2="21.2199" gradientUnits="userSpaceOnUse">
<stop stop-color="#FFB927"/>
<stop offset="0.23" stop-color="#FFB327"/>
<stop offset="0.55" stop-color="#FFA127"/>
<stop offset="0.93" stop-color="#FF8327"/>
<stop offset="0.97" stop-color="#FF7F27"/>
</linearGradient>
<linearGradient id="paint6_linear_218_704" x1="21.6812" y1="23.6495" x2="11.7795" y2="7.03064" gradientUnits="userSpaceOnUse">
<stop stop-color="#FF9038"/>
<stop offset="1" stop-color="#FFDEBE"/>
</linearGradient>
<linearGradient id="paint7_linear_218_704" x1="24.1566" y1="11.4892" x2="11.8578" y2="7.49064" gradientUnits="userSpaceOnUse">
<stop stop-color="#FF9038"/>
<stop offset="1" stop-color="#FFDEBE"/>
</linearGradient>
<linearGradient id="paint8_linear_218_704" x1="15.2048" y1="8.93523" x2="18.6926" y2="26.3782" gradientUnits="userSpaceOnUse">
<stop stop-color="#A3CD39"/>
<stop offset="0.17" stop-color="#9DC839"/>
<stop offset="0.41" stop-color="#8BBA3A"/>
<stop offset="0.69" stop-color="#6DA23B"/>
<stop offset="1" stop-color="#44823D"/>
</linearGradient>
<linearGradient id="paint9_linear_218_704" x1="17.8051" y1="17.5794" x2="17.3045" y2="25.2896" gradientUnits="userSpaceOnUse">
<stop stop-color="#FFB927"/>
<stop offset="0.23" stop-color="#FFB327"/>
<stop offset="0.55" stop-color="#FFA127"/>
<stop offset="0.93" stop-color="#FF8327"/>
<stop offset="0.97" stop-color="#FF7F27"/>
</linearGradient>
<linearGradient id="paint10_linear_218_704" x1="15.4576" y1="13.9594" x2="19.102" y2="25.8939" gradientUnits="userSpaceOnUse">
<stop stop-color="#FFB927"/>
<stop offset="0.23" stop-color="#FFB327"/>
<stop offset="0.55" stop-color="#FFA127"/>
<stop offset="0.93" stop-color="#FF8327"/>
<stop offset="0.97" stop-color="#FF7F27"/>
</linearGradient>
<linearGradient id="paint11_linear_218_704" x1="15.8486" y1="13.8129" x2="18.1847" y2="23.328" gradientUnits="userSpaceOnUse">
<stop stop-color="#699334"/>
<stop offset="1" stop-color="#4B7F28"/>
</linearGradient>
<linearGradient id="paint12_linear_218_704" x1="19.7778" y1="16.3809" x2="16.5362" y2="23.8916" gradientUnits="userSpaceOnUse">
<stop stop-color="#FF9038"/>
<stop offset="1" stop-color="#FFDEBE"/>
</linearGradient>
<linearGradient id="paint13_linear_218_704" x1="13.0225" y1="25.1146" x2="21.5466" y2="25.1146" gradientUnits="userSpaceOnUse">
<stop stop-color="#699334"/>
<stop offset="1" stop-color="#4B7F28"/>
</linearGradient>
<linearGradient id="paint14_linear_218_704" x1="15.3953" y1="15.9556" x2="17.89" y2="28.4314" gradientUnits="userSpaceOnUse">
<stop stop-color="#A3CD39"/>
<stop offset="0.17" stop-color="#9DC839"/>
<stop offset="0.41" stop-color="#8BBA3A"/>
<stop offset="0.69" stop-color="#6DA23B"/>
<stop offset="1" stop-color="#44823D"/>
</linearGradient>
</defs>
</svg>
