<svg width="16" height="16" viewBox="0 0 16 16" fill="none" xmlns="http://www.w3.org/2000/svg">
<path d="M2.25358 2.16667H7.25358C7.71191 2.16667 8.08691 1.79167 8.08691 1.33333C8.08691 0.875 7.71191 0.5 7.25358 0.5H2.25358C1.33691 0.5 0.586914 1.25 0.586914 2.16667V13.8333C0.586914 14.75 1.33691 15.5 2.25358 15.5H7.25358C7.71191 15.5 8.08691 15.125 8.08691 14.6667C8.08691 14.2083 7.71191 13.8333 7.25358 13.8333H2.25358V2.16667Z" fill="#FF6600"/>
<path d="M15.2952 7.70833L12.9702 5.38333C12.7036 5.11667 12.2536 5.3 12.2536 5.675V7.16667H6.42025C5.96191 7.16667 5.58691 7.54167 5.58691 8C5.58691 8.45833 5.96191 8.83333 6.42025 8.83333H12.2536V10.325C12.2536 10.7 12.7036 10.8833 12.9619 10.6167L15.2869 8.29167C15.4536 8.13333 15.4536 7.86667 15.2952 7.70833Z" fill="#FF6600"/>
</svg>
