<svg width="17" height="18" viewBox="0 0 17 18" fill="none" xmlns="http://www.w3.org/2000/svg">
<path fill-rule="evenodd" clip-rule="evenodd" d="M14.923 0.5C16.0693 0.5 17 1.43068 17 2.57699V15.423C17 16.5693 16.0693 17.5 14.923 17.5H11.3879V11.0946H13.5993L14.02 8.35134H11.3879V6.57109C11.3879 5.8206 11.7556 5.08904 12.9345 5.08904H14.1313V2.75353C14.1313 2.75353 13.0452 2.56819 12.0068 2.56819C9.83908 2.56819 8.42224 3.882 8.42224 6.26051V8.35134H6.01259V11.0946H8.42224V17.5H2.07699C0.930684 17.5 0 16.5693 0 15.423V2.57699C0 1.43068 0.93065 0.5 2.07699 0.5H14.923V0.5Z" fill="#1777F2"/>
</svg>
