<svg width="21" height="20" viewBox="0 0 21 20" fill="none" xmlns="http://www.w3.org/2000/svg">
<path d="M20.3684 10.2281C20.3693 9.54663 20.3113 8.8664 20.195 8.19482H10.6992V12.046H16.138C16.0267 12.6611 15.7911 13.2475 15.4455 13.7697C15.0999 14.292 14.6513 14.7393 14.1269 15.0848V17.5846H17.3728C19.2734 15.8444 20.3684 13.271 20.3684 10.2281Z" fill="#4285F4"/>
<path d="M10.6996 20C13.4169 20 15.7048 19.1139 17.3732 17.5862L14.1273 15.0864C13.2239 15.6947 12.0603 16.0419 10.6996 16.0419C8.07322 16.0419 5.84402 14.2836 5.04687 11.9143H1.70306V14.4906C2.54114 16.1467 3.82623 17.5389 5.41487 18.5118C7.00352 19.4847 8.83318 19.9999 10.6996 20Z" fill="#34A853"/>
<path d="M5.04686 11.9139C4.62543 10.6723 4.62543 9.32781 5.04686 8.08627V5.51001H1.70305C0.998032 6.90321 0.630859 8.44083 0.630859 10.0001C0.630859 11.5593 0.998032 13.0969 1.70305 14.4901L5.04686 11.9139Z" fill="#FBBC04"/>
<path d="M10.6996 3.95879C12.1356 3.93549 13.5231 4.47429 14.5623 5.45872L17.4362 2.60469C15.6138 0.904883 13.1996 -0.0283412 10.6996 0.000656061C8.83318 0.000740536 7.00352 0.515984 5.41487 1.48886C3.82623 2.46174 2.54114 3.85397 1.70306 5.5101L5.04687 8.08636C5.84402 5.71704 8.07322 3.95879 10.6996 3.95879Z" fill="#EA4335"/>
</svg>
