<svg width="14" height="17" viewBox="0 0 14 17" fill="none" xmlns="http://www.w3.org/2000/svg">
<path d="M6.99992 16.3333C7.91658 16.3333 8.66658 15.5833 8.66658 14.6666H5.33325C5.33325 15.5833 6.08325 16.3333 6.99992 16.3333ZM11.9999 11.3333V7.16658C11.9999 4.60825 10.6416 2.46659 8.24992 1.89992V1.33325C8.24992 0.641585 7.69159 0.083252 6.99992 0.083252C6.30825 0.083252 5.74992 0.641585 5.74992 1.33325V1.89992C3.36659 2.46659 1.99992 4.59992 1.99992 7.16658V11.3333L0.333252 12.9999V13.8333H13.6666V12.9999L11.9999 11.3333ZM10.3333 12.1666H3.66659V7.16658C3.66659 5.09992 4.92492 3.41659 6.99992 3.41659C9.07492 3.41659 10.3333 5.09992 10.3333 7.16658V12.1666Z" fill="#232323"/>
</svg>
