<svg width="45" height="45" viewBox="0 0 45 45" fill="none" xmlns="http://www.w3.org/2000/svg">
<g filter="url(#filter0_d_217_156)">
<path d="M6.4211 29.6267C6.4211 29.6267 5.19153 32.8894 6.92841 36.2489C8.54718 39.3858 13.6901 41.0607 20.3258 39.0895C27.5289 36.9499 35.0516 31.5979 37.3655 26.608C38.7596 23.1226 38.6841 18.3689 36.4786 16.1635L6.4211 29.6267Z" fill="url(#paint0_linear_217_156)"/>
<g style="mix-blend-mode:multiply" opacity="0.2">
<path d="M37.3789 26.608C38.7731 23.1226 38.6975 18.3689 36.4921 16.1635L18.525 24.2069C19.1736 24.0133 19.5841 23.8642 19.5841 23.8642C24.2042 24.5148 27.7167 23.5389 27.7167 23.5389C26.4155 26.1413 20.0372 27.6381 18.3468 30.6297C17.1521 32.7442 17.125 37.2907 17.3031 39.7575C18.3249 39.6086 19.3345 39.3853 20.3238 39.0895C27.5288 36.9499 35.0553 31.5979 37.3789 26.608Z" fill="#934E22"/>
</g>
<g style="mix-blend-mode:multiply" opacity="0.3">
<path d="M11.2695 36.7407C11.2695 36.7407 11.924 38.3769 12.5785 38.3227C13.233 38.2685 13.8332 36.3593 13.8332 36.3593L18.25 35.1587C18.25 35.1587 21.0325 37.6121 22.3956 35.213C22.3956 35.213 23.7046 36.3031 24.7947 35.6506C25.8849 34.998 26.704 31.3403 26.704 31.3403L30.5766 29.9849C30.5766 29.9849 34.062 31.0208 34.3389 27.4774C34.3389 27.4774 36.1939 28.0215 36.3565 26.058C36.4688 24.7026 37.5299 23.8545 38.1863 23.4459C38.4148 21.7032 38.3103 19.9044 37.8107 18.4115L28.1291 23.5408L11.2695 36.7407Z" fill="#87361C"/>
</g>
<path d="M7.43164 33.5033C8.11845 34.0654 8.84953 34.5711 9.61775 35.0155C10.0205 35.244 10.4271 38.0246 11.2617 38.1137C12.2027 38.2182 12.104 37.1687 13.198 35.9643C13.5311 35.6003 21.3306 34.6767 21.3306 34.6767C21.3306 34.6767 22.1806 36.4755 23.1042 36.3942C24.3086 36.2896 24.8043 33.4433 25.4278 32.659C26.0513 31.8748 33.2467 27.7543 33.2467 27.7543C33.2467 27.7543 34.1103 29.0381 34.8151 28.7477C35.7058 28.3817 35.4212 26.1666 35.7949 25.0938C36.1686 24.0211 36.916 23.2446 37.0825 22.4604C37.2491 21.6762 7.43164 33.5033 7.43164 33.5033Z" fill="url(#paint1_linear_217_156)"/>
<g style="mix-blend-mode:multiply" opacity="0.5">
<path d="M6.92806 31.8787C5.14277 28.7516 7.37729 22.9852 15.6686 18.1502C26.4268 11.8746 34.995 13.5379 36.85 16.8606C38.4746 19.7748 37.1289 24.9293 28.1075 30.3645C18.2807 36.2858 9.26714 35.9779 6.92806 31.8787Z" fill="#DAA920"/>
</g>
<path d="M13.5291 31.5455C13.0284 31.6879 12.549 31.897 12.104 32.1671C12.0828 32.0529 12.0244 31.9489 11.9379 31.8715C11.8513 31.7941 11.7415 31.7475 11.6257 31.7392C10.1289 31.7566 8.76382 32.4633 7.31545 32.7557C7.2092 32.7868 7.11573 32.8512 7.0488 32.9394C6.98188 33.0276 6.94503 33.1349 6.94368 33.2456C6.81975 33.4857 7.70659 33.9988 8.00091 34.0473C8.75027 34.1731 13.2561 33.2224 14.0848 32.3801C14.3695 32.0819 13.9009 31.4526 13.5291 31.5455Z" fill="#B45A5A"/>
<path d="M5.70245 28.2925C4.9105 29.8415 5.10026 31.7275 6.0355 32.8351C7.07337 34.0627 8.76959 33.5593 9.7029 32.4284C9.96043 32.1264 5.91158 27.882 5.70245 28.2925Z" fill="#D08984"/>
<path d="M5.66378 32.5641C5.66378 32.5641 6.08783 30.742 8.33203 30.6588C9.9295 30.5988 5.70251 28.2926 5.70251 28.2926C5.70251 28.2926 4.68981 30.4884 5.66378 32.5641Z" fill="#BD6964"/>
<path d="M10.6576 31.6152C10.2161 31.8088 9.89659 32.2445 9.53449 32.564C9.07817 32.9881 8.50459 33.2647 7.88862 33.3579C7.11409 33.4489 6.46155 33.0674 6.04524 32.411C5.27071 31.1737 5.53986 29.7002 6.08203 28.0001C6.11688 27.8858 5.67347 27.7871 5.61151 27.8936C4.91443 29.1251 4.66465 31.6229 5.66766 33.0113C5.91564 33.3624 6.24996 33.6436 6.63832 33.8277C7.02669 34.0119 7.45598 34.0928 7.88475 34.0627C8.53807 34.0053 9.16273 33.7681 9.6894 33.3772C10.2083 33.021 10.8105 32.5427 11.0235 31.9114C11.1049 31.6675 10.8338 31.5319 10.6576 31.6152Z" fill="#A34544"/>
<path d="M38.7828 21.0333C38.5891 20.6112 37.2202 19.2325 36.8116 19.2151C35.5956 19.1609 31.812 24.8053 32.1063 24.7801C33.8607 24.631 37.7856 23.0587 38.5679 22.2029C38.7144 22.0504 38.8128 21.8583 38.8511 21.6504C38.8893 21.4424 38.8655 21.2279 38.7828 21.0333Z" fill="#BD6964"/>
<path d="M31.4034 28.0604C30.17 26.461 27.6857 26.5268 25.9991 27.1193C25.2246 27.3923 19.5221 31.3967 21.1235 31.4993C25.1898 31.7607 28.3847 31.8865 30.1254 31.7975C30.7973 31.7607 31.2272 31.5245 31.7558 30.7267C32.3445 29.8437 31.9979 28.8349 31.4034 28.0604Z" fill="#D08984"/>
<g style="mix-blend-mode:multiply" opacity="0.5">
<path d="M27.0273 29.3944L26.3206 28.8484C25.9204 28.447 25.6234 27.9547 25.455 27.4136C23.8324 28.3953 19.7351 31.416 21.1235 31.505C22.748 31.6096 24.2332 31.6987 25.5402 31.7509C25.5615 31.0481 26.4716 29.8785 28.1562 30.2696C28.0571 30.1046 27.9703 29.9325 27.8967 29.7546C27.5923 29.6736 27.2999 29.5524 27.0273 29.3944Z" fill="#D08984"/>
</g>
<path d="M13.69 32.7557C14.4064 34.8315 16.5596 37.0834 18.8561 36.5625C19.9443 36.3147 20.5988 35.4375 21.1313 34.6088C21.8477 33.4722 22.4403 31.9638 22.8604 30.3489C23.0153 29.766 13.5622 32.3859 13.69 32.7557Z" fill="#B45A5A"/>
<g style="mix-blend-mode:multiply" opacity="0.5">
<path d="M13.69 32.7558C14.1896 34.2022 15.3862 35.7339 16.8423 36.3535C16.8423 34.7773 18.6179 33.0618 22.0704 32.7597C22.389 31.9776 22.6543 31.1747 22.8643 30.3567C23.0153 29.7661 13.5622 32.386 13.69 32.7558Z" fill="#D08984"/>
</g>
<g style="mix-blend-mode:multiply" opacity="0.5">
<path d="M21.6948 30.438C21.9058 31.6695 20.227 32.9862 17.946 33.3754C15.6651 33.7646 13.6455 33.0849 13.4344 31.8534C13.2234 30.6219 14.9021 29.3072 17.1831 28.916C19.4641 28.5249 21.4856 29.2065 21.6948 30.438Z" fill="#933E37"/>
</g>
<path d="M26.392 28.8482C26.5062 28.916 29.5346 32.2116 31.2657 30.9995C34.3232 28.8695 33.9359 24.9194 33.8488 23.6763C33.8197 23.2484 26.0802 28.6623 26.392 28.8482Z" fill="#B45A5A"/>
<g style="mix-blend-mode:multiply" opacity="0.5">
<path d="M33.8488 23.6763C33.8197 23.2484 26.0802 28.6623 26.392 28.8482C26.4365 28.8753 26.9438 29.4117 27.6467 29.9732H27.6603L28.4096 30.529C29.1687 31.0227 30.0206 31.3906 30.7468 31.228C30.5531 30.9491 30.3595 29.4737 30.9617 28.2925C31.7614 26.7202 33.5428 25.8818 33.5428 25.8818L33.8933 25.7366C33.9248 25.0496 33.9099 24.3613 33.8488 23.6763Z" fill="#D08984"/>
</g>
<g style="mix-blend-mode:multiply" opacity="0.5">
<path d="M29.6429 28.0512C31.6846 27.182 32.9909 25.6582 32.5607 24.6477C32.1306 23.6372 30.1267 23.5226 28.085 24.3918C26.0433 25.261 24.7369 26.7848 25.1671 27.7953C25.5973 28.8058 27.6012 28.9204 29.6429 28.0512Z" fill="#933E37"/>
</g>
<path d="M38.3042 18.7892C38.0428 18.4503 37.398 17.7339 37.2722 18.0476C36.974 18.7969 35.5779 21.3064 35.8006 21.5329C36.5247 22.2455 37.764 22.412 38.5114 21.7382C39.346 20.9734 38.9277 19.5928 38.3042 18.7892Z" fill="#B45A5A"/>
<g style="mix-blend-mode:multiply" opacity="0.5">
<path d="M36.759 22.0751C36.8365 21.4729 37.185 19.8134 38.6586 19.3642C38.5596 19.1638 38.4409 18.9737 38.3042 18.7969C38.0428 18.458 37.398 17.7416 37.2722 18.0553C36.974 18.8046 35.5779 21.3141 35.8006 21.5406C36.0708 21.7956 36.4001 21.9792 36.759 22.0751Z" fill="#D08984"/>
</g>
<g style="mix-blend-mode:multiply" opacity="0.5">
<path d="M37.5897 19.31C37.5607 20.4079 36.06 21.2599 34.2399 21.2115C32.4197 21.1631 30.9675 20.2317 30.9965 19.1338C31.0256 18.0359 32.5262 17.1859 34.3464 17.2343C36.1665 17.2827 37.6188 18.2121 37.5897 19.31Z" fill="#933E37"/>
</g>
<path d="M39.2162 19.3701C38.9316 18.402 37.9305 17.3099 36.9507 17.1802C36.7571 17.153 36.6099 17.4377 36.7203 17.5984C37.0088 18.0186 37.4503 18.249 37.8163 18.5917C38.2337 18.9859 38.5065 19.509 38.5908 20.0769C38.7631 21.0818 38.2597 21.8506 37.2722 21.8602C36.4221 21.8602 35.7715 21.1535 34.9021 21.2929C34.7174 21.3166 34.5407 21.383 34.3861 21.4868C34.2314 21.5907 34.1032 21.7291 34.0114 21.8912C33.9702 21.9319 33.939 21.9816 33.9204 22.0364C33.2311 24.1896 33.2717 26.5268 32.412 28.6412C32.0654 29.4932 31.378 30.8293 30.3827 30.9648C29.8677 31.0345 29.37 30.6918 28.9634 30.4091C28.4425 30.0489 27.9681 29.623 27.455 29.2473C26.5314 28.5831 25.4993 28.3682 24.4479 28.8329C23.4313 29.2822 22.7536 30.4072 22.256 31.3792C21.2065 33.4298 20.4436 36.708 17.5914 36.22C15.8487 35.9257 14.654 34.3689 13.9821 32.6126C13.8833 32.3551 13.3818 32.6862 13.4593 32.9457C14.1951 35.4242 16.4431 37.6161 19.0882 36.9616C21.3904 36.3904 22.0682 33.3949 23.0576 31.5225C23.6095 30.4807 24.413 29.3615 25.6658 29.377C26.8063 29.3906 27.7958 30.5814 28.6729 31.1991C29.5501 31.8168 30.5357 32.0201 31.4574 31.3598C32.2958 30.7596 32.8399 29.7953 33.2233 28.8426C34.0656 26.7281 34.3851 24.3891 34.6117 22.1313C34.6136 22.1068 34.6136 22.0822 34.6117 22.0577C34.7565 21.9634 34.9297 21.9223 35.1015 21.9416C35.574 21.9687 36.0097 22.3172 36.457 22.476C36.8397 22.6241 37.2551 22.6673 37.6601 22.6013C38.0652 22.5353 38.4453 22.3623 38.7612 22.1003C39.5086 21.4652 39.4718 20.2376 39.2162 19.3701Z" fill="#983834"/>
<path d="M5.81684 22.9135C5.81684 22.9135 4.64343 26.8172 6.0492 29.53C7.67377 32.6629 13.0296 34.2798 19.6306 32.2001C26.2315 30.1205 34.6041 25.119 36.9258 20.1272C38.318 16.6418 38.0876 11.6538 35.8802 9.44836L5.81684 22.9135Z" fill="url(#paint2_linear_217_156)"/>
<g style="mix-blend-mode:multiply" opacity="0.2">
<path d="M18.3485 30.6298C18.0054 31.2884 17.7626 31.9945 17.6282 32.7249C18.2736 32.5868 18.9397 32.4118 19.6265 32.2001C26.2274 30.1205 34.6 25.119 36.9217 20.1272C38.3139 16.6418 38.0835 11.6538 35.8761 9.44836L30.0671 12.0508C30.8416 13.0867 31.4225 13.8419 31.4225 13.8419C31.4225 13.8419 9.49563 18.7872 10.0765 22.9523C10.6574 27.1173 19.5761 23.8643 19.5761 23.8643C24.1962 24.5149 27.7087 23.539 27.7087 23.539C26.4171 26.1414 20.0389 27.6382 18.3485 30.6298Z" fill="#934E22"/>
</g>
<path d="M5.85754 22.5804C5.0559 26.1393 7.4066 28.4319 10.8804 28.9296C12.8438 29.2104 16.2169 29.1387 19.1465 27.3941C19.6074 27.1211 5.94661 22.1873 5.85754 22.5804Z" fill="#F7E9C0"/>
<g style="mix-blend-mode:multiply" opacity="0.2">
<path d="M34.79 20.1793C34.182 20.1793 34.182 21.1649 34.79 21.1649C35.398 21.1649 35.398 20.1793 34.79 20.1793Z" fill="#592F15"/>
</g>
<path d="M6.20387 25.4057C4.42052 22.2804 7.49539 16.4308 15.7867 11.5939C26.5449 5.31826 34.389 6.36581 36.2808 9.65756C38.2403 13.0829 34.298 19.3914 27.3969 23.6823C17.6475 29.7488 8.53907 29.5068 6.20387 25.4057Z" fill="url(#paint3_linear_217_156)"/>
<path d="M6.88954 24.8924C4.95322 21.2308 10.402 15.5535 16.1955 12.0565C23.1663 7.84304 33.3862 6.56507 35.2799 9.94976C37.2336 13.4351 30.7237 21.6045 21.7586 25.3397C16.1258 27.6884 8.57414 28.0602 6.88954 24.8924Z" fill="#FFCF6D"/>
<path opacity="0.3" d="M35.2799 9.94976C34.1181 7.88564 29.8776 7.55647 25.1549 8.56917C29.5523 7.88565 33.3823 8.53431 34.3369 10.4551C35.9673 13.7333 29.4438 21.1843 22.1865 24.2534C17.1676 26.3833 9.49974 27.3728 7.82676 24.4083C6.52555 22.1002 9.10086 17.8422 12.5417 14.6008C8.38248 17.9235 5.37731 22.0266 6.88958 24.8924C8.57418 28.0641 16.1258 27.6884 21.7586 25.3396C30.7238 21.6045 37.2337 13.439 35.2799 9.94976Z" fill="#E08C31"/>
<g style="mix-blend-mode:multiply" opacity="0.3">
<path d="M19.5839 23.8642C22.2447 24.2486 24.9531 24.1502 27.579 23.5738C34.3561 19.2867 38.2171 13.0615 36.275 9.66709C35.0997 7.61459 31.6278 6.43537 26.5934 7.34351C28.1231 9.49476 31.4342 13.8457 31.4342 13.8457C31.4342 13.8457 9.28075 18.8298 10.0921 22.9464C10.8008 26.5964 19.5839 23.8642 19.5839 23.8642Z" fill="#87361C"/>
</g>
<g style="mix-blend-mode:multiply" opacity="0.5">
<path d="M7.88461 33.3581C7.11008 33.4491 6.45754 33.0676 6.04123 32.4112C5.501 31.5573 5.46034 30.5988 5.67334 29.5242C5.67334 29.5242 4.87363 31.7993 6.20582 33.0095C7.02682 33.7589 8.16731 33.4956 8.63397 33.1412C8.39676 33.2515 8.14403 33.3246 7.88461 33.3581Z" fill="#933E37"/>
</g>
<g style="mix-blend-mode:multiply" opacity="0.5">
<path d="M21.5959 32.8372C20.7846 34.6767 19.8319 36.6072 17.5974 36.2315C16.4705 36.0379 15.574 35.3234 14.8982 34.3649C15.1635 34.8471 16.3117 36.6614 18.461 36.5123C20.2908 36.3864 21.23 34.0512 21.5959 32.8372Z" fill="#933E37"/>
</g>
<g style="mix-blend-mode:multiply" opacity="0.5">
<path d="M32.4178 28.6411C32.0712 29.4931 31.3838 30.8291 30.3886 30.9647C29.8735 31.0344 29.3759 30.6916 28.9692 30.4089C28.7078 30.2269 28.458 30.0217 28.2083 29.828C28.4212 30.1185 29.3894 31.3326 30.5919 31.168C31.6878 31.0189 32.4585 28.9722 32.6792 27.9053C32.6018 28.1531 32.5166 28.399 32.4178 28.6411Z" fill="#933E37"/>
</g>
<path d="M35.58 12.3411C34.5054 10.9083 9.08339 16.572 8.71936 17.1451C7.93127 18.3844 7.98162 20.2646 8.50637 21.5987C9.74561 24.7549 13.9281 24.5593 16.5615 23.6028C17.2634 23.3229 17.9949 23.1234 18.7418 23.0083C19.6538 22.9038 20.5445 23.1458 21.4526 23.2387C26.2431 23.7383 31.4111 22.5339 34.4666 18.5374C35.4309 17.271 36.9238 14.1342 35.58 12.3411Z" fill="#D1C1A5"/>
<g style="mix-blend-mode:multiply" opacity="0.3">
<path d="M9.25952 21.283C9.25952 21.283 10.1773 23.5504 12.6616 23.3355C15.1459 23.1206 16.4955 22.0924 18.1705 21.8755C19.8454 21.6586 22.0586 22.1466 24.4364 22.2008C26.8142 22.255 30.1059 21.1746 30.439 19.8249C30.772 18.4753 9.25952 21.283 9.25952 21.283Z" fill="#87361C"/>
</g>
<path d="M33.6999 18.0979C35.0553 16.8528 36.0661 14.6609 36.099 12.4826C36.1726 7.47717 30.2707 6.72975 26.7601 7.02794C23.9245 7.30072 21.1373 7.94657 18.4707 8.94877C16.4293 9.70803 14.503 10.7468 12.747 12.0353C11.0895 13.2551 9.55977 14.4518 8.62647 16.3881C7.55955 18.6091 8.42121 20.7778 9.93155 22.0248C11.0643 22.9581 12.7044 22.9716 14.1372 22.6444C15.5701 22.3171 16.9313 21.6995 18.3971 21.5174C20.0062 21.3238 21.6308 21.6588 23.2515 21.7362C26.9744 21.8885 30.6218 20.6573 33.4908 18.2799C33.5605 18.2276 33.6321 18.1637 33.6999 18.0979Z" fill="url(#paint4_radial_217_156)"/>
<g style="mix-blend-mode:multiply" opacity="0.5">
<path d="M17.5953 15.8614C18.1433 17.4104 21.0517 17.7222 22.6588 17.6041C24.0471 17.4956 26.9594 16.8702 27.335 15.1449C27.7339 13.3132 25.1721 10.6914 22.5136 10.7088C19.5142 10.7224 16.9621 14.0742 17.5953 15.8614Z" fill="#E6E3BF"/>
</g>
<g style="mix-blend-mode:multiply" opacity="0.4">
<path d="M16.4666 14.7984C16.819 16.9283 19.7448 17.5634 21.927 17.2304C25.0832 16.7463 26.8085 15.4064 26.5742 13.6579C26.3612 12.0352 23.5554 10.188 21.0479 10.492C18.5965 10.7882 16.1587 12.9782 16.4666 14.7984Z" fill="#EA6924"/>
</g>
<path d="M25.6058 14.2078C25.0424 16.5101 21.3943 17.4279 19.1579 17.4531C16.873 17.4782 13.2308 16.603 12.6422 14.3549C11.9683 11.7951 14.5475 7.92249 19.2102 7.92249C23.4371 7.92249 26.2332 11.6422 25.6058 14.2078Z" fill="url(#paint5_radial_217_156)"/>
<path d="M24.8603 10.916C24.5702 12.206 23.9304 13.3911 23.0111 14.3414C21.7344 15.5856 20.0285 16.292 18.2458 16.3145C16.4199 16.3145 14.7992 15.5516 13.4806 14.3414C13.1207 14.0078 12.808 13.6267 12.5511 13.2086C12.5173 13.5944 12.5481 13.9831 12.6421 14.3588C13.223 16.603 16.873 17.4782 19.1579 17.4569C21.3943 17.4317 25.0423 16.5139 25.6058 14.2116C25.8536 13.1912 25.5671 11.9887 24.8603 10.916Z" fill="#EA6924"/>
<path opacity="0.2" d="M18.8271 8.45694C17.3806 8.3911 15.5353 9.185 14.5672 10.3119C13.7404 11.2801 13.7597 12.4671 14.5323 13.4507C15.4463 14.6125 17.2006 14.9475 18.4998 14.4189C19.8921 13.8554 21.1081 12.4032 21.2262 10.8057C21.3443 9.31085 20.105 8.51696 18.8271 8.45694Z" fill="#F6F8EA"/>
<path opacity="0.5" d="M19.0282 9.08424C19.0282 9.08424 17.1983 8.95644 15.7364 10.0408C14.2745 11.1251 15.5428 11.5705 16.0404 11.0612C16.5381 10.552 17.0163 9.53153 19.0282 9.08424Z" fill="white"/>
<g style="mix-blend-mode:multiply" opacity="0.5">
<path d="M33.9593 9.66516C32.66 8.42592 30.3074 7.92248 28.9248 8.32717C28.4446 8.46658 27.9199 9.1017 27.8018 9.63419C27.6681 10.2403 28.0264 10.7631 28.4524 11.129C28.9577 11.5628 31.7441 12.7575 31.6163 13.6307C31.5098 14.4246 29.2424 14.6493 28.6867 15.0423C27.3816 15.9679 27.8773 17.7532 26.1326 18.4948C25.453 18.7814 22.2484 20.3904 24.2583 20.4563C26.6922 20.5376 31.779 19.4746 34.4007 15.1837C35.7445 12.9956 34.8616 10.521 33.9593 9.66516Z" fill="#E6E3BF"/>
</g>
<g style="mix-blend-mode:multiply" opacity="0.5">
<path d="M15.0743 19.7592C14.2417 19.0311 12.9153 19.4029 11.9762 18.9595C11.0951 18.5451 10.7931 17.455 11.1242 16.1189C11.2055 15.8013 11.463 15.3908 11.2055 15.0617C11.0448 14.8564 10.766 14.9377 10.5975 15.1469C9.9945 15.8528 9.59313 16.7084 9.43571 17.6234C9.37337 18.0835 9.38186 18.5504 9.46089 19.0079C9.68163 20.3749 10.3942 21.3121 11.7341 21.6781C12.7972 21.9685 14.7761 21.8814 15.2486 21.1146C15.4828 20.7235 15.4267 20.0651 15.0743 19.7592Z" fill="#E6E3BF"/>
</g>
<g style="mix-blend-mode:multiply" opacity="0.2">
<path d="M24.2545 27.3166C24.1665 27.3213 24.0807 27.3459 24.0036 27.3887C23.9266 27.4315 23.8602 27.4912 23.8096 27.5634C23.7591 27.6357 23.7256 27.7184 23.7118 27.8055C23.698 27.8925 23.7041 27.9816 23.7298 28.0659C23.7298 28.0795 23.7298 28.095 23.7453 28.1085C23.795 28.2229 23.879 28.319 23.9857 28.3834C24.0925 28.4478 24.2167 28.4774 24.341 28.468C24.4653 28.4587 24.5837 28.4108 24.6795 28.3311C24.7754 28.2514 24.8441 28.1439 24.8761 28.0233C24.8761 28.0098 24.8761 27.9943 24.8761 27.9788C24.8886 27.8924 24.8815 27.8044 24.8553 27.7212C24.8291 27.6379 24.7845 27.5617 24.7248 27.4981C24.665 27.4344 24.5918 27.3851 24.5104 27.3537C24.429 27.3222 24.3415 27.3096 24.2545 27.3166Z" fill="#592F15"/>
</g>
<g style="mix-blend-mode:multiply" opacity="0.2">
<path d="M27.2093 27.3205C27.2053 27.3126 27.2 27.3054 27.1938 27.2992C27.1126 27.1971 26.9969 27.1282 26.8685 27.1056C26.7796 27.0883 26.6878 27.094 26.6018 27.1222C26.5157 27.1503 26.4382 27.1999 26.3767 27.2663L26.3593 27.2856C26.2978 27.351 26.2559 27.4322 26.2381 27.5201C26.2203 27.608 26.2274 27.6992 26.2586 27.7833C26.2926 27.8663 26.3473 27.9392 26.4175 27.9951C26.4876 28.051 26.5709 28.088 26.6594 28.1028C26.7519 28.1194 26.8471 28.1127 26.9363 28.0833C27.0256 28.0538 27.1061 28.0026 27.1706 27.9343C27.2482 27.8529 27.2946 27.7467 27.3017 27.6344C27.3088 27.5222 27.276 27.411 27.2093 27.3205Z" fill="#592F15"/>
</g>
<g style="mix-blend-mode:multiply" opacity="0.2">
<path d="M28.1153 24.6098C27.9964 24.6275 27.8852 24.6795 27.7954 24.7594C27.7056 24.8394 27.641 24.9438 27.6097 25.0598C27.5784 25.1759 27.5816 25.2986 27.619 25.4129C27.6564 25.5271 27.7263 25.628 27.8202 25.7031C27.9141 25.7782 28.0278 25.8243 28.1475 25.8357C28.2672 25.8471 28.3876 25.8233 28.494 25.7673C28.6004 25.7112 28.6881 25.6253 28.7463 25.5202C28.8046 25.415 28.8309 25.2951 28.8221 25.1752C28.8016 25.0073 28.7162 24.854 28.5841 24.7483C28.452 24.6426 28.2837 24.5929 28.1153 24.6098Z" fill="#592F15"/>
</g>
<g style="mix-blend-mode:multiply" opacity="0.2">
<path d="M30.257 24.6697C30.1972 24.6708 30.1383 24.6841 30.0838 24.7088C30.0293 24.7335 29.9805 24.769 29.9402 24.8133C29.8999 24.8575 29.8691 24.9095 29.8496 24.966C29.8302 25.0226 29.8224 25.0825 29.8269 25.1421C29.8314 25.2018 29.848 25.2599 29.8757 25.3129C29.9035 25.3659 29.9417 25.4127 29.9881 25.4504C30.0346 25.4881 30.0882 25.5159 30.1457 25.5322C30.2033 25.5484 30.2636 25.5528 30.3229 25.5449C30.3827 25.5438 30.4416 25.5305 30.4961 25.5058C30.5506 25.4811 30.5994 25.4456 30.6397 25.4013C30.68 25.3571 30.7108 25.3051 30.7303 25.2486C30.7497 25.192 30.7575 25.1321 30.753 25.0725C30.7485 25.0128 30.7319 24.9547 30.7042 24.9017C30.6764 24.8487 30.6382 24.8019 30.5918 24.7642C30.5453 24.7265 30.4917 24.6987 30.4342 24.6824C30.3766 24.6662 30.3163 24.6618 30.257 24.6697Z" fill="#592F15"/>
</g>
<g style="mix-blend-mode:multiply" opacity="0.3">
<path d="M14.6909 25.2932C14.6222 25.299 14.5582 25.3304 14.5115 25.3811C14.4649 25.4319 14.439 25.4983 14.439 25.5672C14.439 25.6361 14.4649 25.7025 14.5115 25.7533C14.5582 25.804 14.6222 25.8354 14.6909 25.8412C14.7596 25.8354 14.8236 25.804 14.8702 25.7533C14.9169 25.7025 14.9428 25.6361 14.9428 25.5672C14.9428 25.4983 14.9169 25.4319 14.8702 25.3811C14.8236 25.3304 14.7596 25.299 14.6909 25.2932Z" fill="#87361C"/>
</g>
<g style="mix-blend-mode:multiply" opacity="0.2">
<path d="M13.3974 26.0038C13.3348 26.0057 13.2734 26.0218 13.218 26.0508C13.1625 26.0798 13.1143 26.121 13.077 26.1713C13.0397 26.2216 13.0144 26.2797 13.0028 26.3413C12.9912 26.4028 12.9937 26.4662 13.0101 26.5266V26.5595C13.0336 26.6399 13.0825 26.7106 13.1495 26.7609C13.2165 26.8112 13.2981 26.8383 13.3819 26.8383C13.4657 26.8383 13.5472 26.8112 13.6142 26.7609C13.6813 26.7106 13.7302 26.6399 13.7536 26.5595V26.5266C13.7697 26.4686 13.773 26.4077 13.7631 26.3483C13.7533 26.2889 13.7307 26.2323 13.6967 26.1826C13.6628 26.1328 13.6185 26.091 13.5668 26.0601C13.5151 26.0293 13.4573 26.01 13.3974 26.0038Z" fill="#592F15"/>
</g>
<g style="mix-blend-mode:multiply" opacity="0.2">
<path d="M16.6912 25.7367C16.6912 25.7367 16.6912 25.7193 16.6777 25.7116C16.6093 25.5929 16.4987 25.5044 16.3679 25.4637C16.2782 25.4366 16.1826 25.4366 16.0929 25.4637C16.0057 25.4891 15.9269 25.5372 15.8644 25.6031L15.847 25.6225C15.7793 25.6946 15.7312 25.7827 15.7072 25.8786C15.6831 25.9745 15.6839 26.075 15.7095 26.1705C15.7339 26.2617 15.7813 26.3452 15.847 26.4129C15.9127 26.4807 15.9947 26.5306 16.0852 26.5577C16.1773 26.583 16.2746 26.5829 16.3666 26.5573C16.4587 26.5317 16.5421 26.4817 16.608 26.4125C16.6912 26.323 16.7441 26.2094 16.759 26.0881C16.774 25.9668 16.7502 25.8438 16.6912 25.7367Z" fill="#592F15"/>
</g>
<path d="M10.1559 35.3834C10.092 35.0794 12.77 35.6583 12.5744 35.9546C12.222 36.4813 10.2876 35.9991 10.1559 35.3834Z" fill="#F7E9C0"/>
<g style="mix-blend-mode:multiply" opacity="0.2">
<path d="M35.7833 10.5733C35.5237 9.89969 35.1013 9.30095 34.5537 8.83057C32.4819 9.11133 28.8164 11.3478 28.8164 11.3478L30.3984 14.8332C30.3984 14.8332 32.8052 15.3424 34.1548 13.7624L33.0473 12.8794C33.0473 12.8794 35.1714 12.5193 35.7833 10.5733Z" fill="#5E4D1F"/>
</g>
<path d="M35.671 5.06252C35.671 5.06252 31.3685 4.60748 29.3818 6.15267C27.3951 7.69785 27.4978 10.7379 27.9431 11.2239C28.3885 11.7099 30.3016 13.044 33.3648 11.4756C36.4281 9.90719 36.186 7.14794 35.671 5.06252Z" fill="url(#paint6_linear_217_156)"/>
<g style="mix-blend-mode:multiply" opacity="0.1">
<path d="M28.3479 10.5674C28.3479 10.5674 31.1168 7.29308 33.0261 7.16528C33.0261 7.16528 30.0925 8.93702 28.6325 11.096L28.3479 10.5674Z" fill="#404641"/>
</g>
<g style="mix-blend-mode:multiply" opacity="0.2">
<path d="M33.3549 11.4756C35.206 10.5229 35.8528 9.13264 35.9612 7.71913C35.1867 11.5434 29.1008 10.49 29.1008 10.49C28.5799 9.39792 28.425 7.89145 28.6477 6.90393C27.4336 8.5227 27.5614 10.8076 27.9429 11.2239C28.3882 11.7079 30.3013 13.044 33.3549 11.4756Z" fill="#404641"/>
</g>
<path d="M28.1734 12.5037C28.1734 12.5037 24.3008 12.3295 25.6562 7.87207C25.6542 7.87207 29.9335 8.98739 28.1734 12.5037Z" fill="url(#paint7_linear_217_156)"/>
<path d="M27.916 12.2038C27.1821 13.4295 28.0787 14.5816 29.3934 14.994C30.6656 15.3949 32.1604 14.5158 32.2979 14.175C32.4354 13.8342 31.9455 12.2503 30.6694 11.4641C29.4864 10.7206 28.342 11.4932 27.916 12.2038Z" fill="url(#paint8_linear_217_156)"/>
<g style="mix-blend-mode:multiply" opacity="0.3">
<path d="M29.5 12.6743C29.3625 12.8679 31.2059 13.9581 31.2775 13.7799C31.3492 13.6018 29.6646 12.4458 29.5 12.6743Z" fill="#404641"/>
</g>
<g style="mix-blend-mode:overlay" opacity="0.3">
<path d="M25.8538 8.36597C25.8538 8.36597 25.1451 11.3208 27.368 11.4641L25.8538 8.36597Z" fill="white"/>
</g>
<g style="mix-blend-mode:overlay" opacity="0.3">
<path d="M29.5175 8.66021C29.5175 8.66021 28.9618 7.00466 29.7615 6.26498C31.0569 5.06834 34.9644 5.24067 34.9644 5.24067C34.9644 5.24067 31.7637 6.38697 29.5175 8.66021Z" fill="white"/>
</g>
</g>
<defs>
<filter id="filter0_d_217_156" x="0" y="0" width="44.3818" height="44.9382" filterUnits="userSpaceOnUse" color-interpolation-filters="sRGB">
<feFlood flood-opacity="0" result="BackgroundImageFix"/>
<feColorMatrix in="SourceAlpha" type="matrix" values="0 0 0 0 0 0 0 0 0 0 0 0 0 0 0 0 0 0 127 0" result="hardAlpha"/>
<feOffset/>
<feGaussianBlur stdDeviation="2.5"/>
<feComposite in2="hardAlpha" operator="out"/>
<feColorMatrix type="matrix" values="0 0 0 0 0 0 0 0 0 0 0 0 0 0 0 0 0 0 0.25 0"/>
<feBlend mode="normal" in2="BackgroundImageFix" result="effect1_dropShadow_217_156"/>
<feBlend mode="normal" in="SourceGraphic" in2="effect1_dropShadow_217_156" result="shape"/>
</filter>
<linearGradient id="paint0_linear_217_156" x1="5.99898" y1="28.0505" x2="38.3026" y2="28.0505" gradientUnits="userSpaceOnUse">
<stop offset="0.02" stop-color="#E88327"/>
<stop offset="0.36" stop-color="#D47824"/>
</linearGradient>
<linearGradient id="paint1_linear_217_156" x1="7.43164" y1="30.2754" x2="37.0748" y2="30.2754" gradientUnits="userSpaceOnUse">
<stop offset="0.15" stop-color="#F3BB19"/>
<stop offset="0.73" stop-color="#D69316"/>
</linearGradient>
<linearGradient id="paint2_linear_217_156" x1="5.356" y1="21.2909" x2="37.7933" y2="21.2909" gradientUnits="userSpaceOnUse">
<stop offset="0.02" stop-color="#E88327"/>
<stop offset="0.36" stop-color="#D47824"/>
</linearGradient>
<linearGradient id="paint3_linear_217_156" x1="5.71011" y1="17.7049" x2="36.7765" y2="17.7049" gradientUnits="userSpaceOnUse">
<stop stop-color="#F7972A"/>
<stop offset="1" stop-color="#E78724"/>
</linearGradient>
<radialGradient id="paint4_radial_217_156" cx="0" cy="0" r="1" gradientUnits="userSpaceOnUse" gradientTransform="translate(22.3096 14.298) rotate(-16.3309) scale(15.0633 7.38712)">
<stop stop-color="#F6F8EA"/>
<stop offset="0.78" stop-color="#F6F8EA"/>
<stop offset="1" stop-color="#E6E3BF"/>
</radialGradient>
<radialGradient id="paint5_radial_217_156" cx="0" cy="0" r="1" gradientUnits="userSpaceOnUse" gradientTransform="translate(19.1153 14.7078) scale(7.15471 5.36603)">
<stop stop-color="#F5B75B"/>
<stop offset="0.58" stop-color="#F59936"/>
<stop offset="1" stop-color="#F5871F"/>
</radialGradient>
<linearGradient id="paint6_linear_217_156" x1="36.0834" y1="5.41686" x2="27.4455" y2="11.7254" gradientUnits="userSpaceOnUse">
<stop stop-color="#A3CD39"/>
<stop offset="0.17" stop-color="#9DC839"/>
<stop offset="0.41" stop-color="#8BBA3A"/>
<stop offset="0.69" stop-color="#6DA23B"/>
<stop offset="1" stop-color="#44823D"/>
</linearGradient>
<linearGradient id="paint7_linear_217_156" x1="24.9591" y1="7.783" x2="28.6207" y2="12.4612" gradientUnits="userSpaceOnUse">
<stop stop-color="#A3CD39"/>
<stop offset="0.17" stop-color="#9DC839"/>
<stop offset="0.41" stop-color="#8BBA3A"/>
<stop offset="0.69" stop-color="#6DA23B"/>
<stop offset="1" stop-color="#44823D"/>
</linearGradient>
<linearGradient id="paint8_linear_217_156" x1="27.3421" y1="12.5054" x2="31.5311" y2="14.841" gradientUnits="userSpaceOnUse">
<stop stop-color="#A3CD39"/>
<stop offset="0.17" stop-color="#9DC839"/>
<stop offset="0.41" stop-color="#8BBA3A"/>
<stop offset="0.69" stop-color="#6DA23B"/>
<stop offset="1" stop-color="#44823D"/>
</linearGradient>
</defs>
</svg>
