<svg width="27" height="22" viewBox="0 0 27 22" fill="none" xmlns="http://www.w3.org/2000/svg">
<path d="M13.8562 2.01099C13.8562 2.01099 -0.539381 15.7398 0.0156467 16.8511C0.210283 17.2378 3.17503 17.8293 6.64835 18.3881C7.18454 18.4747 6.94721 21.4018 7.7785 21.4709C8.47919 21.5274 8.73536 18.751 9.20374 18.82C10.1506 18.9582 11.3686 19.095 12.3192 19.2256C12.7097 19.2796 12.8428 21.4382 13.5134 21.4382C14.2429 21.4382 14.322 19.4969 14.7302 19.5546C18.7485 20.0858 22.0296 20.4675 22.0296 20.4675C22.0296 20.4675 25.9224 15.687 24.197 9.90695C22.7931 5.20302 18.6417 2.06624 13.8562 2.01099Z" fill="url(#paint0_linear_522_1818)"/>
<g style="mix-blend-mode:multiply" opacity="0.5">
<path d="M2.37898 16.1567C1.53263 15.9193 5.04613 11.4879 5.82467 11.7617C6.60322 12.0354 5.17421 14.69 6.32696 14.4853C7.88405 14.2065 10.1192 11.6888 9.88442 10.9279C9.66215 10.2046 7.49855 11.1501 7.10551 10.4256C6.91966 10.079 10.1619 6.14483 11.2745 5.81206C12.3871 5.47929 9.72368 9.63949 12.7814 6.90202C14.3724 5.47678 14.5846 4.46467 14.4515 3.82049C14.2719 2.96158 13.4896 2.53087 14.518 2.88121L14.572 2.90382C17.3509 3.84812 21.0578 8.14644 20.9473 9.2025C20.8368 10.2586 19.0574 7.64541 17.7226 8.14644C16.3878 8.64747 17.6561 13.1693 18.6556 13.2057C20.6509 13.2798 20.8908 11.0358 21.3353 11.2581C21.7798 11.4804 21.4885 17.9511 20.6685 18.6794C20.1662 19.1239 16.6665 18.4283 14.7767 18.0955C13.9416 17.9473 15.9445 17.0394 16.2773 16.3727C16.61 15.7059 15.775 13.9265 13.9994 13.7043C12.2238 13.482 11.6738 15.2664 12.4423 17.317C12.7726 18.2123 5.54716 17.0457 2.37898 16.1567Z" fill="#DC3732"/>
</g>
<g style="mix-blend-mode:overlay" opacity="0.7">
<path d="M16.6327 17.1852C21.3579 17.5732 20.9687 8.62498 17.6372 6.56812C14.3058 4.51125 12.524 11.6262 12.2452 12.1824C11.9664 12.7387 9.02176 9.56929 9.35704 8.56973C9.65841 7.66436 14.184 4.85155 13.0777 2.75952C11.1238 4.6431 5.94902 9.66598 2.72559 13.1958C3.64979 13.845 3.94238 15.0857 3.28564 16.6553C3.99009 16.9303 6.60576 17.4213 7.08042 17.6034C7.55508 17.7855 7.50485 19.9742 7.94937 19.9742C8.3939 19.9742 8.91377 15.3129 9.52531 14.7567C10.1368 14.2004 11.9112 16.7959 16.6327 17.1852Z" fill="#EFE1BE"/>
</g>
<g style="mix-blend-mode:multiply" opacity="0.3">
<path d="M24.1394 11.9879C24.1394 11.9879 22.9439 7.87415 22.861 12.5994C22.7782 17.3247 21.5827 19.8663 21.5827 19.8663C21.5827 19.8663 14.719 18.8843 14.4967 19.0789C14.2744 19.2736 13.9115 20.7704 13.5512 20.9361C13.2598 21.0705 12.8793 20.3962 12.7412 20.1262C12.922 20.739 13.1292 21.4384 13.511 21.4384C14.2405 21.4384 14.3197 19.4971 14.7278 19.5548C18.7461 20.086 22.0273 20.4678 22.0273 20.4678C22.9292 19.2641 23.6193 17.9153 24.0678 16.4796L24.1394 11.9879Z" fill="#D89B4C"/>
</g>
<g style="mix-blend-mode:multiply" opacity="0.7">
<path d="M22.2643 16.217C22.1812 15.9328 22.0233 15.6761 21.8073 15.4736C21.0739 14.7741 19.9475 14.8784 19.2958 15.4736C18.965 15.7965 18.7735 16.2358 18.7621 16.6979C18.7629 16.9996 18.8472 17.2951 19.0058 17.5518C19.2498 17.9385 19.6326 18.2171 20.0756 18.3303C20.541 18.4519 21.0352 18.3907 21.4569 18.1596C21.7954 17.9788 22.0614 17.687 22.21 17.3332C22.3587 16.9794 22.381 16.5853 22.2731 16.217H22.2643ZM20.4812 17.9335C19.7278 17.9335 19.0999 17.3672 19.0999 16.6879C19.0999 16.0085 19.7278 15.4422 20.4812 15.4422C21.2347 15.4422 21.8625 16.0085 21.8625 16.6879C21.8625 17.3672 21.2321 17.9373 20.4812 17.9373V17.9335Z" fill="#DAB156"/>
</g>
<path d="M22.0322 16.163C21.9486 15.8787 21.7903 15.622 21.5739 15.4196C20.8418 14.7202 19.7154 14.8244 19.0624 15.4196C18.7319 15.7427 18.5404 16.1819 18.5287 16.644C18.5292 16.9462 18.614 17.2424 18.7736 17.4991C19.0173 17.8853 19.3997 18.1635 19.8422 18.2764C20.3075 18.3975 20.8014 18.3369 21.2235 18.1069C21.5621 17.9259 21.8281 17.6339 21.9768 17.2799C22.1254 16.9259 22.1477 16.5315 22.0397 16.163H22.0322ZM20.2491 17.8796C19.4957 17.8796 18.8678 17.3133 18.8678 16.6339C18.8678 15.9546 19.4957 15.3882 20.2491 15.3882C21.0025 15.3882 21.6304 15.9558 21.6304 16.6339C21.6304 17.312 21.0013 17.8796 20.2516 17.8796H20.2491Z" fill="#FFE8C7"/>
<g style="mix-blend-mode:multiply" opacity="0.7">
<path d="M18.4133 12.7827C17.6875 12.8342 16.9667 12.2943 16.9529 11.7782C16.934 11.0637 17.5154 10.5827 18.3781 10.5827C18.6838 10.5801 18.9846 10.659 19.2496 10.8113C19.3992 10.6909 19.5618 10.5877 19.7343 10.5036C18.893 9.91216 17.6938 10.0365 16.9717 10.6103C16.7873 10.7651 16.6374 10.9568 16.5316 11.1731C16.4259 11.3894 16.3666 11.6255 16.3577 11.8661C16.3577 12.1775 16.5084 12.3106 16.6942 12.5793C16.9629 12.9661 17.3346 13.167 17.8495 13.285C18.0921 13.349 18.3419 13.3815 18.5928 13.3817C18.5376 13.231 18.4334 12.7815 18.4133 12.7827Z" fill="#DAB156"/>
</g>
<path d="M18.3341 12.9522H18.2739C17.4099 12.9522 16.6891 12.3746 16.6891 11.6827C16.6891 10.9908 17.4099 10.4132 18.2739 10.4132C18.5888 10.4119 18.8988 10.4915 19.1742 10.6442C19.3241 10.5243 19.4866 10.4212 19.6589 10.3366C18.8176 9.74512 17.6184 9.8707 16.8963 10.4446C16.7126 10.5983 16.5631 10.7888 16.4573 11.0037C16.3516 11.2187 16.2919 11.4534 16.2823 11.6927C16.284 12.0053 16.3822 12.3097 16.5636 12.5642C16.8627 12.9706 17.3006 13.253 17.7942 13.3578C18.0169 13.4083 18.2456 13.4269 18.4735 13.4131C18.413 13.2641 18.3663 13.1098 18.3341 12.9522Z" fill="#FFE8C7"/>
<path d="M13.8561 2.01111C13.8561 2.01111 13.6339 0.287009 15.412 0.00949489C17.1901 -0.268019 30.0863 5.51206 25.3623 20.7376C25.3623 20.7376 23.8052 20.6271 22.0271 20.4601C26.4736 5.17929 13.8561 2.01111 13.8561 2.01111Z" fill="url(#paint1_linear_522_1818)"/>
<g style="mix-blend-mode:multiply" opacity="0.5">
<path d="M20.1486 2.10156C21.6642 3.46025 24.2234 6.10856 25.297 9.30311C26.8692 13.9807 25.2166 18.6984 24.1669 18.4159C23.2879 18.1773 23.0003 16.1845 22.9337 15.5704C22.8076 17.2307 22.5032 18.8725 22.0259 20.4677C23.804 20.6347 25.3611 20.7452 25.3611 20.7452C28.4288 10.8564 24.0714 4.95204 20.1486 2.10156Z" fill="#D0C9D0"/>
</g>
<path d="M22.0322 20.4641C22.0322 20.4641 22.7228 18.9924 24.1204 19.1255C25.4289 19.251 25.3674 20.7416 25.3674 20.7416C25.3674 20.7416 23.7412 20.68 22.0322 20.4641Z" fill="#FBCE86"/>
<g style="mix-blend-mode:overlay" opacity="0.3">
<path d="M15.8011 1.3997C15.5637 1.9924 19.3045 3.11752 21.5774 6.40123C23.9632 9.84818 23.3919 13.3491 23.9632 13.3491C24.4655 13.3491 25.1298 9.56941 22.5731 5.73444C20.4434 2.52985 16.071 0.725379 15.8011 1.3997Z" fill="#FBD981"/>
</g>
<g style="mix-blend-mode:multiply" opacity="0.7">
<path d="M11.9676 10.5963C11.7503 11.145 11.081 11.518 10.4745 11.469C9.76504 11.4137 9.08193 10.9667 9.1535 10.2459C9.20248 9.74991 9.67839 9.34431 10.1581 9.18609C10.0677 9.0668 9.83661 8.77547 9.75876 8.65869C9.05681 8.86965 8.73284 9.42091 8.66126 10.1392C8.56081 11.1438 9.60431 11.9964 10.5838 12.1006C11.5205 12.2011 12.2062 11.744 12.5389 10.6729C12.3003 10.6251 12.2036 10.6402 11.9676 10.5963Z" fill="#DAB156"/>
</g>
<path d="M11.7804 10.5525C11.5631 11.1013 10.9453 11.635 10.3388 11.5872C9.62932 11.5307 8.78924 10.9041 8.86208 10.1833C8.91105 9.68734 9.45729 9.23277 9.93321 9.07455C9.86132 8.9311 9.80491 8.7804 9.76494 8.625C9.06425 8.83722 8.43638 9.35834 8.36481 10.0766C8.26435 11.0812 9.30911 11.9338 10.2873 12.0393C11.2241 12.1398 12.0014 11.6977 12.3341 10.6266C12.1759 10.5965 11.9072 10.5814 11.7804 10.5525Z" fill="#FFE8C7"/>
<g style="mix-blend-mode:multiply" opacity="0.3">
<path d="M6.64831 18.3882C6.53027 17.7126 0.654758 16.472 0.0319214 16.8738C0.327015 17.2618 3.2428 17.8394 6.64831 18.3882Z" fill="#D89B4C"/>
</g>
<path d="M12.363 12.1825C12.363 12.1825 12.3806 10.987 10.8662 10.9807C9.35184 10.9745 8.60594 12.7111 8.6637 12.9057C8.72146 13.1004 9.45104 13.7709 10.7708 13.7295C12.0906 13.6881 12.633 12.9572 12.7272 12.6873C12.7774 12.5315 12.6343 12.2603 12.363 12.1825Z" fill="url(#paint2_linear_522_1818)"/>
<g style="mix-blend-mode:multiply" opacity="0.1">
<path d="M12.3632 12.1824C12.3632 12.1824 12.3808 10.987 10.8664 10.9807H10.7634C10.9493 11.0058 12.0869 11.1942 12.1447 12.1561C12.2113 13.2573 10.609 13.6629 9.96478 13.6629C10.2295 13.7174 10.4997 13.7401 10.7697 13.7307C12.0907 13.6893 12.6319 12.9585 12.7261 12.6885C12.7776 12.5315 12.6344 12.2603 12.3632 12.1824Z" fill="#404641"/>
</g>
<g style="mix-blend-mode:multiply" opacity="0.1">
<path d="M12.3441 12.0293C11.0319 11.9904 9.95069 12.3784 9.94818 12.4701C9.94818 12.509 10.5459 12.3056 11.1537 12.219C11.5518 12.1548 11.9565 12.1421 12.3579 12.1813C12.3574 12.1304 12.3528 12.0795 12.3441 12.0293Z" fill="#404641"/>
</g>
<g style="mix-blend-mode:overlay" opacity="0.2">
<path d="M9.98598 11.5708C9.42593 11.6235 8.9814 12.5402 9.0266 12.8001C9.06553 13.0048 9.73734 13.4556 10.3614 13.3426C10.8198 13.2585 10.4242 11.5294 9.98598 11.5708Z" fill="white"/>
</g>
<path d="M16.6326 16.4168C16.6326 16.4168 17.499 14.9187 18.4659 14.4591C19.7631 13.8413 20.6571 14.4378 20.9334 14.9476C21.1933 15.4273 21.2524 16.6504 20.2528 17.0761C18.9104 17.6487 17.386 16.9367 16.6326 16.4168Z" fill="url(#paint3_linear_522_1818)"/>
<g style="mix-blend-mode:multiply" opacity="0.1">
<path d="M20.7325 15.2515C20.7325 15.2515 19.4654 15.2515 18.3805 15.907C18.3805 15.907 19.7392 15.4587 20.8467 15.48L20.7325 15.2515Z" fill="#404641"/>
</g>
<g style="mix-blend-mode:multiply" opacity="0.2">
<path d="M20.9332 14.9487C20.7022 14.523 20.0417 14.0383 19.0748 14.248C19.7968 14.4188 20.1723 14.7792 20.338 15.2048C20.5452 15.7348 20.3744 17.1675 18.5449 17.2278C19.1165 17.3473 19.7108 17.2949 20.2526 17.0771C21.2522 16.6514 21.1932 15.4284 20.9332 14.9487Z" fill="#404641"/>
</g>
<path d="M3.88198 15.1986C4.14066 15.942 5.04226 16.1805 5.16909 16.0989C5.29592 16.0173 5.43279 15.2312 4.98073 14.6172C4.64545 14.1614 3.69864 14.6724 3.88198 15.1986Z" fill="#708800"/>
<g style="mix-blend-mode:overlay" opacity="0.2">
<path d="M17.1059 16.3427C17.023 16.0652 17.7526 15.2126 18.1695 15.0506C18.5864 14.8886 19.1075 16.7383 18.6279 16.8425C18.0552 16.9706 17.1624 16.5298 17.1059 16.3427Z" fill="white"/>
</g>
<path d="M16.6551 5.90001C17.8015 8.37629 14.5856 9.87562 14.3132 9.74377C14.062 9.6182 12.2764 4.62043 12.5752 4.35548C12.8389 4.12317 15.6141 3.65981 16.6551 5.90001Z" fill="#D62E14"/>
<path d="M14.1649 9.51279C13.753 8.67899 12.7485 5.83855 12.5689 4.7624C13.458 4.48238 15.5299 4.53386 16.1866 6.14369C16.8233 7.69451 14.9912 9.22899 14.1649 9.51279Z" fill="#FF6341"/>
<path d="M13.5511 6.56942C13.3564 6.56942 13.0237 5.51588 13.1517 5.33631C13.2798 5.15674 15.2048 5.16176 15.7134 6.46646C16.222 7.77115 14.518 8.92139 14.3547 8.74056C14.1915 8.55974 13.8122 7.65311 13.9667 7.55516C14.1212 7.45722 14.6373 7.8377 14.7327 7.70334C14.9738 7.36555 14.3974 6.1362 14.0119 6.02821C13.762 5.95663 13.7206 6.56566 13.5511 6.56942Z" fill="#E52E14"/>
<path d="M14.0896 5.8423C14.0117 5.80965 14.0369 5.54344 14.2026 5.59116C14.3684 5.63887 14.1524 5.86867 14.0896 5.8423Z" fill="#E0AD54"/>
<path d="M14.5293 6.11225C14.474 6.05826 14.5695 5.77446 14.7089 5.84353C14.8482 5.91259 14.5745 6.1562 14.5293 6.11225Z" fill="#E0AD54"/>
<path d="M14.8997 6.5479C14.8808 6.50395 15.0617 6.18123 15.1897 6.32941C15.3178 6.47758 14.926 6.60315 14.8997 6.5479Z" fill="#E0AD54"/>
<path d="M15.1735 6.9926C15.1597 6.93232 15.4246 6.72387 15.4874 6.89088C15.5427 7.03152 15.1898 7.0692 15.1735 6.9926Z" fill="#E0AD54"/>
<path d="M15.0854 7.43454C15.0577 7.52118 15.3365 7.65429 15.3578 7.52997C15.3792 7.40565 15.1004 7.38179 15.0854 7.43454Z" fill="#E0AD54"/>
<path d="M14.8356 7.8038C14.7766 7.84775 14.9286 8.14159 15.0391 8.02732C15.1496 7.91305 14.8909 7.76362 14.8356 7.8038Z" fill="#E0AD54"/>
<path d="M9.70201 15.6696C9.61411 15.9847 11.573 18.7536 13.8672 17.032C15.9178 15.4912 14.8153 12.9785 14.5202 12.8404C14.2251 12.7023 9.82507 15.2275 9.70201 15.6696Z" fill="#FF6341"/>
<path d="M11.7428 14.7203C11.7026 14.5545 10.3226 15.2364 10.3527 15.4875C10.3829 15.7387 12.0002 17.0986 13.2057 16.3891C14.5431 15.6031 14.1211 13.5261 13.8009 13.4696C13.6352 13.4407 12.3945 14.1653 12.5553 14.2444C12.7662 14.3486 13.4682 14.1188 13.4179 14.4001C13.3137 14.984 12.4334 15.8843 11.4816 15.5202C11.233 15.4247 11.783 14.8873 11.7428 14.7203Z" fill="#E52E14"/>
<path opacity="0.5" d="M13.9388 15.0016C13.9225 14.9564 13.5923 14.8446 13.2834 14.7505C12.9845 15.2779 12.2562 15.8203 11.4814 15.5227C11.2303 15.4273 11.7828 14.8949 11.7426 14.7228C11.7099 14.5885 10.8033 15.0079 10.4718 15.3067C10.6808 15.5999 10.9459 15.8487 11.2518 16.0386C11.5576 16.2285 11.8982 16.3558 12.2537 16.413C13.2997 16.5939 13.969 15.087 13.9388 15.0016Z" fill="#FF5841"/>
<path d="M11.5004 15.6659C11.4464 15.6357 11.2028 15.8843 11.3623 15.9572C11.5217 16.03 11.5732 15.7073 11.5004 15.6659Z" fill="#E0AD54"/>
<path d="M11.9988 15.7837C11.9209 15.7623 11.7778 16.1051 11.941 16.1227C12.1043 16.1403 12.0603 15.8 11.9988 15.7837Z" fill="#E0AD54"/>
<path d="M12.9771 15.5328C12.9219 15.5792 13.0663 15.8982 13.2132 15.7839C13.3601 15.6696 13.0399 15.48 12.9771 15.5328Z" fill="#E0AD54"/>
<path d="M13.3351 15.0869C13.3037 15.1459 13.5197 15.4134 13.629 15.2577C13.7382 15.1019 13.3678 15.0279 13.3351 15.0869Z" fill="#E0AD54"/>
<path d="M13.5158 14.6148C13.4907 14.6738 13.8046 14.8383 13.8348 14.66C13.8612 14.5018 13.5485 14.5382 13.5158 14.6148Z" fill="#E0AD54"/>
<path d="M12.4887 15.8404C12.4347 15.8404 12.4397 16.1995 12.5828 16.1443C12.726 16.089 12.5552 15.8303 12.4887 15.8404Z" fill="#E0AD54"/>
<path d="M14.121 12.9522C14.5505 13.9793 14.7389 15.7512 13.5497 16.5937C12.1081 17.6146 10.4104 16.1367 9.85662 15.4887C9.79309 15.5367 9.74187 15.5991 9.70719 15.6708C9.61929 15.986 11.5782 18.7548 13.8724 17.0332C15.923 15.4925 14.8205 12.9798 14.5254 12.8417C14.4739 12.8191 14.3282 12.8617 14.121 12.9522Z" fill="#D62E14"/>
<path d="M17.7804 6.47143C17.5079 6.62463 17.2304 8.56094 17.6887 9.29428C18.2475 10.1909 20.1537 9.84554 19.885 8.19804C19.7129 7.14701 18.0529 6.31823 17.7804 6.47143Z" fill="url(#paint4_linear_522_1818)"/>
<path d="M15.6177 12.8732C15.4921 12.946 15.4821 13.9293 15.7018 14.2809C15.968 14.7091 16.8809 14.5446 16.7516 13.756C16.67 13.2537 15.7533 12.8004 15.6177 12.8732Z" fill="#708800"/>
<g style="mix-blend-mode:multiply" opacity="0.1">
<path d="M18.029 7.09036C17.9474 7.1318 18.7824 9.19118 18.8917 9.12839C18.9733 9.07942 18.1395 7.03762 18.029 7.09036Z" fill="#404641"/>
</g>
<path d="M8.07971 13.3765C7.98805 12.7185 7.35391 12.205 6.66326 12.2175C5.97261 12.2301 5.30081 12.7826 5.27192 13.531C5.24304 14.2794 5.89225 14.906 6.58666 14.9474C7.43302 14.9989 8.1965 14.199 8.07971 13.3765ZM6.66326 14.2781C6.57137 14.2797 6.48012 14.2627 6.39494 14.2282C6.30977 14.1937 6.23241 14.1424 6.16749 14.0774C6.10256 14.0123 6.0514 13.9349 6.01706 13.8496C5.98272 13.7644 5.9659 13.6731 5.96759 13.5812C5.98278 13.4162 6.05822 13.2625 6.17952 13.1495C6.30082 13.0366 6.45946 12.9722 6.62518 12.9688C6.79089 12.9654 6.95206 13.0231 7.07791 13.131C7.20375 13.2389 7.28547 13.3893 7.30744 13.5536C7.31305 13.6435 7.3008 13.7337 7.27141 13.8189C7.24201 13.9041 7.19605 13.9826 7.13617 14.05C7.07629 14.1173 7.00368 14.1721 6.92252 14.2113C6.84135 14.2505 6.75324 14.2732 6.66326 14.2781Z" fill="#404641"/>
<path d="M21.6779 11.8546C21.585 11.1966 20.9521 10.683 20.2615 10.6955C19.5708 10.7081 18.899 11.2606 18.8701 12.009C18.8412 12.7574 19.4905 13.384 20.1836 13.4255C21.0275 13.477 21.7934 12.6758 21.6779 11.8546ZM20.3142 12.7336C20.2239 12.7386 20.1334 12.7257 20.0481 12.6955C19.9628 12.6652 19.8844 12.6183 19.8174 12.5575C19.7505 12.4966 19.6963 12.423 19.658 12.341C19.6198 12.259 19.5982 12.1702 19.5946 12.0798C19.591 11.9894 19.6055 11.8991 19.6371 11.8144C19.6688 11.7296 19.717 11.652 19.7789 11.586C19.8409 11.52 19.9153 11.4671 19.998 11.4302C20.0806 11.3933 20.1697 11.3732 20.2602 11.3711C20.4354 11.3638 20.6069 11.4226 20.7406 11.5359C20.8744 11.6492 20.9606 11.8087 20.9823 11.9826C20.9925 12.1703 20.928 12.3543 20.8027 12.4944C20.6775 12.6344 20.5018 12.7191 20.3142 12.7298V12.7336Z" fill="#404641"/>
<path d="M12.6507 7.33029C12.564 6.70243 11.9651 6.224 11.3121 6.2353C10.6591 6.24661 10.0237 6.76898 9.99736 7.47595C9.96973 8.20176 10.5838 8.77562 11.2393 8.8158C12.0392 8.86478 12.7612 8.10758 12.6507 7.33029ZM11.3385 8.15781C11.2505 8.17271 11.1603 8.16868 11.074 8.14599C10.9877 8.1233 10.9072 8.08248 10.8379 8.02623C10.7687 7.96999 10.7122 7.89962 10.6722 7.81982C10.6323 7.74002 10.6098 7.65262 10.6063 7.56345C10.6028 7.47428 10.6183 7.38538 10.6519 7.30269C10.6854 7.22 10.7362 7.14541 10.8009 7.0839C10.8655 7.02238 10.9425 6.97536 11.0268 6.94596C11.1111 6.91655 11.2006 6.90545 11.2895 6.91339C11.3775 6.89849 11.4676 6.90252 11.5539 6.92521C11.6403 6.9479 11.7207 6.98872 11.79 7.04497C11.8593 7.10121 11.9158 7.17158 11.9558 7.25138C11.9957 7.33118 12.0182 7.41858 12.0217 7.50775C12.0252 7.59692 12.0097 7.68582 11.9761 7.76851C11.9426 7.8512 11.8918 7.92579 11.8271 7.9873C11.7625 8.04882 11.6854 8.09584 11.6012 8.12524C11.5169 8.15465 11.4274 8.16575 11.3385 8.15781Z" fill="#404641"/>
<g style="mix-blend-mode:multiply" opacity="0.5">
<path d="M13.438 11.7317C13.4169 11.6803 13.3825 11.6355 13.3384 11.6017C13.2942 11.568 13.242 11.5465 13.1868 11.5396C13.1238 11.5318 13.0599 11.5425 13.0028 11.5703C12.9457 11.5982 12.898 11.6421 12.8654 11.6966V11.7053C12.8421 11.7469 12.8285 11.7932 12.8256 11.8408C12.8227 11.8884 12.8305 11.936 12.8485 11.9801C12.8664 12.0242 12.8941 12.0638 12.9294 12.0958C12.9647 12.1278 13.0068 12.1514 13.0525 12.1649H13.0625L13.1467 12.1762L13.232 12.1649C13.2853 12.1491 13.334 12.1207 13.3739 12.0821C13.4181 12.0366 13.4478 11.979 13.4592 11.9166C13.4706 11.8542 13.4632 11.7899 13.438 11.7317Z" fill="#DC3732"/>
</g>
<g style="mix-blend-mode:multiply" opacity="0.5">
<path d="M13.3951 10.6267C13.3548 10.6267 13.3155 10.6386 13.2821 10.661C13.2486 10.6833 13.2225 10.7151 13.2071 10.7523C13.1917 10.7895 13.1877 10.8304 13.1956 10.8698C13.2034 10.9093 13.2228 10.9455 13.2512 10.974C13.2797 11.0024 13.3159 11.0218 13.3554 11.0297C13.3949 11.0375 13.4358 11.0335 13.4729 11.0181C13.5101 11.0027 13.5419 10.9766 13.5642 10.9432C13.5866 10.9097 13.5985 10.8704 13.5985 10.8301C13.5979 10.7764 13.5762 10.725 13.5382 10.687C13.5002 10.649 13.4488 10.6274 13.3951 10.6267Z" fill="#DC3732"/>
</g>
<path d="M18.3251 17.7652C18.2938 17.7149 18.2504 17.6731 18.1989 17.6437C18.1474 17.6143 18.0893 17.5983 18.03 17.597H18.0137C17.9539 17.596 17.8951 17.6121 17.8442 17.6434C17.7822 17.68 17.7341 17.7361 17.7073 17.8029C17.6813 17.8642 17.6739 17.9318 17.6862 17.9973C17.6985 18.0628 17.7299 18.1231 17.7764 18.1708L17.7864 18.1809C17.8262 18.2196 17.8747 18.2481 17.9279 18.2638C17.9811 18.2795 18.0374 18.2821 18.0918 18.2712C18.1462 18.2603 18.1971 18.2363 18.2402 18.2013C18.2833 18.1664 18.3172 18.1214 18.3389 18.0704C18.3612 18.0221 18.3715 17.9692 18.3691 17.9161C18.3667 17.863 18.3516 17.8113 18.3251 17.7652Z" fill="#FBB454"/>
<path d="M8.23552 11.9226C8.18411 11.9226 8.13385 11.9379 8.09111 11.9664C8.04836 11.995 8.01505 12.0356 7.99537 12.0831C7.9757 12.1306 7.97055 12.1828 7.98058 12.2333C7.99061 12.2837 8.01536 12.33 8.05171 12.3663C8.08807 12.4027 8.13438 12.4275 8.1848 12.4375C8.23523 12.4475 8.2875 12.4424 8.33499 12.4227C8.38249 12.403 8.42308 12.3697 8.45164 12.327C8.48021 12.2842 8.49545 12.234 8.49545 12.1825C8.4948 12.1138 8.4672 12.0481 8.4186 11.9995C8.36999 11.9509 8.30425 11.9233 8.23552 11.9226Z" fill="#F69734"/>
<g style="mix-blend-mode:overlay" opacity="0.7">
<path d="M16.0736 9.86678C16.0528 9.79443 16.0044 9.73313 15.9389 9.69603C15.8734 9.65893 15.796 9.649 15.7232 9.66837C15.6724 9.68592 15.624 9.70953 15.5788 9.73869C15.5411 9.76085 15.5097 9.7925 15.488 9.8305C15.4662 9.86849 15.4548 9.91152 15.4548 9.9553C15.4548 9.99909 15.4662 10.0421 15.488 10.0801C15.5097 10.1181 15.5411 10.1498 15.5788 10.1719C15.6327 10.2065 15.6947 10.2263 15.7587 10.2291C15.8227 10.232 15.8862 10.2179 15.943 10.1882C15.9969 10.1563 16.0389 10.1076 16.0625 10.0495C16.0861 9.99147 16.09 9.92727 16.0736 9.86678Z" fill="#EFE1BE"/>
</g>
<path d="M6.75119 16.0689C6.71941 16.0365 6.6812 16.0112 6.63902 15.9946C6.59684 15.9779 6.55163 15.9703 6.50632 15.9722C6.43485 15.9745 6.36519 15.9952 6.30415 16.0325C6.23287 16.0754 6.18115 16.1444 6.16004 16.2249C6.13893 16.3053 6.15009 16.3908 6.19114 16.4632C6.23271 16.534 6.30029 16.5859 6.37949 16.6076C6.44971 16.6272 6.52476 16.6191 6.5892 16.585C6.59458 16.5862 6.60014 16.5862 6.60552 16.585C6.66174 16.5708 6.71246 16.5402 6.75119 16.4971C6.77947 16.4691 6.80193 16.4357 6.81725 16.399C6.83257 16.3622 6.84046 16.3228 6.84046 16.283C6.84046 16.2432 6.83257 16.2038 6.81725 16.167C6.80193 16.1303 6.77947 16.0969 6.75119 16.0689Z" fill="#F69128"/>
<g style="mix-blend-mode:overlay" opacity="0.7">
<path d="M16.4543 9.26171C16.4384 9.26042 16.4225 9.26042 16.4066 9.26171C16.3709 9.26171 16.3368 9.27587 16.3116 9.30107C16.2864 9.32626 16.2722 9.36044 16.2722 9.39607C16.2722 9.43171 16.2864 9.46588 16.3116 9.49108C16.3368 9.51628 16.3709 9.53044 16.4066 9.53044C16.4225 9.53173 16.4384 9.53173 16.4543 9.53044C16.4845 9.52323 16.5114 9.50605 16.5307 9.48167C16.5499 9.45729 16.5604 9.42714 16.5604 9.39607C16.5604 9.36501 16.5499 9.33486 16.5307 9.31048C16.5114 9.2861 16.4845 9.26892 16.4543 9.26171Z" fill="#EFE1BE"/>
</g>
<path d="M6.03793 15.2839L5.99398 15.2902C5.96418 15.293 5.93579 15.3042 5.91203 15.3224C5.88828 15.3406 5.87012 15.3651 5.85964 15.3931C5.84916 15.4212 5.84679 15.4516 5.85278 15.4809C5.85877 15.5102 5.87289 15.5373 5.89352 15.5589C5.88096 15.5338 5.89352 15.5413 5.91612 15.5828C5.93736 15.6042 5.96373 15.6197 5.99272 15.628C6.0339 15.6386 6.07711 15.6386 6.11829 15.628C6.16392 15.6173 6.20344 15.589 6.22817 15.5492C6.2529 15.5094 6.2608 15.4614 6.25014 15.4158C6.23949 15.3702 6.21114 15.3306 6.17134 15.3059C6.13154 15.2812 6.08355 15.2733 6.03793 15.2839Z" fill="#F69128"/>
<path d="M7.03769 15.416C7.01865 15.4085 6.99805 15.4057 6.9777 15.408C6.95735 15.4102 6.93786 15.4174 6.92092 15.429C6.90399 15.4405 6.89013 15.456 6.88055 15.4741C6.87097 15.4922 6.86597 15.5123 6.86597 15.5328C6.86597 15.5533 6.87097 15.5734 6.88055 15.5915C6.89013 15.6096 6.90399 15.6251 6.92092 15.6366C6.93786 15.6481 6.95735 15.6553 6.9777 15.6576C6.99805 15.6599 7.01865 15.6571 7.03769 15.6496C7.06572 15.6455 7.09133 15.6314 7.10985 15.61C7.12837 15.5885 7.13856 15.5611 7.13856 15.5328C7.13856 15.5045 7.12837 15.4771 7.10985 15.4556C7.09133 15.4342 7.06572 15.4201 7.03769 15.416Z" fill="#F69128"/>
<path d="M7.84248 11.4114C7.79477 11.0811 8.26064 11.1489 8.23678 11.3875C8.21292 11.6261 7.86132 11.5784 7.84248 11.4114Z" fill="#F69734"/>
<g style="mix-blend-mode:multiply" opacity="0.5">
<path d="M15.1935 16.5813C14.9148 16.398 15.3091 16.015 15.4736 16.1908C15.6381 16.3666 15.3354 16.6742 15.1935 16.5813Z" fill="#DC3732"/>
</g>
<defs>
<linearGradient id="paint0_linear_522_1818" x1="8.82702" y1="22.0158" x2="19.6777" y2="4.89412" gradientUnits="userSpaceOnUse">
<stop stop-color="#FFCE6E"/>
<stop offset="1" stop-color="#FBB454"/>
</linearGradient>
<linearGradient id="paint1_linear_522_1818" x1="13.8473" y1="10.3704" x2="26.3957" y2="10.3704" gradientUnits="userSpaceOnUse">
<stop stop-color="#E08D33"/>
<stop offset="1" stop-color="#D76B27"/>
</linearGradient>
<linearGradient id="paint2_linear_522_1818" x1="8.66747" y1="12.293" x2="13.5547" y2="12.4424" gradientUnits="userSpaceOnUse">
<stop stop-color="#879C00"/>
<stop offset="0.27" stop-color="#819600"/>
<stop offset="0.63" stop-color="#6F8700"/>
<stop offset="1" stop-color="#567100"/>
</linearGradient>
<linearGradient id="paint3_linear_522_1818" x1="17.5556" y1="18.1449" x2="21.5492" y2="15.5085" gradientUnits="userSpaceOnUse">
<stop stop-color="#879C00"/>
<stop offset="0.27" stop-color="#819600"/>
<stop offset="0.63" stop-color="#6F8700"/>
<stop offset="1" stop-color="#567100"/>
</linearGradient>
<linearGradient id="paint4_linear_522_1818" x1="17.1387" y1="8.03982" x2="19.949" y2="8.23069" gradientUnits="userSpaceOnUse">
<stop stop-color="#879C00"/>
<stop offset="0.27" stop-color="#819600"/>
<stop offset="0.63" stop-color="#6F8700"/>
<stop offset="1" stop-color="#567100"/>
</linearGradient>
</defs>
</svg>
