<svg width="40" height="32" viewBox="0 0 40 32" fill="none" xmlns="http://www.w3.org/2000/svg">
<path d="M6.028 24.847C6.028 24.847 5.07347 31.5452 20.4521 31.5452C35.8308 31.5452 35.0173 25.1512 35.0173 25.1512C35.0173 25.1512 18.8967 15.8716 6.028 24.847Z" fill="#E08C30"/>
<g style="mix-blend-mode:multiply" opacity="0.2">
<path d="M35.0175 25.1512C35.0175 25.1512 18.8951 15.8716 6.02821 24.847C6.02821 24.847 5.66178 27.357 8.92292 29.3046C16.7387 25.0742 27.2806 27.357 30.5784 30.0924C35.4041 28.2053 35.0175 25.1512 35.0175 25.1512Z" fill="#A33322"/>
</g>
<path d="M26.5476 26.6938C26.5476 26.6938 36.5399 27.8316 37.5017 26.7323C38.2584 25.8694 36.0635 22.3591 35.4718 21.6757C35.0596 21.2085 26.5476 26.6938 26.5476 26.6938Z" fill="#FDBE10"/>
<g style="mix-blend-mode:multiply" opacity="0.4">
<path d="M37.4944 26.7324C37.6776 26.5291 37.6776 26.1828 37.597 25.7596C35.1016 26.2158 30.776 25.646 30.776 25.646L29.1968 26.9505C32.2271 27.2051 36.855 27.4634 37.4944 26.7324Z" fill="#CD8100"/>
</g>
<path d="M8.56909 23.7278C8.56909 23.7278 20.7727 30.7265 25.2834 30.3454C27.513 30.1622 33.711 23.2002 33.711 23.2002L8.56909 23.7278Z" fill="#FDBE10"/>
<g style="mix-blend-mode:multiply" opacity="0.4">
<path d="M33.5865 23.1982C33.5865 23.1982 33.2585 21.4742 30.9373 24.3341C27.83 28.1559 25.168 28.9034 25.168 28.9034C25.168 28.9034 25.2724 30.1749 25.2834 30.3507C27.5131 30.1675 33.7111 23.2055 33.7111 23.2055L33.5865 23.1982Z" fill="#CD8100"/>
</g>
<path d="M6.05556 22.0532C6.05556 22.0532 3.73978 25.384 3.49061 26.1571C3.38618 26.4778 3.5987 27.1501 3.62068 27.1721C4.20696 27.2252 12.5852 26.5712 15.8207 25.5672C19.2009 24.5192 6.05556 22.0532 6.05556 22.0532Z" fill="#FDBE10"/>
<g style="mix-blend-mode:multiply" opacity="0.4">
<path d="M15.0895 24.303C14.7799 24.3634 15.0108 24.7079 14.3457 24.8746C11.8559 25.4938 5.58826 26.2542 3.46485 26.2835C3.45864 26.5868 3.51089 26.8885 3.61874 27.172C4.20501 27.2252 12.5832 26.5711 15.8187 25.5671C16.8648 25.2392 16.328 24.783 15.0895 24.303Z" fill="#CD8100"/>
</g>
<path d="M4.91038 20.7413C4.61358 17.2823 12.8525 12.8633 20.5071 12.8028C28.2568 12.7332 36.6717 17.1083 36.4115 20.5984C36.1514 24.0886 27.2016 26.615 20.3183 26.5637C13.8639 26.5216 5.20535 24.171 4.91038 20.7413Z" fill="#9C4D0A"/>
<g style="mix-blend-mode:multiply" opacity="0.5">
<path d="M36.4116 20.5985C36.4757 19.7392 36.014 18.8269 35.1658 17.9401L14.0508 17.418L15.5549 24.2792C15.5549 24.2792 16.4582 26.0948 18.697 23.3503C18.697 23.3503 24.0339 24.7665 26.7015 21.9781C26.7015 21.9781 28.0352 24.4111 32.511 22.2437C32.511 22.2437 33.374 22.8721 32.7767 24.1491C34.8854 23.1763 36.309 21.9598 36.4116 20.5985Z" fill="#9C4D0A"/>
</g>
<g style="mix-blend-mode:multiply" opacity="0.3">
<path d="M8.05604 23.6178C7.99741 22.0092 7.81787 20.7633 8.52873 19.3691C8.98675 17.9199 10.2765 16.4103 11.385 15.3513C11.7338 14.9647 12.115 14.6085 12.5245 14.2869C8.0707 15.89 4.71979 18.5135 4.91032 20.7414C5.01842 22.0037 6.26241 23.1231 8.10917 24.0263L8.05604 23.6178Z" fill="#9C4D0A"/>
</g>
<path d="M14.3695 20.7341C14.3695 20.7341 14.0251 24.3397 15.0218 24.6823C16.7604 25.2777 20.071 20.2156 20.071 20.2156L17.6747 18.5906L14.3695 20.7341Z" fill="#5B7C38"/>
<path d="M28.792 20.397C28.792 20.397 29.0265 23.6838 27.9786 23.7443C26.588 23.8231 23.5999 19.9885 23.5999 19.9885L25.9981 18.3616L28.792 20.397Z" fill="#6C8E3E"/>
<path d="M14.5144 15.5017C14.4686 14.3805 14.9395 13.12 15.6137 12.2186C14.1741 11.5663 12.6138 11.223 11.0334 11.2109C7.83273 11.2329 3.99631 11.8558 2.86407 14.0818C2.63872 14.5252 2.68086 16.0972 2.68086 16.5643C2.66986 19.5122 6.72431 21.9782 11.4749 21.9782C14.0179 21.9782 16.1321 21.3406 17.5777 20.3293C15.8115 19.5598 14.6042 17.6599 14.5144 15.5017Z" fill="#E82014"/>
<g style="mix-blend-mode:multiply" opacity="0.5">
<path d="M5.27135 20.3585C6.88177 21.3533 9.09678 21.9781 11.4895 21.9781C13.1113 22.0049 14.7216 21.7006 16.2218 21.084L16.2438 19.4351C15.1791 18.3978 14.559 16.9874 14.5143 15.5016V15.4741L5.20173 14.3877L2.71924 14.8109C2.66611 15.4412 2.68993 16.2473 2.6881 16.5642C2.69287 17.2246 2.88334 17.8703 3.23773 18.4275V16.5954C3.23773 16.5954 5.01303 16.861 5.97305 16.5954L8.19173 17.6598C8.19173 17.6598 6.39443 19.098 5.27135 20.3585Z" fill="#CA2B1E"/>
</g>
<g style="mix-blend-mode:multiply">
<path d="M9.53096 21.8352V19.9756L5.98218 20.7524C7.10029 21.299 8.29815 21.6645 9.53096 21.8352Z" fill="#CA2B1E"/>
</g>
<path d="M14.5143 15.5015C14.4612 14.2099 15.0933 12.735 15.9305 11.8373C16.2067 11.544 16.5188 11.2867 16.8594 11.0715C15.1102 10.0131 13.1089 9.44366 11.0645 9.42261C7.21707 9.44826 2.73025 11.9234 2.71926 14.776C2.70827 17.7239 6.76088 20.1899 11.5133 20.1899C13.0962 20.2142 14.6682 19.9259 16.1394 19.3416C15.1372 18.3094 14.5574 16.9396 14.5143 15.5015Z" fill="#FF5841"/>
<g style="mix-blend-mode:multiply" opacity="0.5">
<path d="M2.73022 14.8109C2.74014 15.4416 2.92125 16.0578 3.2542 16.5935C3.34214 16.6064 5.05516 16.8226 6.21305 16.7456L8.20455 17.6617C8.20455 17.6617 7.35444 18.3395 6.45855 19.1731C8.05947 19.8561 9.78384 20.2022 11.5243 20.19C13.1071 20.2143 14.6792 19.926 16.1504 19.3417C15.1438 18.3088 14.5612 16.9359 14.518 15.4943V15.4668L5.2054 14.3804L2.73022 14.8109Z" fill="#CA2B1E"/>
</g>
<path d="M6.44584 12.563C6.44584 12.563 -0.065458 12.8396 0.000497707 14.6296C0.0517966 16.0165 6.0043 16.1099 6.0043 16.1099C6.0043 16.1099 2.82744 20.6755 4.07143 21.3406C6.0043 22.3739 14.1388 17.9732 14.672 16.5606C15.086 15.4614 9.03643 12.77 6.44584 12.563Z" fill="url(#paint0_linear_218_550)"/>
<path d="M7.18228 17.9749C7.18228 17.9749 5.1798 18.2863 5.1798 18.4823C5.1798 18.6784 6.89831 18.6784 6.89831 18.6784C6.89831 18.6784 4.56238 20.3474 4.74559 20.69C4.9288 21.0326 8.27605 18.1874 8.27605 18.1874L7.18228 17.9749Z" fill="#79AD41"/>
<path d="M30.4225 11.1631C28.9793 11.2042 27.5552 11.5039 26.2179 12.048C26.9964 13.0265 27.439 14.2298 27.4802 15.4796C27.5333 16.762 26.9104 18.2277 26.0804 19.1236C25.5498 19.6901 24.8897 20.1194 24.1567 20.3749C25.5931 21.291 27.6762 21.8223 30.3859 21.7069C35.0797 21.5072 38.2639 19.4094 38.3592 16.6576C38.383 15.9358 38.6193 14.6423 38.1906 13.9956C36.9045 12.0352 33.407 11.132 30.4225 11.1631Z" fill="#E82014"/>
<g style="mix-blend-mode:multiply">
<path d="M38.3592 16.6632C38.3592 16.5203 38.3775 16.3517 38.3922 16.1703L31.6757 12.8726L27.482 15.7416C27.4132 16.9972 26.9189 18.192 26.0804 19.1292C25.5498 19.6956 24.8897 20.125 24.1567 20.3805C25.5931 21.2966 27.6762 21.8279 30.3859 21.7124C31.2173 21.6789 32.0445 21.5772 32.8592 21.4083V19.5231C32.8592 19.5231 33.8577 18.0006 33.931 17.2788C34.9315 17.4702 35.9451 17.5847 36.9631 17.6214L37.0309 19.4223C37.8535 18.6437 38.3244 17.6983 38.3592 16.6632Z" fill="#CA2B1E"/>
</g>
<path d="M30.3952 9.43179C28.4451 9.50965 26.5395 10.0376 24.8274 10.9744C25.5346 15.6591 25.9395 19.2189 25.8662 19.294C27.1047 19.6916 28.6144 19.8876 30.4098 19.8033C35.1018 19.5798 38.2879 17.5004 38.3575 14.7962C38.4399 11.9564 34.3763 9.36217 30.3952 9.43179Z" fill="#FF5841"/>
<g style="mix-blend-mode:multiply" opacity="0.5">
<path d="M38.3591 14.7962C38.4268 12.4437 35.6494 10.2617 32.434 9.62231L25.2229 13.6859C25.6828 16.9709 25.9264 19.239 25.8678 19.294C27.1063 19.6915 28.616 19.8876 30.4114 19.8033C31.2418 19.7667 32.0678 19.6619 32.8811 19.49C33.2164 18.8091 33.4816 18.0958 33.6726 17.3611C33.6726 17.3611 35.7428 17.6286 36.9282 17.6249C37.8186 16.8225 38.3297 15.8588 38.3591 14.7962Z" fill="#CA2B1E"/>
</g>
<path d="M34.3376 12.105C34.3376 12.105 40.1307 14.5234 39.8101 16.5167C39.6067 17.7808 30.9812 16.502 30.9812 16.502L34.3376 12.105Z" fill="url(#paint1_linear_218_550)"/>
<path d="M34.3377 12.105L31.8918 15.3093L32.0751 16.6504C32.599 16.7164 33.2678 16.7952 33.9951 16.8684C34.8177 16.5423 37.0016 15.52 37.3735 13.6733C36.3999 13.0795 35.3854 12.5554 34.3377 12.105Z" fill="#4F6E33"/>
<path d="M19.113 14.6552C16.0295 14.6753 12.4203 16.7365 12.4112 19.1109C12.402 21.564 15.6576 23.6178 19.4794 23.6178C23.3543 23.6178 25.9888 21.7069 26.075 19.3692C26.1666 16.916 22.3943 14.6332 19.113 14.6552Z" fill="#88872A"/>
<g style="mix-blend-mode:multiply">
<path d="M19.113 14.6552C16.0295 14.6753 12.4203 16.7365 12.4111 19.1109C12.4111 20.2211 13.0725 21.2471 14.1553 22.0422V20.8312L22.9494 21.8425V23.0132C24.8493 22.2694 26.0163 20.9136 26.0749 19.371C26.1665 16.916 22.3942 14.6332 19.113 14.6552Z" fill="#DBCA52"/>
</g>
<path d="M19.113 13.1473C16.0295 13.1693 12.4203 15.311 12.4112 17.7789C12.402 20.3292 15.6576 22.4636 19.4794 22.4636C23.3543 22.4636 25.9888 20.4776 26.075 18.0482C26.1666 15.5034 22.3943 13.129 19.113 13.1473Z" fill="#DBCA52"/>
<path d="M19.1293 13.7299C16.4288 13.7482 13.2666 15.562 13.2666 17.6671C13.2575 19.8363 16.11 21.6501 19.4591 21.6501C22.854 21.6501 25.1643 19.9609 25.2394 17.8961C25.309 15.7287 22.0039 13.7097 19.1293 13.7299Z" fill="#DDD868"/>
<g style="mix-blend-mode:multiply" opacity="0.6">
<g style="mix-blend-mode:multiply" opacity="0.6">
<path d="M16.9641 16.7236C17.0062 17.1157 18.4115 18.0153 18.7376 17.7807C19.0637 17.5462 19.1498 16.8281 19.104 16.621C19.0582 16.414 16.9384 16.4928 16.9641 16.7236Z" fill="#DBCA52"/>
</g>
<g style="mix-blend-mode:multiply" opacity="0.6">
<path d="M16.3649 17.2732C16.5133 16.9764 18.3986 18.1563 18.186 18.3505C17.9735 18.5447 17.2352 18.9001 16.9201 18.7499C16.6049 18.5996 16.1817 17.6396 16.3649 17.2732Z" fill="#DBCA52"/>
</g>
<g style="mix-blend-mode:multiply" opacity="0.6">
<path d="M18.6221 18.7884C18.4389 18.6198 17.2462 19.1237 17.2114 19.3032C17.1766 19.4828 17.9094 20.4501 18.1623 20.4263C18.4151 20.4025 18.8823 19.0376 18.6221 18.7884Z" fill="#DBCA52"/>
</g>
<g style="mix-blend-mode:multiply" opacity="0.6">
<path d="M19.135 18.8779C19.3402 18.7204 20.3918 19.1784 20.3717 19.4276C20.3515 19.6767 19.4227 20.5946 19.0361 20.6423C18.8016 20.6588 18.9207 19.0428 19.135 18.8779Z" fill="#DBCA52"/>
</g>
<g style="mix-blend-mode:multiply" opacity="0.6">
<path d="M19.703 17.9108C19.3055 17.8705 19.8862 16.7639 20.1116 16.6833C20.3369 16.6027 21.9125 16.9984 21.9327 17.2109C21.9529 17.4234 20.1977 17.9566 19.703 17.9108Z" fill="#DBCA52"/>
</g>
<g style="mix-blend-mode:multiply" opacity="0.6">
<path d="M19.7543 18.4603C19.7305 18.191 22.0298 17.6615 22.2185 17.8301C22.4072 17.9986 21.4307 18.8084 21.0331 18.8652C20.6356 18.922 19.769 18.6673 19.7543 18.4603Z" fill="#DBCA52"/>
</g>
</g>
<g style="mix-blend-mode:multiply" opacity="0.6">
<path d="M19.113 13.1473C16.0295 13.1693 12.4203 15.311 12.4111 17.7789C12.4111 18.9331 13.0725 19.9994 14.1553 20.8238C15.7941 20.7607 17.3799 20.2263 18.7227 19.2849C18.7227 19.2849 19.9081 21.1738 22.9475 21.8352C24.8511 21.062 26.0181 19.6513 26.0768 18.0482C26.1665 15.5034 22.3942 13.129 19.113 13.1473Z" fill="#DBCA52"/>
</g>
<path d="M11.876 9.45928C8.60937 9.4831 4.77661 8.95911 4.77661 14.3656C4.77661 17.068 8.21547 19.3288 12.2644 19.3288C16.3683 19.3288 19.1604 17.2256 19.252 14.6515C19.3473 11.9491 15.3515 9.43546 11.876 9.45928ZM12.2259 17.493C9.24695 17.493 6.70948 15.9559 6.71681 14.1183C6.71681 12.3412 9.53825 10.7985 11.9401 10.7839C14.5051 10.7674 17.4364 12.4767 17.3668 14.3125C17.299 16.0622 15.2452 17.493 12.2259 17.493Z" fill="#AE5681"/>
<path opacity="0.3" d="M9.74915 19.0302L9.88656 19.0101C9.91953 18.3377 9.969 17.178 9.92137 17.2549C9.85358 17.3538 7.19887 15.9468 7.19887 15.9468L7.18237 17.9749C7.38574 18.1013 7.59826 18.2222 7.82177 18.3322L7.84194 16.7309L8.25233 16.9746V18.5264C8.73641 18.7356 9.23708 18.9041 9.74915 19.0302Z" fill="#FFFAED"/>
<g style="mix-blend-mode:multiply" opacity="0.5">
<path d="M11.8759 9.45933C10.4524 9.47032 8.9226 9.37689 7.64746 9.714C8.11323 10.297 8.41829 10.9918 8.53236 11.7293C9.57093 11.133 10.7427 10.8073 11.9401 10.7821C14.505 10.7656 17.4364 12.475 17.3668 14.3107C17.3026 15.9761 15.4357 17.352 12.6528 17.4803C12.6857 17.6818 12.6839 18.9295 12.5776 19.3234C16.5093 19.2189 19.1622 17.1578 19.252 14.6497C19.3473 11.9492 15.3514 9.43551 11.8759 9.45933Z" fill="#AE5681"/>
</g>
<path d="M11.876 8.05217C8.60939 8.07416 4.7858 10.3441 4.77664 12.9585C4.76564 15.6609 8.21549 17.9217 12.2644 17.9217C16.3683 17.9217 19.1605 15.8184 19.2521 13.2443C19.3473 10.542 15.3515 8.02835 11.876 8.05217ZM12.226 16.0786C9.24697 16.0786 6.70951 14.5415 6.71684 12.7039C6.71684 10.9267 9.53828 9.38411 11.9402 9.36762C14.5051 9.35296 17.4365 11.0605 17.3668 12.8981C17.2991 14.6551 15.2453 16.0786 12.226 16.0786Z" fill="#E5CDE0"/>
<path d="M25.3804 11.7917C22.1138 11.8137 18.2902 14.0836 18.281 16.698C18.27 19.4004 21.7199 21.6612 25.7688 21.6612C29.8727 21.6612 32.6649 19.5561 32.7565 16.9838C32.8517 14.2815 28.8559 11.7679 25.3804 11.7917ZM25.7304 19.8236C22.7514 19.8236 20.2139 18.2865 20.2212 16.4507C20.2212 14.6717 23.0427 13.1309 25.4445 13.1144C28.0095 13.098 30.9408 14.8073 30.8712 16.6449C30.8034 18.3927 28.746 19.8236 25.7304 19.8236Z" fill="#AE5681"/>
<path opacity="0.3" d="M27.4471 19.7666C27.4233 19.8014 26.9836 19.8051 26.4285 19.7959C26.2013 19.8143 25.9686 19.8234 25.7305 19.8234C25.3413 19.8234 24.9527 19.7971 24.5671 19.7446L24.0303 19.7227L24.1842 21.5438C24.534 21.5958 24.8862 21.6301 25.2395 21.6464L25.3146 20.0726L25.736 19.9645L25.7634 21.661C26.3154 21.6613 26.8665 21.6202 27.4123 21.5383C27.4526 20.8036 27.4893 19.7043 27.4471 19.7666Z" fill="#FFFAED"/>
<g style="mix-blend-mode:multiply" opacity="0.5">
<path d="M25.3806 11.7917C22.114 11.8137 18.2904 14.0836 18.2812 16.698C18.2812 18.237 19.3915 19.6294 21.1027 20.5455C21.0642 20.3274 21.088 18.8563 21.2511 18.3854C20.6044 17.8358 20.2196 17.1634 20.2214 16.447C20.2214 14.6681 23.0429 13.1273 25.4448 13.1108C28.0097 13.0943 30.9411 14.8036 30.8714 16.6412C30.8421 17.3924 30.4446 18.0849 29.763 18.6309C29.8942 19.3405 29.9428 20.0629 29.9078 20.7836C31.6464 19.9335 32.7017 18.543 32.7567 16.9802C32.852 14.2815 28.8561 11.7679 25.3806 11.7917Z" fill="#AE5681"/>
</g>
<path d="M25.3804 10.2692C22.1138 10.2912 18.2902 12.5612 18.281 15.1756C18.27 17.8779 21.7199 20.1387 25.7688 20.1387C29.8727 20.1387 32.6649 18.0337 32.7565 15.4614C32.8517 12.759 28.8559 10.2454 25.3804 10.2692ZM25.7468 18.5283C22.5681 18.5283 19.8603 16.8886 19.8676 14.9264C19.8676 13.0302 22.8778 11.3831 25.4427 11.3666C28.1725 11.3483 31.3054 13.1731 31.2358 15.1334C31.1589 16.9949 28.9658 18.5283 25.7413 18.5283H25.7468Z" fill="#E5CDE0"/>
<g style="mix-blend-mode:multiply" opacity="0.3">
<path d="M25.3806 10.2692C22.114 10.2912 18.2904 12.5612 18.2812 15.1756C18.2812 16.7347 19.4227 18.1472 21.1705 19.0633C22.1489 18.7247 23.1634 18.5009 24.1934 18.3964C21.7311 17.9695 19.855 16.5643 19.8624 14.9264C19.8624 13.0302 22.8725 11.3831 25.4374 11.3666C28.1673 11.3483 31.3002 13.1731 31.2305 15.1334C31.1701 16.731 29.556 18.0795 27.0735 18.4312C28.0319 18.5648 28.961 18.859 29.8217 19.3015C31.6098 18.455 32.6962 17.0462 32.753 15.4541C32.852 12.759 28.8561 10.2454 25.3806 10.2692Z" fill="#AE5681"/>
</g>
<path d="M4.83178 11.4214C4.11176 6.72943 10.8686 0.00195312 20.9011 0.00195312C30.8348 0.00195312 37.5495 6.95478 36.7781 11.6486C36.0197 16.2765 26.4469 18.4549 19.9924 18.2277C14.5016 18.0353 5.51882 15.8954 4.83178 11.4214Z" fill="url(#paint2_linear_218_550)"/>
<g style="mix-blend-mode:overlay" opacity="0.2">
<path d="M29.4569 5.48734C29.4576 4.08137 29.1115 2.69695 28.4493 1.45671C26.0522 0.483721 23.488 -0.0110748 20.901 0.000188038C13.9537 0.000188038 8.57645 3.22652 6.16724 6.76981C7.19321 11.4985 12.968 14.613 17.8469 14.613C23.7627 14.613 29.4569 11.3446 29.4569 5.48734Z" fill="#FED68F"/>
</g>
<g style="mix-blend-mode:multiply" opacity="0.2">
<path d="M34.4091 5.55322C34.2259 6.04423 31.7067 16.6393 18.3635 16.6393C14.0801 16.6393 7.30129 14.1696 5.45087 8.01007C4.89208 9.18262 4.66856 10.3552 4.83162 11.4214C5.51865 15.8973 14.5014 18.0353 19.9923 18.2277C26.4468 18.4549 36.0195 16.2765 36.778 11.6486C37.0858 9.77988 36.2045 7.55571 34.4091 5.55322Z" fill="#A33322"/>
</g>
<path d="M12.5337 17.9108C7.62736 17.4327 5.53143 14.9154 5.00562 14.155C5.83739 16.2931 8.83471 17.9145 12.2644 17.9145L12.5337 17.9108Z" fill="#FFE8E0"/>
<path opacity="0.7" d="M4.23999 13.2462C4.23999 13.2462 1.20786 13.1711 0.392578 14.4627C1.64693 14.3536 2.90718 14.3285 4.16488 14.3876C4.14337 14.0055 4.16859 13.6222 4.23999 13.2462Z" fill="#79AD41"/>
<g style="mix-blend-mode:overlay" opacity="0.4">
<path d="M17.3249 2.33793C16.0571 0.775143 7.62759 4.30744 7.67156 7.50262C7.69354 8.95731 9.46886 10.3076 11.0097 10.4853C14.967 10.9268 18.4865 3.74864 17.3249 2.33793Z" fill="#FED68F"/>
</g>
<g style="mix-blend-mode:multiply" opacity="0.2">
<path d="M36.778 11.6487C37.3551 8.13838 33.744 3.36575 27.7329 1.18188C31.1882 3.22834 35.2262 7.23698 32.2673 12.3339C28.081 19.5487 14.223 17.5059 9.63354 16.0402C12.8177 17.4143 16.9436 18.1215 19.9922 18.2278C26.4467 18.4604 36.0195 16.2766 36.778 11.6487Z" fill="#A33322"/>
</g>
<path d="M18.0486 26.9338C18.0486 26.9338 20.7143 29.1122 24.8548 28.8154C24.8548 28.8154 21.099 28.2218 18.0486 26.9338Z" fill="#FEEC98"/>
<path d="M12.8214 5.46705C13.5194 5.40843 13.2263 6.53517 12.9643 6.61029C12.7536 6.67258 12.2571 5.51286 12.8214 5.46705Z" fill="#FFE8A7"/>
<path d="M15.0327 3.51964C14.8495 2.7868 13.807 3.88607 13.9335 4.06928C14.0599 4.25249 15.2214 4.26531 15.0327 3.51964Z" fill="#FFE8A7"/>
<path d="M24.7485 3.3657C24.5653 2.63286 23.5247 3.73212 23.6492 3.9245C23.7738 4.11687 24.939 4.11137 24.7485 3.3657Z" fill="#FFE8A7"/>
<path opacity="0.5" d="M22.4968 0.960167C21.8263 0.736651 21.764 2.0979 22.0131 2.21699C22.2623 2.33607 23.1839 1.19284 22.4968 0.960167Z" fill="#FFE8A7"/>
<path d="M25.6571 7.55567C25.855 6.95474 26.7783 7.68208 26.7325 7.90193C26.6647 8.22805 25.5124 7.99904 25.6571 7.55567Z" fill="#FFE8A7"/>
<path opacity="0.5" d="M16.1212 6.29708C16.4198 5.6302 15.1446 5.67417 15.0988 5.89402C15.053 6.11387 15.839 6.93099 16.1212 6.29708Z" fill="#FFE8A7"/>
<path d="M19.6149 2.37641C19.3529 2.40389 19.5453 3.70835 20.1847 3.55262C20.9176 3.37674 19.9356 2.33793 19.6149 2.37641Z" fill="#FFE8A7"/>
<path d="M22.0534 6.98054C21.9728 6.72222 20.771 7.18024 21.0476 7.794C21.3646 8.49569 22.1505 7.29566 22.0534 6.98054Z" fill="#FFE8A7"/>
<path opacity="0.5" d="M25.9026 4.59869C26.2342 4.41548 27.0587 5.58986 26.3222 5.74376C25.7212 5.87017 25.7744 4.67015 25.9026 4.59869Z" fill="#FFE8A7"/>
<path opacity="0.5" d="M20.2011 9.95387C19.8255 9.93006 19.7229 8.48819 20.4283 8.75384C21.0035 8.97003 20.3476 9.96303 20.2011 9.95387Z" fill="#FFE8A7"/>
<path d="M16.863 9.24303C16.6926 8.63477 17.8542 8.6934 17.9384 8.90043C18.063 9.20822 16.9876 9.69373 16.863 9.24303Z" fill="#FFE8A7"/>
<path opacity="0.5" d="M24.4681 5.69069C25.1643 5.63206 24.8711 6.75881 24.611 6.83392C24.4003 6.89621 23.9111 5.73649 24.4681 5.69069Z" fill="#FFE8A7"/>
<path opacity="0.5" d="M18.5889 4.37892C19.2851 4.32029 18.992 5.4452 18.7318 5.52215C18.5211 5.58444 18.0319 4.42472 18.5889 4.37892Z" fill="#FFE8A7"/>
<path d="M18.8857 6.65985C19.0304 6.33374 20.3514 6.86138 19.8878 7.37987C19.5013 7.80308 18.827 6.78627 18.8857 6.65985Z" fill="#FFE8A7"/>
<path d="M7.74463 6.931C7.74463 6.931 9.35505 2.96084 14.9576 2.07043C12.2521 3.19139 9.79931 4.84426 7.74463 6.931Z" fill="#FEEC98"/>
<defs>
<linearGradient id="paint0_linear_218_550" x1="8.94929" y1="13.826" x2="4.5928" y2="18.2789" gradientUnits="userSpaceOnUse">
<stop stop-color="#5B7C38"/>
<stop offset="1" stop-color="#6C8E3E"/>
</linearGradient>
<linearGradient id="paint1_linear_218_550" x1="33.7743" y1="14.5359" x2="39.1377" y2="14.2043" gradientUnits="userSpaceOnUse">
<stop stop-color="#5B7C38"/>
<stop offset="1" stop-color="#6C8E3E"/>
</linearGradient>
<linearGradient id="paint2_linear_218_550" x1="10.1211" y1="-1.24937" x2="28.9129" y2="18.9935" gradientUnits="userSpaceOnUse">
<stop stop-color="#FFBD3E"/>
<stop offset="0.24" stop-color="#F6AE3A"/>
<stop offset="0.71" stop-color="#E69533"/>
<stop offset="1" stop-color="#E08C30"/>
</linearGradient>
</defs>
</svg>
