<svg width="18" height="18" viewBox="0 0 18 18" fill="none" xmlns="http://www.w3.org/2000/svg">
<path d="M15.1918 9.81675C15.2251 9.55008 15.2501 9.28341 15.2501 9.00008C15.2501 8.71675 15.2251 8.45008 15.1918 8.18342L16.9501 6.80841C17.1084 6.68341 17.1501 6.45841 17.0501 6.27508L15.3834 3.39175C15.3084 3.25841 15.1668 3.18341 15.0168 3.18341C14.9668 3.18341 14.9168 3.19175 14.8751 3.20842L12.8001 4.04175C12.3668 3.70842 11.9001 3.43341 11.3918 3.22508L11.0751 1.01675C11.0501 0.816748 10.8751 0.666748 10.6668 0.666748H7.33344C7.12511 0.666748 6.95011 0.816748 6.92511 1.01675L6.60844 3.22508C6.10011 3.43341 5.63344 3.71675 5.20011 4.04175L3.12511 3.20842C3.07511 3.19175 3.02511 3.18341 2.97511 3.18341C2.83344 3.18341 2.69178 3.25841 2.61678 3.39175L0.95011 6.27508C0.841777 6.45841 0.891777 6.68341 1.05011 6.80841L2.80844 8.18342C2.77511 8.45008 2.75011 8.72508 2.75011 9.00008C2.75011 9.27508 2.77511 9.55008 2.80844 9.81675L1.05011 11.1917C0.891777 11.3167 0.85011 11.5417 0.95011 11.7251L2.61678 14.6084C2.69178 14.7417 2.83344 14.8167 2.98344 14.8167C3.03344 14.8167 3.08344 14.8084 3.12511 14.7917L5.20011 13.9584C5.63344 14.2917 6.10011 14.5667 6.60844 14.7751L6.92511 16.9834C6.95011 17.1834 7.12511 17.3334 7.33344 17.3334H10.6668C10.8751 17.3334 11.0501 17.1834 11.0751 16.9834L11.3918 14.7751C11.9001 14.5667 12.3668 14.2834 12.8001 13.9584L14.8751 14.7917C14.9251 14.8084 14.9751 14.8167 15.0251 14.8167C15.1668 14.8167 15.3084 14.7417 15.3834 14.6084L17.0501 11.7251C17.1501 11.5417 17.1084 11.3167 16.9501 11.1917L15.1918 9.81675ZM13.5418 8.39175C13.5751 8.65008 13.5834 8.82508 13.5834 9.00008C13.5834 9.17508 13.5668 9.35841 13.5418 9.60841L13.4251 10.5501L14.1668 11.1334L14.7226 11.5657C14.9198 11.7191 14.9736 11.9945 14.8485 12.2108L14.7004 12.4667C14.5759 12.6819 14.3121 12.7729 14.0813 12.6803L13.4251 12.4167L12.5584 12.0667L11.8084 12.6334C11.4501 12.9001 11.1084 13.1001 10.7668 13.2417L9.88344 13.6001L9.75011 14.5417L9.64666 15.24C9.61034 15.4852 9.3999 15.6667 9.15206 15.6667H8.85133C8.60212 15.6667 8.39095 15.4832 8.35621 15.2364L8.25844 14.5417L8.12511 13.6001L7.24178 13.2417C6.88344 13.0917 6.55011 12.9001 6.21678 12.6501L5.45844 12.0667L4.57511 12.4251L3.9189 12.6886C3.68812 12.7813 3.42431 12.6903 3.29978 12.475L3.15177 12.2191C3.02666 12.0029 3.08038 11.7275 3.27759 11.5741L3.83344 11.1417L4.57511 10.5584L4.45844 9.61675C4.43344 9.35841 4.41678 9.16675 4.41678 9.00008C4.41678 8.83342 4.43344 8.64175 4.45844 8.39175L4.57511 7.45008L3.83344 6.86675L3.27759 6.43442C3.08038 6.28103 3.02666 6.00562 3.15177 5.78936L3.29978 5.53351C3.42431 5.31824 3.68812 5.22722 3.9189 5.3199L4.57511 5.58342L5.44178 5.93341L6.19178 5.36675C6.55011 5.10008 6.89178 4.90008 7.23344 4.75841L8.11678 4.40008L8.25011 3.45841L8.35356 2.76014C8.38988 2.51497 8.60032 2.33341 8.84816 2.33341H9.14055C9.38977 2.33341 9.60094 2.51694 9.63567 2.76373L9.73344 3.45841L9.86678 4.40008L10.7501 4.75841C11.1084 4.90841 11.4418 5.10008 11.7751 5.35008L12.5334 5.93341L13.4168 5.57508L14.073 5.31156C14.3038 5.21889 14.5676 5.30991 14.6921 5.52517L14.8424 5.78492C14.9665 5.99949 14.9147 6.27262 14.7206 6.42681L14.1668 6.86675L13.4251 7.45008L13.5418 8.39175ZM9.00011 5.66675C7.15844 5.66675 5.66678 7.15841 5.66678 9.00008C5.66678 10.8417 7.15844 12.3334 9.00011 12.3334C10.8418 12.3334 12.3334 10.8417 12.3334 9.00008C12.3334 7.15841 10.8418 5.66675 9.00011 5.66675ZM9.00011 10.6667C8.08344 10.6667 7.33344 9.91675 7.33344 9.00008C7.33344 8.08342 8.08344 7.33342 9.00011 7.33342C9.91678 7.33342 10.6668 8.08342 10.6668 9.00008C10.6668 9.91675 9.91678 10.6667 9.00011 10.6667Z" fill="#4E4539"/>
</svg>
